<?xml version="1.0" encoding="utf-8" ?>
<svg baseProfile="tiny" fill="none" height="100" stroke="black" stroke-opacity="1.0" stroke-width="0.5" version="1.2" width="100" xmlns="http://www.w3.org/2000/svg" xmlns:ev="http://www.w3.org/2001/xml-events" xmlns:xlink="http://www.w3.org/1999/xlink"><defs /><g><rect height="50.0" width="50.0" x="0.0" y="0.0" /><g><rect height="25.0" width="25.0" x="0.0" y="50.0" /><rect height="25.0" width="25.0" x="0.0" y="75.0" /><g><rect height="12.5" width="12.5" x="25.0" y="50.0" /><g><rect height="6.25" width="6.25" x="25.0" y="62.5" /><g><rect height="3.125" width="3.125" x="25.0" y="68.75" /><rect height="3.125" width="3.125" x="25.0" y="71.875" /><g><rect height="1.5625" width="1.5625" x="28.125" y="68.75" /><g><rect height="0.7812" width="0.7812" x="28.125" y="70.3125" /><rect height="0.7812" width="0.7812" x="28.125" y="71.0938" /><rect height="0.7812" width="0.7812" x="28.9062" y="70.3125" /><g><g><g><rect height="0.0977" width="0.0977" x="28.9062" y="71.0938" /><rect height="0.0977" width="0.0977" x="28.9062" y="71.1914" /><rect height="0.0977" width="0.0977" x="29.0039" y="71.0938" /><rect height="0.0977" width="0.0977" x="29.0039" y="71.1914" /></g><rect height="0.1953" width="0.1953" x="28.9062" y="71.2891" /><g><rect height="0.0977" width="0.0977" x="29.1016" y="71.0938" /><rect height="0.0977" width="0.0977" x="29.1016" y="71.1914" /><g><rect height="0.0488" width="0.0488" x="29.1992" y="71.0938" /><rect height="0.0488" width="0.0488" x="29.1992" y="71.1426" /><rect height="0.0488" width="0.0488" x="29.248" y="71.0938" /><rect height="0.0488" width="0.0488" x="29.248" y="71.1426" /></g><g><g><rect height="0.0244" width="0.0244" x="29.1992" y="71.1914" /><rect height="0.0244" width="0.0244" x="29.1992" y="71.2158" /><rect height="0.0244" width="0.0244" x="29.2236" y="71.1914" /><rect height="0.0244" width="0.0244" x="29.2236" y="71.2158" /></g><rect height="0.0488" width="0.0488" x="29.1992" y="71.2402" /><rect height="0.0488" width="0.0488" x="29.248" y="71.1914" /><rect height="0.0488" width="0.0488" x="29.248" y="71.2402" /></g></g><rect height="0.1953" width="0.1953" x="29.1016" y="71.2891" /></g><rect height="0.3906" width="0.3906" x="28.9062" y="71.4844" /><rect height="0.3906" width="0.3906" x="29.2969" y="71.0938" /><rect height="0.3906" width="0.3906" x="29.2969" y="71.4844" /></g></g><rect height="1.5625" width="1.5625" x="29.6875" y="68.75" /><rect height="1.5625" width="1.5625" x="29.6875" y="70.3125" /></g><rect height="3.125" width="3.125" x="28.125" y="71.875" /></g><rect height="6.25" width="6.25" x="31.25" y="62.5" /><g><rect height="3.125" width="3.125" x="31.25" y="68.75" /><rect height="3.125" width="3.125" x="31.25" y="71.875" /><rect height="3.125" width="3.125" x="34.375" y="68.75" /><rect height="3.125" width="3.125" x="34.375" y="71.875" /></g></g><rect height="12.5" width="12.5" x="37.5" y="50.0" /><g><rect height="6.25" width="6.25" x="37.5" y="62.5" /><g><g><rect height="1.5625" width="1.5625" x="37.5" y="68.75" /><rect height="1.5625" width="1.5625" x="37.5" y="70.3125" /><rect height="1.5625" width="1.5625" x="39.0625" y="68.75" /><rect height="1.5625" width="1.5625" x="39.0625" y="70.3125" /></g><g><rect height="1.5625" width="1.5625" x="37.5" y="71.875" /><rect height="1.5625" width="1.5625" x="37.5" y="73.4375" /><rect height="1.5625" width="1.5625" x="39.0625" y="71.875" /><rect height="1.5625" width="1.5625" x="39.0625" y="73.4375" /></g><g><rect height="1.5625" width="1.5625" x="40.625" y="68.75" /><rect height="1.5625" width="1.5625" x="40.625" y="70.3125" /><rect height="1.5625" width="1.5625" x="42.1875" y="68.75" /><rect height="1.5625" width="1.5625" x="42.1875" y="70.3125" /></g><g><rect height="1.5625" width="1.5625" x="40.625" y="71.875" /><rect height="1.5625" width="1.5625" x="40.625" y="73.4375" /><rect height="1.5625" width="1.5625" x="42.1875" y="71.875" /><rect height="1.5625" width="1.5625" x="42.1875" y="73.4375" /></g></g><g><g><rect height="1.5625" width="1.5625" x="43.75" y="62.5" /><rect height="1.5625" width="1.5625" x="43.75" y="64.0625" /><g><rect height="0.7812" width="0.7812" x="45.3125" y="62.5" /><g><rect height="0.3906" width="0.3906" x="45.3125" y="63.2812" /><g><rect height="0.1953" width="0.1953" x="45.3125" y="63.6719" /><rect height="0.1953" width="0.1953" x="45.3125" y="63.8672" /><rect height="0.1953" width="0.1953" x="45.5078" y="63.6719" /><rect height="0.1953" width="0.1953" x="45.5078" y="63.8672" /></g><rect height="0.3906" width="0.3906" x="45.7031" y="63.2812" /><rect height="0.3906" width="0.3906" x="45.7031" y="63.6719" /></g><g><rect height="0.3906" width="0.3906" x="46.0938" y="62.5" /><rect height="0.3906" width="0.3906" x="46.0938" y="62.8906" /><rect height="0.3906" width="0.3906" x="46.4844" y="62.5" /><g><rect height="0.1953" width="0.1953" x="46.4844" y="62.8906" /><rect height="0.1953" width="0.1953" x="46.4844" y="63.0859" /><rect height="0.1953" width="0.1953" x="46.6797" y="62.8906" /><rect height="0.1953" width="0.1953" x="46.6797" y="63.0859" /></g></g><rect height="0.7812" width="0.7812" x="46.0938" y="63.2812" /></g><rect height="1.5625" width="1.5625" x="45.3125" y="64.0625" /></g><rect height="3.125" width="3.125" x="43.75" y="65.625" /><rect height="3.125" width="3.125" x="46.875" y="62.5" /><rect height="3.125" width="3.125" x="46.875" y="65.625" /></g><g><rect height="3.125" width="3.125" x="43.75" y="68.75" /><rect height="3.125" width="3.125" x="43.75" y="71.875" /><g><rect height="1.5625" width="1.5625" x="46.875" y="68.75" /><g><rect height="0.7812" width="0.7812" x="46.875" y="70.3125" /><rect height="0.7812" width="0.7812" x="46.875" y="71.0938" /><rect height="0.7812" width="0.7812" x="47.6562" y="70.3125" /><g><rect height="0.3906" width="0.3906" x="47.6562" y="71.0938" /><rect height="0.3906" width="0.3906" x="47.6562" y="71.4844" /><g><rect height="0.1953" width="0.1953" x="48.0469" y="71.0938" /><rect height="0.1953" width="0.1953" x="48.0469" y="71.2891" /><rect height="0.1953" width="0.1953" x="48.2422" y="71.0938" /><rect height="0.1953" width="0.1953" x="48.2422" y="71.2891" /></g><rect height="0.3906" width="0.3906" x="48.0469" y="71.4844" /></g></g><rect height="1.5625" width="1.5625" x="48.4375" y="68.75" /><rect height="1.5625" width="1.5625" x="48.4375" y="70.3125" /></g><rect height="3.125" width="3.125" x="46.875" y="71.875" /></g></g></g><rect height="25.0" width="25.0" x="25.0" y="75.0" /></g><rect height="50.0" width="50.0" x="50.0" y="0.0" /><rect height="50.0" width="50.0" x="50.0" y="50.0" /></g></svg>