<?xml version="1.0" encoding="utf-8" ?>
<svg baseProfile="tiny" fill="none" height="100" stroke="black" stroke-opacity="1.0" stroke-width="0.5" version="1.2" width="100" xmlns="http://www.w3.org/2000/svg" xmlns:ev="http://www.w3.org/2001/xml-events" xmlns:xlink="http://www.w3.org/1999/xlink"><defs /><g><g><g><g><g><rect fill="#ffffff" height="3.125" width="3.125" x="0.0" y="0.0" /><rect fill="#ffffff" height="3.125" width="3.125" x="0.0" y="3.125" /><rect fill="#ffffff" height="3.125" width="3.125" x="3.125" y="0.0" /><rect fill="#ffffff" height="3.125" width="3.125" x="3.125" y="3.125" /></g><g><rect fill="#ffffff" height="3.125" width="3.125" x="0.0" y="6.25" /><rect fill="#ffffff" height="3.125" width="3.125" x="0.0" y="9.375" /><rect fill="#00ecff" height="3.125" width="3.125" x="3.125" y="6.25" /><rect fill="#ffffff" height="3.125" width="3.125" x="3.125" y="9.375" /></g><rect fill="#ffffff" height="6.25" width="6.25" x="6.25" y="0.0" /><g><rect fill="#00ecff" height="3.125" width="3.125" x="6.25" y="6.25" /><rect fill="#ffffff" height="3.125" width="3.125" x="6.25" y="9.375" /><rect fill="#ffffff" height="3.125" width="3.125" x="9.375" y="6.25" /><rect fill="#ffffff" height="3.125" width="3.125" x="9.375" y="9.375" /></g></g><g><g><rect fill="#ffffff" height="3.125" width="3.125" x="0.0" y="12.5" /><rect fill="#000000" height="3.125" width="3.125" x="0.0" y="15.625" /><rect fill="#ffffff" height="3.125" width="3.125" x="3.125" y="12.5" /><rect fill="#ffffff" height="3.125" width="3.125" x="3.125" y="15.625" /></g><rect fill="#ffffff" height="6.25" width="6.25" x="0.0" y="18.75" /><g><rect fill="#000000" height="3.125" width="3.125" x="6.25" y="12.5" /><rect fill="#ffffff" height="3.125" width="3.125" x="6.25" y="15.625" /><rect fill="#ffffff" height="3.125" width="3.125" x="9.375" y="12.5" /><rect fill="#ffe321" height="3.125" width="3.125" x="9.375" y="15.625" /></g><g><rect fill="#ffffff" height="3.125" width="3.125" x="6.25" y="18.75" /><rect fill="#000000" height="3.125" width="3.125" x="6.25" y="21.875" /><rect fill="#ffffff" height="3.125" width="3.125" x="9.375" y="18.75" /><rect fill="#ffffff" height="3.125" width="3.125" x="9.375" y="21.875" /></g></g><g><g><rect fill="#ffffff" height="3.125" width="3.125" x="12.5" y="0.0" /><rect fill="#ffffff" height="3.125" width="3.125" x="12.5" y="3.125" /><rect fill="#ffffff" height="3.125" width="3.125" x="15.625" y="0.0" /><rect fill="#ffffff" height="3.125" width="3.125" x="15.625" y="3.125" /></g><rect fill="#ffffff" height="6.25" width="6.25" x="12.5" y="6.25" /><g><rect fill="#ffffff" height="3.125" width="3.125" x="18.75" y="0.0" /><rect fill="#ffffff" height="3.125" width="3.125" x="18.75" y="3.125" /><rect fill="#ffffff" height="3.125" width="3.125" x="21.875" y="0.0" /><rect fill="#ffffff" height="3.125" width="3.125" x="21.875" y="3.125" /></g><g><rect fill="#ffffff" height="3.125" width="3.125" x="18.75" y="6.25" /><rect fill="#ffffff" height="3.125" width="3.125" x="18.75" y="9.375" /><rect fill="#ffffff" height="3.125" width="3.125" x="21.875" y="6.25" /><rect fill="#ffffff" height="3.125" width="3.125" x="21.875" y="9.375" /></g></g><rect fill="#ffffff" height="12.5" width="12.5" x="12.5" y="12.5" /></g><rect fill="#ffffff" height="25.0" width="25.0" x="0.0" y="25.0" /><g><rect fill="#ffffff" height="12.5" width="12.5" x="25.0" y="0.0" /><g><g><rect fill="#ffffff" height="3.125" width="3.125" x="25.0" y="12.5" /><rect fill="#ffffff" height="3.125" width="3.125" x="25.0" y="15.625" /><rect fill="#ffffff" height="3.125" width="3.125" x="28.125" y="12.5" /><rect fill="#ffffff" height="3.125" width="3.125" x="28.125" y="15.625" /></g><g><rect fill="#ffffff" height="3.125" width="3.125" x="25.0" y="18.75" /><rect fill="#ffffff" height="3.125" width="3.125" x="25.0" y="21.875" /><rect fill="#ffffff" height="3.125" width="3.125" x="28.125" y="18.75" /><rect fill="#ffffff" height="3.125" width="3.125" x="28.125" y="21.875" /></g><g><rect fill="#ffffff" height="3.125" width="3.125" x="31.25" y="12.5" /><rect fill="#ffffff" height="3.125" width="3.125" x="31.25" y="15.625" /><rect fill="#ffffff" height="3.125" width="3.125" x="34.375" y="12.5" /><rect fill="#ffffff" height="3.125" width="3.125" x="34.375" y="15.625" /></g><rect fill="#ffffff" height="6.25" width="6.25" x="31.25" y="18.75" /></g><g><g><rect fill="#ffffff" height="3.125" width="3.125" x="37.5" y="0.0" /><rect fill="#ffe321" height="3.125" width="3.125" x="37.5" y="3.125" /><rect fill="#ffffff" height="3.125" width="3.125" x="40.625" y="0.0" /><rect fill="#ffffff" height="3.125" width="3.125" x="40.625" y="3.125" /></g><rect fill="#ffffff" height="6.25" width="6.25" x="37.5" y="6.25" /><g><rect fill="#ffffff" height="3.125" width="3.125" x="43.75" y="0.0" /><rect fill="#ffffff" height="3.125" width="3.125" x="43.75" y="3.125" /><rect fill="#ffffff" height="3.125" width="3.125" x="46.875" y="0.0" /><rect fill="#00ecff" height="3.125" width="3.125" x="46.875" y="3.125" /></g><g><rect fill="#000000" height="3.125" width="3.125" x="43.75" y="6.25" /><rect fill="#ffffff" height="3.125" width="3.125" x="43.75" y="9.375" /><rect fill="#ffffff" height="3.125" width="3.125" x="46.875" y="6.25" /><rect fill="#ffffff" height="3.125" width="3.125" x="46.875" y="9.375" /></g></g><g><g><rect fill="#ffffff" height="3.125" width="3.125" x="37.5" y="12.5" /><rect fill="#ffffff" height="3.125" width="3.125" x="37.5" y="15.625" /><rect fill="#ffffff" height="3.125" width="3.125" x="40.625" y="12.5" /><rect fill="#ffffff" height="3.125" width="3.125" x="40.625" y="15.625" /></g><g><rect fill="#ffffff" height="3.125" width="3.125" x="37.5" y="18.75" /><rect fill="#ffffff" height="3.125" width="3.125" x="37.5" y="21.875" /><rect fill="#ffffff" height="3.125" width="3.125" x="40.625" y="18.75" /><rect fill="#ffffff" height="3.125" width="3.125" x="40.625" y="21.875" /></g><g><rect fill="#ffffff" height="3.125" width="3.125" x="43.75" y="12.5" /><rect fill="#ffffff" height="3.125" width="3.125" x="43.75" y="15.625" /><rect fill="#ffffff" height="3.125" width="3.125" x="46.875" y="12.5" /><rect fill="#ffffff" height="3.125" width="3.125" x="46.875" y="15.625" /></g><g><rect fill="#ffffff" height="3.125" width="3.125" x="43.75" y="18.75" /><rect fill="#ffffff" height="3.125" width="3.125" x="43.75" y="21.875" /><rect fill="#ffffff" height="3.125" width="3.125" x="46.875" y="18.75" /><rect fill="#ffffff" height="3.125" width="3.125" x="46.875" y="21.875" /></g></g></g><rect fill="#ffffff" height="25.0" width="25.0" x="25.0" y="25.0" /></g><g><g><g><g><rect fill="#ffffff" height="3.125" width="3.125" x="0.0" y="50.0" /><rect fill="#ffffff" height="3.125" width="3.125" x="0.0" y="53.125" /><rect fill="#ffffff" height="3.125" width="3.125" x="3.125" y="50.0" /><rect fill="#000000" height="3.125" width="3.125" x="3.125" y="53.125" /></g><g><rect fill="#ffffff" height="3.125" width="3.125" x="0.0" y="56.25" /><rect fill="#ffffff" height="3.125" width="3.125" x="0.0" y="59.375" /><rect fill="#ffffff" height="3.125" width="3.125" x="3.125" y="56.25" /><rect fill="#ffffff" height="3.125" width="3.125" x="3.125" y="59.375" /></g><g><rect fill="#ffffff" height="3.125" width="3.125" x="6.25" y="50.0" /><rect fill="#ffffff" height="3.125" width="3.125" x="6.25" y="53.125" /><rect fill="#ffffff" height="3.125" width="3.125" x="9.375" y="50.0" /><rect fill="#ffffff" height="3.125" width="3.125" x="9.375" y="53.125" /></g><g><rect fill="#ffffff" height="3.125" width="3.125" x="6.25" y="56.25" /><rect fill="#ffe321" height="3.125" width="3.125" x="6.25" y="59.375" /><rect fill="#ffffff" height="3.125" width="3.125" x="9.375" y="56.25" /><rect fill="#ffffff" height="3.125" width="3.125" x="9.375" y="59.375" /></g></g><g><g><rect fill="#ffffff" height="3.125" width="3.125" x="0.0" y="62.5" /><rect fill="#ffffff" height="3.125" width="3.125" x="0.0" y="65.625" /><rect fill="#ffffff" height="3.125" width="3.125" x="3.125" y="62.5" /><rect fill="#ffffff" height="3.125" width="3.125" x="3.125" y="65.625" /></g><g><rect fill="#ffffff" height="3.125" width="3.125" x="0.0" y="68.75" /><rect fill="#ffffff" height="3.125" width="3.125" x="0.0" y="71.875" /><rect fill="#ffffff" height="3.125" width="3.125" x="3.125" y="68.75" /><rect fill="#ffffff" height="3.125" width="3.125" x="3.125" y="71.875" /></g><g><rect fill="#ffffff" height="3.125" width="3.125" x="6.25" y="62.5" /><rect fill="#ffffff" height="3.125" width="3.125" x="6.25" y="65.625" /><rect fill="#ffffff" height="3.125" width="3.125" x="9.375" y="62.5" /><rect fill="#ffffff" height="3.125" width="3.125" x="9.375" y="65.625" /></g><g><rect fill="#ffffff" height="3.125" width="3.125" x="6.25" y="68.75" /><rect fill="#ffffff" height="3.125" width="3.125" x="6.25" y="71.875" /><rect fill="#ffffff" height="3.125" width="3.125" x="9.375" y="68.75" /><rect fill="#ffffff" height="3.125" width="3.125" x="9.375" y="71.875" /></g></g><rect fill="#ffffff" height="12.5" width="12.5" x="12.5" y="50.0" /><g><g><rect fill="#ffffff" height="3.125" width="3.125" x="12.5" y="62.5" /><rect fill="#ffffff" height="3.125" width="3.125" x="12.5" y="65.625" /><rect fill="#ffffff" height="3.125" width="3.125" x="15.625" y="62.5" /><rect fill="#ffffff" height="3.125" width="3.125" x="15.625" y="65.625" /></g><g><rect fill="#ffffff" height="3.125" width="3.125" x="12.5" y="68.75" /><rect fill="#ffffff" height="3.125" width="3.125" x="12.5" y="71.875" /><rect fill="#ffffff" height="3.125" width="3.125" x="15.625" y="68.75" /><rect fill="#ffffff" height="3.125" width="3.125" x="15.625" y="71.875" /></g><g><rect fill="#ffffff" height="3.125" width="3.125" x="18.75" y="62.5" /><rect fill="#ffffff" height="3.125" width="3.125" x="18.75" y="65.625" /><rect fill="#ffe321" height="3.125" width="3.125" x="21.875" y="62.5" /><rect fill="#ffffff" height="3.125" width="3.125" x="21.875" y="65.625" /></g><g><rect fill="#000000" height="3.125" width="3.125" x="18.75" y="68.75" /><rect fill="#ffffff" height="3.125" width="3.125" x="18.75" y="71.875" /><rect fill="#ffffff" height="3.125" width="3.125" x="21.875" y="68.75" /><rect fill="#ffffff" height="3.125" width="3.125" x="21.875" y="71.875" /></g></g></g><rect fill="#ffffff" height="25.0" width="25.0" x="0.0" y="75.0" /><g><g><g><rect fill="#ffffff" height="3.125" width="3.125" x="25.0" y="50.0" /><rect fill="#ffffff" height="3.125" width="3.125" x="25.0" y="53.125" /><rect fill="#ffffff" height="3.125" width="3.125" x="28.125" y="50.0" /><rect fill="#ffffff" height="3.125" width="3.125" x="28.125" y="53.125" /></g><g><rect fill="#ffffff" height="3.125" width="3.125" x="25.0" y="56.25" /><rect fill="#ffffff" height="3.125" width="3.125" x="25.0" y="59.375" /><rect fill="#ffffff" height="3.125" width="3.125" x="28.125" y="56.25" /><rect fill="#ffffff" height="3.125" width="3.125" x="28.125" y="59.375" /></g><rect fill="#ffffff" height="6.25" width="6.25" x="31.25" y="50.0" /><g><rect fill="#ffffff" height="3.125" width="3.125" x="31.25" y="56.25" /><rect fill="#ffffff" height="3.125" width="3.125" x="31.25" y="59.375" /><rect fill="#ffffff" height="3.125" width="3.125" x="34.375" y="56.25" /><rect fill="#ffffff" height="3.125" width="3.125" x="34.375" y="59.375" /></g></g><g><g><rect fill="#ffffff" height="3.125" width="3.125" x="25.0" y="62.5" /><rect fill="#ffffff" height="3.125" width="3.125" x="25.0" y="65.625" /><rect fill="#ffffff" height="3.125" width="3.125" x="28.125" y="62.5" /><rect fill="#ffffff" height="3.125" width="3.125" x="28.125" y="65.625" /></g><g><rect fill="#ffffff" height="3.125" width="3.125" x="25.0" y="68.75" /><rect fill="#ffffff" height="3.125" width="3.125" x="25.0" y="71.875" /><rect fill="#ffffff" height="3.125" width="3.125" x="28.125" y="68.75" /><rect fill="#ffffff" height="3.125" width="3.125" x="28.125" y="71.875" /></g><rect fill="#ffffff" height="6.25" width="6.25" x="31.25" y="62.5" /><g><rect fill="#ffffff" height="3.125" width="3.125" x="31.25" y="68.75" /><rect fill="#ffffff" height="3.125" width="3.125" x="31.25" y="71.875" /><rect fill="#ffffff" height="3.125" width="3.125" x="34.375" y="68.75" /><rect fill="#ffffff" height="3.125" width="3.125" x="34.375" y="71.875" /></g></g><rect fill="#ffe321" height="12.5" width="12.5" x="37.5" y="50.0" /><g><g><rect fill="#ffffff" height="3.125" width="3.125" x="37.5" y="62.5" /><rect fill="#ffffff" height="3.125" width="3.125" x="37.5" y="65.625" /><rect fill="#ffffff" height="3.125" width="3.125" x="40.625" y="62.5" /><rect fill="#ffffff" height="3.125" width="3.125" x="40.625" y="65.625" /></g><g><rect fill="#ffffff" height="3.125" width="3.125" x="37.5" y="68.75" /><rect fill="#ffffff" height="3.125" width="3.125" x="37.5" y="71.875" /><rect fill="#ffffff" height="3.125" width="3.125" x="40.625" y="68.75" /><rect fill="#ffffff" height="3.125" width="3.125" x="40.625" y="71.875" /></g><g><rect fill="#ffe321" height="3.125" width="3.125" x="43.75" y="62.5" /><rect fill="#ffffff" height="3.125" width="3.125" x="43.75" y="65.625" /><rect fill="#ffffff" height="3.125" width="3.125" x="46.875" y="62.5" /><rect fill="#f300c8" height="3.125" width="3.125" x="46.875" y="65.625" /></g><g><rect fill="#ffffff" height="3.125" width="3.125" x="43.75" y="68.75" /><rect fill="#ffffff" height="3.125" width="3.125" x="43.75" y="71.875" /><rect fill="#ffffff" height="3.125" width="3.125" x="46.875" y="68.75" /><rect fill="#ffffff" height="3.125" width="3.125" x="46.875" y="71.875" /></g></g></g><rect fill="#ffffff" height="25.0" width="25.0" x="25.0" y="75.0" /></g><g><g><rect fill="#ffffff" height="12.5" width="12.5" x="50.0" y="0.0" /><g><g><rect fill="#ffffff" height="3.125" width="3.125" x="50.0" y="12.5" /><rect fill="#ffffff" height="3.125" width="3.125" x="50.0" y="15.625" /><rect fill="#00ecff" height="3.125" width="3.125" x="53.125" y="12.5" /><rect fill="#000000" height="3.125" width="3.125" x="53.125" y="15.625" /></g><rect fill="#ffffff" height="6.25" width="6.25" x="50.0" y="18.75" /><g><rect fill="#ffffff" height="3.125" width="3.125" x="56.25" y="12.5" /><rect fill="#ffffff" height="3.125" width="3.125" x="56.25" y="15.625" /><rect fill="#ffffff" height="3.125" width="3.125" x="59.375" y="12.5" /><rect fill="#ffffff" height="3.125" width="3.125" x="59.375" y="15.625" /></g><g><rect fill="#ffffff" height="3.125" width="3.125" x="56.25" y="18.75" /><rect fill="#ffffff" height="3.125" width="3.125" x="56.25" y="21.875" /><rect fill="#ffffff" height="3.125" width="3.125" x="59.375" y="18.75" /><rect fill="#ffffff" height="3.125" width="3.125" x="59.375" y="21.875" /></g></g><g><g><rect fill="#ffffff" height="3.125" width="3.125" x="62.5" y="0.0" /><rect fill="#ffffff" height="3.125" width="3.125" x="62.5" y="3.125" /><rect fill="#ffffff" height="3.125" width="3.125" x="65.625" y="0.0" /><rect fill="#ffffff" height="3.125" width="3.125" x="65.625" y="3.125" /></g><g><rect fill="#ffffff" height="3.125" width="3.125" x="62.5" y="6.25" /><rect fill="#ffffff" height="3.125" width="3.125" x="62.5" y="9.375" /><rect fill="#f300c8" height="3.125" width="3.125" x="65.625" y="6.25" /><rect fill="#ffffff" height="3.125" width="3.125" x="65.625" y="9.375" /></g><rect fill="#ffffff" height="6.25" width="6.25" x="68.75" y="0.0" /><g><rect fill="#ffffff" height="3.125" width="3.125" x="68.75" y="6.25" /><rect fill="#ffffff" height="3.125" width="3.125" x="68.75" y="9.375" /><rect fill="#ffffff" height="3.125" width="3.125" x="71.875" y="6.25" /><rect fill="#ffffff" height="3.125" width="3.125" x="71.875" y="9.375" /></g></g><g><rect fill="#ffffff" height="6.25" width="6.25" x="62.5" y="12.5" /><g><rect fill="#ffffff" height="3.125" width="3.125" x="62.5" y="18.75" /><rect fill="#ffffff" height="3.125" width="3.125" x="62.5" y="21.875" /><rect fill="#ffffff" height="3.125" width="3.125" x="65.625" y="18.75" /><rect fill="#ffffff" height="3.125" width="3.125" x="65.625" y="21.875" /></g><g><rect fill="#ffffff" height="3.125" width="3.125" x="68.75" y="12.5" /><rect fill="#ffffff" height="3.125" width="3.125" x="68.75" y="15.625" /><rect fill="#ffe321" height="3.125" width="3.125" x="71.875" y="12.5" /><rect fill="#ffe321" height="3.125" width="3.125" x="71.875" y="15.625" /></g><g><rect fill="#ffffff" height="3.125" width="3.125" x="68.75" y="18.75" /><rect fill="#ffffff" height="3.125" width="3.125" x="68.75" y="21.875" /><rect fill="#ffffff" height="3.125" width="3.125" x="71.875" y="18.75" /><rect fill="#ffffff" height="3.125" width="3.125" x="71.875" y="21.875" /></g></g></g><rect fill="#ffffff" height="25.0" width="25.0" x="50.0" y="25.0" /><g><g><g><rect fill="#ffffff" height="3.125" width="3.125" x="75.0" y="0.0" /><rect fill="#ffffff" height="3.125" width="3.125" x="75.0" y="3.125" /><rect fill="#ffffff" height="3.125" width="3.125" x="78.125" y="0.0" /><rect fill="#ffffff" height="3.125" width="3.125" x="78.125" y="3.125" /></g><g><rect fill="#ffffff" height="3.125" width="3.125" x="75.0" y="6.25" /><rect fill="#ffffff" height="3.125" width="3.125" x="75.0" y="9.375" /><rect fill="#ffffff" height="3.125" width="3.125" x="78.125" y="6.25" /><rect fill="#ffffff" height="3.125" width="3.125" x="78.125" y="9.375" /></g><g><rect fill="#ffffff" height="3.125" width="3.125" x="81.25" y="0.0" /><rect fill="#ffffff" height="3.125" width="3.125" x="81.25" y="3.125" /><rect fill="#ffffff" height="3.125" width="3.125" x="84.375" y="0.0" /><rect fill="#ffffff" height="3.125" width="3.125" x="84.375" y="3.125" /></g><g><rect fill="#ffffff" height="3.125" width="3.125" x="81.25" y="6.25" /><rect fill="#ffffff" height="3.125" width="3.125" x="81.25" y="9.375" /><rect fill="#ffffff" height="3.125" width="3.125" x="84.375" y="6.25" /><rect fill="#000000" height="3.125" width="3.125" x="84.375" y="9.375" /></g></g><g><g><rect fill="#ffffff" height="3.125" width="3.125" x="75.0" y="12.5" /><rect fill="#ffffff" height="3.125" width="3.125" x="75.0" y="15.625" /><rect fill="#f300c8" height="3.125" width="3.125" x="78.125" y="12.5" /><rect fill="#ffffff" height="3.125" width="3.125" x="78.125" y="15.625" /></g><g><rect fill="#ffffff" height="3.125" width="3.125" x="75.0" y="18.75" /><rect fill="#ffffff" height="3.125" width="3.125" x="75.0" y="21.875" /><rect fill="#ffffff" height="3.125" width="3.125" x="78.125" y="18.75" /><rect fill="#ffffff" height="3.125" width="3.125" x="78.125" y="21.875" /></g><rect fill="#ffffff" height="6.25" width="6.25" x="81.25" y="12.5" /><g><rect fill="#ffffff" height="3.125" width="3.125" x="81.25" y="18.75" /><rect fill="#ffffff" height="3.125" width="3.125" x="81.25" y="21.875" /><rect fill="#ffffff" height="3.125" width="3.125" x="84.375" y="18.75" /><rect fill="#ffffff" height="3.125" width="3.125" x="84.375" y="21.875" /></g></g><rect fill="#ffffff" height="12.5" width="12.5" x="87.5" y="0.0" /><g><g><rect fill="#ffffff" height="3.125" width="3.125" x="87.5" y="12.5" /><rect fill="#00ecff" height="3.125" width="3.125" x="87.5" y="15.625" /><rect fill="#ffffff" height="3.125" width="3.125" x="90.625" y="12.5" /><rect fill="#ffffff" height="3.125" width="3.125" x="90.625" y="15.625" /></g><g><rect fill="#ffffff" height="3.125" width="3.125" x="87.5" y="18.75" /><rect fill="#00ecff" height="3.125" width="3.125" x="87.5" y="21.875" /><rect fill="#000000" height="3.125" width="3.125" x="90.625" y="18.75" /><rect fill="#ffffff" height="3.125" width="3.125" x="90.625" y="21.875" /></g><rect fill="#ffffff" height="6.25" width="6.25" x="93.75" y="12.5" /><g><rect fill="#000000" height="3.125" width="3.125" x="93.75" y="18.75" /><rect fill="#ffffff" height="3.125" width="3.125" x="93.75" y="21.875" /><rect fill="#ffffff" height="3.125" width="3.125" x="96.875" y="18.75" /><rect fill="#ffffff" height="3.125" width="3.125" x="96.875" y="21.875" /></g></g></g><g><g><g><rect fill="#f300c8" height="3.125" width="3.125" x="75.0" y="25.0" /><rect fill="#ffffff" height="3.125" width="3.125" x="75.0" y="28.125" /><rect fill="#ffffff" height="3.125" width="3.125" x="78.125" y="25.0" /><rect fill="#ffffff" height="3.125" width="3.125" x="78.125" y="28.125" /></g><g><rect fill="#ffffff" height="3.125" width="3.125" x="75.0" y="31.25" /><rect fill="#ffffff" height="3.125" width="3.125" x="75.0" y="34.375" /><rect fill="#000000" height="3.125" width="3.125" x="78.125" y="31.25" /><rect fill="#ffffff" height="3.125" width="3.125" x="78.125" y="34.375" /></g><g><rect fill="#ffffff" height="3.125" width="3.125" x="81.25" y="25.0" /><rect fill="#ffffff" height="3.125" width="3.125" x="81.25" y="28.125" /><rect fill="#ffffff" height="3.125" width="3.125" x="84.375" y="25.0" /><rect fill="#ffffff" height="3.125" width="3.125" x="84.375" y="28.125" /></g><g><rect fill="#ffffff" height="3.125" width="3.125" x="81.25" y="31.25" /><rect fill="#ffffff" height="3.125" width="3.125" x="81.25" y="34.375" /><rect fill="#ffffff" height="3.125" width="3.125" x="84.375" y="31.25" /><rect fill="#ffffff" height="3.125" width="3.125" x="84.375" y="34.375" /></g></g><rect fill="#ffffff" height="12.5" width="12.5" x="75.0" y="37.5" /><g><g><rect fill="#ffffff" height="3.125" width="3.125" x="87.5" y="25.0" /><rect fill="#ffffff" height="3.125" width="3.125" x="87.5" y="28.125" /><rect fill="#ffffff" height="3.125" width="3.125" x="90.625" y="25.0" /><rect fill="#ffffff" height="3.125" width="3.125" x="90.625" y="28.125" /></g><g><rect fill="#ffffff" height="3.125" width="3.125" x="87.5" y="31.25" /><rect fill="#ffffff" height="3.125" width="3.125" x="87.5" y="34.375" /><rect fill="#ffffff" height="3.125" width="3.125" x="90.625" y="31.25" /><rect fill="#ffffff" height="3.125" width="3.125" x="90.625" y="34.375" /></g><g><rect fill="#000000" height="3.125" width="3.125" x="93.75" y="25.0" /><rect fill="#ffffff" height="3.125" width="3.125" x="93.75" y="28.125" /><rect fill="#ffffff" height="3.125" width="3.125" x="96.875" y="25.0" /><rect fill="#ffffff" height="3.125" width="3.125" x="96.875" y="28.125" /></g><g><rect fill="#ffffff" height="3.125" width="3.125" x="93.75" y="31.25" /><rect fill="#ffffff" height="3.125" width="3.125" x="93.75" y="34.375" /><rect fill="#ffffff" height="3.125" width="3.125" x="96.875" y="31.25" /><rect fill="#000000" height="3.125" width="3.125" x="96.875" y="34.375" /></g></g><g><g><rect fill="#ffffff" height="3.125" width="3.125" x="87.5" y="37.5" /><rect fill="#ffffff" height="3.125" width="3.125" x="87.5" y="40.625" /><rect fill="#ffffff" height="3.125" width="3.125" x="90.625" y="37.5" /><rect fill="#ffffff" height="3.125" width="3.125" x="90.625" y="40.625" /></g><g><rect fill="#ffffff" height="3.125" width="3.125" x="87.5" y="43.75" /><rect fill="#000000" height="3.125" width="3.125" x="87.5" y="46.875" /><rect fill="#ffffff" height="3.125" width="3.125" x="90.625" y="43.75" /><rect fill="#ffffff" height="3.125" width="3.125" x="90.625" y="46.875" /></g><rect fill="#ffffff" height="6.25" width="6.25" x="93.75" y="37.5" /><g><rect fill="#ffffff" height="3.125" width="3.125" x="93.75" y="43.75" /><rect fill="#ffffff" height="3.125" width="3.125" x="93.75" y="46.875" /><rect fill="#ffffff" height="3.125" width="3.125" x="96.875" y="43.75" /><rect fill="#ffffff" height="3.125" width="3.125" x="96.875" y="46.875" /></g></g></g></g><rect fill="#00ecff" height="50.0" width="50.0" x="50.0" y="50.0" /></g></svg>