<?xml version="1.0" encoding="utf-8" ?>
<svg baseProfile="tiny" fill="none" height="250" stroke="black" stroke-opacity="1.0" stroke-width="0.5" version="1.2" width="250" xmlns="http://www.w3.org/2000/svg" xmlns:ev="http://www.w3.org/2001/xml-events" xmlns:xlink="http://www.w3.org/1999/xlink"><defs /><polyline points="44,193 44,216 44,49 44,80 44,193 44,51 44,31 44,33 44,198 35,198 160,198 71,198 71,205 52,205 52,139 52,57 61,57 61,213 159,213 139,213 155,213 212,213 212,192 51,192 202,192 202,133 138,133 138,24 152,24 152,159 45,159 149,159 149,107 233,107 233,66 233,102 116,102 55,102 55,98 55,146 55,194 55,46 55,98 55,176 55,121 38,121 38,172 147,172 181,172 181,73 127,73 127,219 159,219 101,219 101,231 101,130 198,130 201,130 128,130 128,11 128,134 210,134 212,134 212,208 106,208 131,208 131,221 131,86 131,44 131,12 131,165 195,165 212,165 105,165 45,165 171,165 171,190 140,190 140,204 140,116 140,70 140,247 140,29 82,29 169,29 60,29 161,29 161,154 161,183 215,183 95,183 24,183 24,183 24,140 34,140 165,140 142,140 142,201 127,201 127,20 151,20 87,20 87,116 205,116 205,30 121,30 152,30 161,30 161,67 161,6 161,34 161,185 161,64 161,223 161,121 161,213 74,213 74,88 74,107 74,158 133,158 107,158 107,186 229,186 229,166 167,166 167,50 90,50 163,50 163,84 163,65 163,105 163,11 107,11 155,11 126,11 126,110 183,110 183,21 180,21 167,21 167,191 86,191 86,119 102,119 102,48 29,48 186,48 186,68 186,118 186,58 186,58 187,58 99,58 99,129 167,129 87,129 26,129 26,173 189,173 168,173 168,167 168,91 118,91 118,65 152,65 152,236 174,236 106,236 106,115 106,73 208,73 120,73 95,73 95,80 95,10 102,10 102,179 172,179 17,179 17,74 17,89 17,76 109,76 109,164 19,164 49,164 49,224 49,58 49,186 99,186 75,186 75,57 161,57 161,75 161,94 161,203 76,203 72,203 72,32 72,182 72,39 115,39 157,39 157,217 62,217 68,217 68,30 68,47 191,47 129,47 166,47 198,47 195,47 114,47 106,47 106,200 106,22 106,148 72,148 72,182 117,182 96,182 96,220 96,139 121,139 27,139 27,151 157,151 136,151 136,29 136,246 136,49 179,49 179,212 179,101 179,115 179,210 179,18 179,200 184,200 184,61 184,55 184,215 184,173 184,29 74,29 135,29 147,29 147,134 207,134 207,33 207,208 207,214 207,178 207,217 105,217 93,217 93,215 93,208 93,75 93,172 232,172 232,124 227,124 212,124 203,124 203,112 156,112 156,90 156,47 156,80 156,57 156,64 156,191 156,152 156,52 156,52 156,57 191,57 72,57 141,57 141,148 209,148 209,216 62,216 101,216 101,32 205,32 205,122 53,122 53,219 107,219 129,219 129,106 129,163 129,152 31,152 31,159 21,159 96,159 96,112 18,112 107,112 107,205 107,3 107,231 68,231 162,231 162,159 162,69 60,69 91,69 91,101 204,101 204,117 204,166 189,166 189,81 22,81 22,147 130,147 101,147 101,226 171,226 171,228 142,228 142,128 142,211 192,211 112,211 207,211 207,155 33,155 152,155 152,114 181,114 181,212 201,212 189,212 189,35 64,35 141,35 49,35 206,35 198,35 199,35 199,93 199,32 199,210 199,211 138,211 132,211 122,211 122,31 122,248 122,226 131,226 182,226 182,78 34,78 34,133 34,167 116,167 116,39 174,39 141,39 141,214 141,101 83,101 173,101 208,101 208,155 91,155 91,88 106,88 151,88 70,88 135,88 135,82 135,182 135,142 240,142 240,154 180,154 123,154 146,154 109,154 109,58 101,58 101,198 213,198 213,123 213,134 213,110 213,58 213,56 144,56 144,81 144,151 33,151 33,45 33,160 33,120 159,120 208,120 208,61 208,60 178,60 178,122 141,122 141,211 135,211 135,161 135,86 114,86 113,86 113,93 48,93 187,93 198,93 60,93 60,115 60,160 92,160 176,160 33,160 78,160 78,40 203,40 206,40 121,40 121,146 246,146 246,102 246,130 148,130 148,148 148,145 148,190 170,190 170,83 170,185 32,185 32,108 126,108 126,2 126,122 165,122 135,122 2,122 131,122 131,103 219,103 219,134 110,134 110,22 110,154 110,186 110,207 110,128 133,128 138,128 138,124 138,225 102,225 102,51 102,144 193,144 31,144 31,160 31,118 31,122 139,122 52,122 189,122 189,39 147,39 171,39 179,39 55,39 55,41 34,41 76,41 156,41 156,17 156,223 59,223 64,223 97,223 114,223 117,223 196,223 197,223 197,227 177,227 180,227 135,227 135,232 135,237 135,221 135,107 135,107 135,122 135,118 63,118 133,118 133,36 133,158 133,45 133,163 133,115 133,247 133,75 179,75 217,75 84,75 236,75 236,126 178,126 178,210 178,63 190,63 190,224 155,224 155,135 160,135 160,206 122,206 122,14 182,14 110,14 109,14 109,100 77,100 128,100 198,100 214,100 91,100 127,100 147,100 203,100 243,100 243,107 243,119 180,119 87,119 87,28 87,29 87,182 87,164 210,164 210,116 210,71 210,155 75,155 75,110 75,12 101,12 101,94 46,94 46,73 123,73 123,221 123,226 123,209 123,81 50,81 98,81 98,3 98,215 98,141 197,141 137,141 137,110 2,110 173,110 46,110 68,110 26,110 133,110 133,64 133,206 100,206 100,62 100,124 39,124 210,124 25,124 25,53 25,185 21,185 21,116 140,116 42,116 105,116 105,215 190,215 190,66 190,64 46,64 72,64 175,64 21,64 21,100 56,100 28,100 91,100 24,100 24,117 199,117 13,117 13,98 196,98 157,98 157,125 157,245 135,245 135,169 224,169 62,169 29,169 191,169 80,169 80,52 92,52 92,243 92,17 92,198 92,178 47,178 210,178 53,178 149,178 234,178 234,69 234,170 226,170 94,170 94,140 64,140 64,234 183,234 183,96 183,84 100,84 51,84 18,84 191,84 24,84 71,84 71,141 83,141 205,141 98,141 165,141 165,123 165,41 165,199 165,99 239,99 239,170 239,170 239,97 239,141 239,106 73,106 73,105 139,105 139,121 139,108 75,108 75,180 75,222 71,222 71,206 59,206 59,92 59,217 59,148 59,96 59,137 59,27 174,27 174,212 43,212 43,89 43,98 43,109 43,218 119,218 119,201 88,201 88,136 29,136 151,136 86,136 86,125 86,141 86,198 95,198 221,198 179,198 151,198 151,204 151,123 151,196 151,169 218,169 218,89 192,89 188,89 43,89 43,61 47,61 180,61 23,61 23,179 28,179 233,179 209,179 209,157 209,70 209,149 99,149 99,18 108,18 166,18 166,50 130,50 130,112 130,77 130,209 130,157 76,157 130,157 53,157 53,157 104,157 41,157 183,157 183,117 183,146 178,146 167,146 167,68 225,68 80,68 80,152 80,153 80,138 61,138 61,83 54,83 185,83 125,83 125,172 125,71 213,71 213,89 10,89 207,89 196,89 196,148 196,186 196,75 113,75 79,75 79,27 177,27 113,27 113,135 113,182 113,207 94,207 94,198 114,198 94,198 94,60 94,24 94,169 144,169 144,220 150,220 150,245 150,83 150,32 150,201 115,201 193,201 126,201 126,139 230,139 12,139 78,139 78,169 91,169 91,155 91,32 83,32 46,32 46,42 56,42 56,148 56,25 56,131 56,39 56,62 56,175 56,80 34,80 146,80 146,4 146,48 145,48 67,48 32,48 32,50 32,185 32,179 32,183 32,193 190,193 178,193 141,193 37,193 37,125 151,125 151,33 151,116 151,219 119,219 103,219 103,92 23,92 225,92 225,73 225,182 85,182 85,208 128,208 128,87 135,87 135,14 169,14 169,81 169,42 169,132 145,132 145,104 145,151 84,151 84,36 165,36 165,209 132,209 37,209 86,209 170,209 118,209 118,62 190,62 190,64 190,86 190,77 190,208 68,208 68,159 32,159 32,75 32,159 107,159 79,159 190,159 190,122 102,122 124,122 207,122 182,122 182,82 69,82 219,82 219,175 236,175 236,152 236,90 226,90 226,109 226,157 60,157 60,132 60,182 107,182 107,175 160,175 160,193 160,216 132,216 132,35 132,152 85,152 21,152 21,77 21,158 137,158 137,5 157,5 157,103 157,125 203,125 203,147 50,147 50,26 125,26 101,26 87,26 87,84 87,63 125,63 92,63 20,63 20,121 20,180 20,191 20,156 20,142 60,142 60,51 60,193 60,35 60,196 187,196 187,114 7,114 66,114 95,114 79,114 10,114 65,114 203,114 203,145 203,125 203,152 132,152 132,231 132,58 132,8 150,8 95,8 95,35 180,35 180,183 92,183 215,183 215,131 215,138 215,121 215,160 42,160 42,43 42,165 42,108 181,108 181,17 181,202 181,60 181,65 181,119 181,64 131,64 170,64 170,39 190,39 45,39 181,39 77,39 77,144 12,144 12,154 12,150 223,150 201,150 201,200 162,200 162,211 162,220 107,220 107,20 107,29 61,29 61,72 61,208 90,208 90,179 44,179 44,138 230,138 220,138 38,138 38,117 38,177 185,177 185,107 185,139 185,71 185,211 185,98 185,211 185,154 242,154 27,154 27,56 222,56 82,56 152,56 152,68 152,49 152,135 96,135 96,188 96,232 88,232 92,232 83,232 187,232 187,115 173,115 173,60 201,60 201,148 201,112 152,112 135,112 135,60 135,222 135,99 135,31 135,37 135,54 135,4 151,4 112,4 112,77 222,77 75,77 196,77 150,77 150,132 51,132 51,32 143,32 143,209 102,209 107,209 107,31 107,27 131,27 193,27 150,27 123,27 123,225 123,135 123,51 123,141 81,141 81,89 81,222 63,222 67,222 67,188 67,51 67,104 96,104 180,104 139,104 202,104 55,104 55,212 98,212 128,212 63,212 149,212 149,163 149,25 149,94 212,94 212,170 212,132 227,132 227,118 208,118 150,118 150,199 150,140 171,140 140,140 140,219 124,219 124,208 124,155 57,155 77,155 33,155 33,122 45,122 163,122 135,122 135,34 169,34 138,34 41,34 170,34 208,34 208,206 208,70 181,70 34,70 58,70 58,203 58,101 58,223 159,223 159,187 159,167 217,167 194,167 194,154 163,154 163,173 65,173 142,173 191,173 191,56 191,147 191,77 191,62 39,62 39,63 39,53 39,49 39,54 39,176 170,176 170,190 170,76 197,76 97,76 97,106 27,106 27,195 24,195 24,91 24,99 213,99 213,153 213,161 152,161 152,239 152,92 152,119 152,203 152,72 152,18 67,18 178,18 98,18 98,225 98,12 91,12 116,12 128,12 119,12 75,12 75,154 75,84 138,84 138,238 121,238 81,238 81,206 81,169 81,197 81,122 81,15 81,34 45,34 45,219 81,219 87,219 66,219 182,219 112,219 134,219 151,219 154,219 149,219 149,54 149,236 149,135 149,246 151,246 156,246 117,246 117,152 203,152 184,152 184,219 167,219 144,219 155,219 155,203 172,203 172,85 172,50 172,34 172,176 235,176 133,176 173,176 173,119 105,119 207,119 204,119 246,119 140,119 140,25 86,25 86,229 86,220 86,109 19,109 19,172 19,76 19,162 125,162 125,61 53,61 53,221 53,71 135,71 135,118 135,186 135,90 135,165 95,165 26,165 26,164 26,172 15,172 15,116 215,116 100,116 100,119 100,157 161,157 161,123 161,99 48,99 48,71 116,71 116,206 103,206 103,19 185,19 190,19 156,19 94,19 94,215 93,215 165,215 165,22 121,22 83,22 57,22 57,60 62,60 62,59 31,59 56,59 56,139 56,203 56,115 76,115 76,92 76,193 88,193 200,193 153,193 80,193 130,193 130,164 216,164 216,43 216,138 138,138 210,138 206,138 206,212 206,143 206,177 206,111 206,129 206,103 206,112 206,44 158,44 158,231 158,66 158,92 158,169 11,169 164,169 164,64 199,64 231,64 231,99 231,119 153,119 153,71 229,71 229,179 62,179 62,102 99,102 221,102 221,130 32,130 32,110 32,102 136,102 136,210 50,210 129,210 212,210 176,210 108,210 108,245 156,245 139,245 139,141 201,141 221,141 215,141 215,90 215,55 215,155 86,155 144,155 10,155 10,84 166,84 166,147 119,147 119,183 119,190 109,190 147,190 147,247 117,247 117,232 129,232 129,44 57,44 57,169 217,169 217,157 217,51 62,51 62,197 183,197 204,197 204,154 148,154 148,18 148,168 148,187 168,187 84,187 84,193 84,107 84,162 227,162 227,96 227,151 227,170 227,146 204,146 204,87 45,87 200,87 62,87 62,117 62,197 78,197 116,197 185,197 136,197 136,159 136,36 45,36 205,36 140,36 140,237 174,237 174,143 174,182 113,182 112,182 112,2 112,101 112,243 89,243 89,226 78,226 78,206 189,206 172,206 172,146 179,146 179,161 179,149 179,179 179,121 39,121 22,121 22,136 206,136 243,136 243,143 243,166 235,166 235,179 235,104 20,104 220,104 25,104 45,104 30,104 209,104 209,92 209,141 218,141 218,63 218,149 218,58 218,113 218,202 218,113 20,113 157,113 157,154 157,219 157,195 157,12 139,12 139,170 139,248 139,199 139,152 139,176 139,227 185,227 185,77 185,114 185,100 185,182 190,182 190,148 204,148 204,194 105,194 50,194 100,194 100,223 100,13 151,13 151,13 136,13 136,150 136,166 136,30 136,33 99,33 99,155 69,155 167,155 167,45 123,45 84,45 84,189 84,71 84,106 105,106 105,199 85,199 122,199 122,7 122,139 171,139 244,139 190,139 204,139 155,139 84,139 84,179 84,163 84,123 84,136 84,40 84,242 87,242 87,223 94,223 94,112 122,112 132,112 132,190 92,190 92,100 200,100 110,100 82,100 82,222 134,222 134,12 98,12 133,12 133,200 224,200 224,99 224,130 6,130 208,130 185,130 185,215 185,64 213,64 213,53 72,53 85,53 85,186 186,186 114,186 233,186 233,117 233,180 233,130 233,95 178,95 178,105 178,24 178,188 128,188 128,31 194,31 194,117 194,87 194,95 194,53 70,53 70,71 70,43 175,43 175,64 153,64 153,40 63,40 63,56 48,56 48,123 236,123 236,164 19,164 19,120 19,167 19,175 19,185 126,185 126,226 152,226 152,105 205,105 205,95 90,95 90,127 138,127 138,233 77,233 77,99 77,139 77,228 171,228 111,228 111,206 111,192 190,192 26,192 156,192 156,31 156,116 156,44 156,159 156,130 156,242 156,128 185,128 188,128 15,128 15,139 15,102 245,102 139,102 207,102 207,136 207,134 170,134 170,96 117,96 111,96 62,96 19,96 19,168 19,129 19,187 19,137 225,137 225,52 225,144 211,144 211,94 211,213 207,213 178,213 86,213 180,213 145,213 155,213 145,213 145,5 131,5 150,5 111,5 147,5 147,29 147,139 151,139 151,81 70,81 55,81 55,202 55,112 55,55 55,162 55,89 55,179 55,24 116,24 194,24 194,27 194,109 213,109 128,109 63,109 187,109 187,45 69,45 165,45 165,241 151,241 92,241 92,22 82,22 131,22 131,123 131,144 154,144 154,5 154,183 154,164 175,164 175,204 188,204 36,204 36,187 36,55 113,55 113,92 89,92 89,209 89,201 32,201 60,201 215,201 217,201 217,73 229,73 77,73 77,82 77,150 77,216 77,161 77,233 77,156 11,156 11,112 192,112 192,207 192,211 192,97 192,74 151,74 151,103 139,103 77,103 77,77 77,93 77,19 77,96 51,96 143,96 32,96 90,96 90,186 19,186 19,165 117,165 234,165 234,104 58,104 107,104 107,237 165,237 165,235 95,235 150,235 141,235 134,235 134,238 134,203 53,203 53,150 35,150 157,150 131,150 89,150 49,150 18,150 18,178 214,178 61,178 89,178 207,178 207,73 125,73 111,73 111,126 111,48 111,133 224,133 132,133 132,111 132,101 132,228 82,228 82,77 136,77 136,13 136,128 22,128 197,128 141,128 123,128 123,15 123,95 123,3 123,198 136,198 136,214 197,214 197,39 197,222 61,222 61,21 110,21 110,104 110,168 123,168 84,168 84,156 196,156 196,26 196,43 196,196 172,196 107,196 218,196 218,191 218,63 218,196 112,196 112,132 220,132 220,60 220,136 220,55 62,55 165,55 227,55 227,141 227,134 227,127 227,139 234,139 234,82 234,89 234,171 234,68 115,68 95,68 95,135 13,135 13,132 13,143 3,143 45,143 79,143 76,143 76,208 76,214 76,122 76,40 76,120 206,120 12,120 90,120 90,131 45,131 45,77 226,77 226,171 91,171 91,108 114,108 73,108 5,108 221,108 88,108 60,108 60,68 135,68 210,68 210,149 159,149 40,149 40,139 202,139 202,159 32,159 24,159 24,118 24,133 241,133 241,156 241,96 241,102 241,163 241,110 241,100 123,100 175,100 188,100 188,185 21,185 21,151 91,151 91,202 142,202 113,202 174,202 174,209 59,209 74,209 74,133 136,133 136,150 11,150 223,150 68,150 56,150 56,182 128,182 128,220 128,19 147,19 147,246 155,246 142,246 142,59 142,170 26,170 26,146 232,146 232,101 232,68 128,68 180,68 180,70 180,151 180,139 137,139 137,80 137,43 124,43 124,245 156,245 116,245 116,224 116,127 194,127 161,127 46,127 174,127 174,50 174,31 125,31 166,31 84,31 131,31 131,160 82,160 231,160 231,145 120,145 120,195 118,195 24,195 47,195 47,169 47,208 87,208 44,208 44,88 116,88 116,210 116,148 219,148 19,148 19,158 117,158 181,158 181,189 181,214 181,163 181,41 181,33 45,33 95,33 84,33 103,33 165,33 72,33 72,89 72,101 218,101 218,203 133,203 188,203 67,203 60,203 106,203 123,203 123,111 109,111 92,111 206,111 67,111 19,111 19,120 141,120 153,120 86,120 67,120 210,120 210,161 210,101 210,48 172,48 106,48 204,48 204,136 122,136 122,57 122,151 170,151 170,81 158,81 158,181 128,181 149,181 233,181 73,181 98,181 98,36 111,36 114,36 56,36 56,225 77,225 171,225 171,122 171,63 97,63 97,133 118,133 57,133 166,133 119,133 105,133 4,133 4,103 142,103 27,103 186,103 186,178 186,36 186,54 163,54 158,54 103,54 103,120 81,120 170,120 170,71 170,209 170,114 189,114 189,114 189,188 189,137 189,89 189,47 189,209 189,46 189,71 189,174 141,174 181,174 181,51 181,37 181,96 181,98 22,98 22,93 228,93 85,93 85,65 85,198 90,198 193,198 193,165 18,165 119,165 138,165 138,148 138,10 138,217 96,217 136,217 136,194 136,88 184,88 184,84 184,24 135,24 88,24 88,89 156,89 156,167 156,48 156,60 161,60 224,60 211,60 195,60 195,59 195,90 195,173 156,173 203,173 203,146 126,146 180,146 219,146 219,116 16,116 103,116 136,116 80,116 215,116 215,168 215,104 215,112 215,160 215,159 215,126 215,172 215,193 215,161 215,189 215,154 66,154 203,154 203,171 203,153 89,153 89,113 89,67 40,67 40,71 117,71 117,191 59,191 188,191 188,103 50,103 201,103 201,223 111,223 149,223 75,223 75,159 225,159 205,159 20,159 151,159 155,159 155,144 146,144 146,113 113,113 113,144 113,168 170,168 34,168 34,56 34,142 171,142 115,142 13,142 13,90 13,164 58,164 91,164 91,101 145,101 145,84 145,3 145,35 70,35 151,35 208,35 48,35 207,35 207,48 49,48 97,48 116,48 223,48 104,48 104,103 93,103 93,133 93,215 93,175 236,175 137,175 137,77 15,77 15,117 15,81 30,81 30,117 30,59 30,60 86,60 33,60 33,76 33,180 125,180 125,147 125,218 125,77 125,3 99,3 150,3 150,154 150,118 26,118 162,118 162,229 76,229 111,229 149,229 149,226 149,159 14,159 14,166 14,150 14,136 14,153 96,153 36,153 36,74 32,74 154,74 69,74 69,159 69,88 136,88 136,235 94,235 114,235 114,165 114,148 114,61 114,138 227,138 131,138 131,24 131,90 131,190 131,145 7,145 7,151 63,151 63,186 159,186 159,10 166,10 166,111 166,56 22,56 155,56 155,242 92,242 135,242 135,186 176,186 176,43 122,43 66,43 66,185 66,190 66,198 66,117 84,117 84,121 228,121 228,125 228,127 185,127 185,127 185,128 82,128 203,128 203,61 41,61 41,199 41,166 154,166 53,166 87,166 228,166 228,121 54,121 202,121 202,89 202,85 202,195 202,182 210,182 210,170 210,121 210,82 210,211 210,74 141,74 120,74 205,74 42,74 220,74 220,98 88,98 88,107 88,241 169,241 169,67 198,67 198,102 30,102 137,102 137,122 26,122 26,171 207,171 74,171 74,182 74,79 74,110 167,110 167,79 232,79 232,159 232,139 232,132 207,132 149,132 204,132 204,49 204,42 186,42 164,42 164,147 40,147 201,147 146,147 28,147 136,147 224,147 224,53 224,112 236,112 115,112 115,86 115,239 115,47 115,10 115,82 115,31 201,31 201,199 201,120 201,155 201,202 61,202 61,131 61,232 107,232 65,232 65,191 65,58 65,160 65,219 195,219 195,212 195,55 195,84 28,84 183,84 36,84 102,84 102,50 77,50 77,201 77,104 77,176 130,176 130,100 130,63 130,123 130,137 130,215 130,166 130,40 48,40 136,40 85,40 85,111 158,111 158,241 158,150 168,150 62,150 15,150 226,150 226,147 72,147 72,89 72,62 72,31 172,31 172,66 186,66 186,55 107,55 194,55 187,55 187,104 16,104 26,104 26,139 84,139 84,131 74,131 236,131 14,131 14,95 99,95 99,56 187,56 151,56 151,126 151,216 83,216 83,41 151,41 151,77 151,181 141,181 141,165 219,165 69,165 39,165 39,83 69,83 69,195 69,83 69,225 69,225 61,225 61,91 61,218 61,119 91,119 91,153 169,153 70,153 55,153 55,43 55,134 230,134 209,134 95,134 49,134 93,134 93,96 93,239 93,217 148,217 148,231 59,231 59,64 59,182 59,208 59,148 159,148 159,234 80,234 164,234 164,83 164,199 164,190 164,186 111,186 183,186 183,105 183,67 183,149 183,206 131,206 131,235 136,235 137,235 137,124 141,124 172,124 154,124 154,232 154,44 204,44 192,44 155,44 139,44 113,44 113,232 113,110 113,138 113,95 113,29 113,61 63,61 63,228 157,228 155,228 137,228 184,228 171,228 171,20 171,241 171,139" /></svg>