<?xml version="1.0" encoding="utf-8" ?>
<svg baseProfile="tiny" fill="none" height="1000" stroke="black" stroke-opacity="1.0" stroke-width="0.5" version="1.2" width="1000" xmlns="http://www.w3.org/2000/svg" xmlns:ev="http://www.w3.org/2001/xml-events" xmlns:xlink="http://www.w3.org/1999/xlink"><defs /><polyline points="699,506 520,506 399,506 86,506 640,506 262,506 147,506 147,635 147,565 616,565 390,565 390,453 390,734 543,734 336,734 336,644 41,644 41,310 41,470 481,470 481,592 423,592 153,592 153,391 743,391 89,391 89,764 202,764 181,764 181,378 631,378 367,378 367,215 367,624 367,475 367,125 206,125 342,125 342,934 342,879 331,879 331,121 331,218 331,282 419,282 419,617 419,819 233,819 556,819 139,819 445,819 857,819 857,783 857,603 857,175 857,233 857,746 857,716 178,716 178,853 178,828 582,828 640,828 343,828 330,828 330,465 330,871 330,441 330,100 792,100 234,100 550,100 550,581 550,849 808,849 808,686 495,686 251,686 170,686 288,686 790,686 790,419 790,192 814,192 798,192 394,192 394,269 394,608 394,230 394,859 394,911 469,911 469,927 469,815 776,815 173,815 173,724 149,724 71,724 221,724 221,740 103,740 103,781 103,197 214,197 214,573 666,573 821,573 254,573 254,404 254,399 615,399 615,743 615,728 612,728 371,728 207,728 207,473 261,473 585,473 363,473 363,284 363,674 67,674 257,674 257,805 668,805 668,799 668,484 668,365 668,891 366,891 366,77 381,77 735,77 342,77 342,702 342,727 342,367 878,367 878,553 400,553 766,553 938,553 972,553 661,553 312,553 312,500 106,500 405,500 864,500 864,810 864,744 864,517 242,517 242,103 242,901 510,901 507,901 574,901 574,464 123,464 123,764 550,764 550,157 550,86 550,26 550,485 550,515 421,515 421,603 421,76 580,76 580,156 580,449 674,449 794,449 600,449 600,592 460,592 460,88 460,26 460,736 460,925 520,925 520,795 520,213 778,213 101,213 817,213 310,213 310,801 159,801 159,487 159,573 673,573 23,573 23,469 23,359 777,359 777,315 342,315 342,407 342,753 342,147 342,671 342,584 380,584 380,870 380,332 891,332 891,297 792,297 668,297 668,958 668,945 642,945 642,562 403,562 479,562 479,985 479,933 728,933 654,933 654,409 654,204 653,204 597,204 597,685 943,685 943,292 943,555 18,555 18,619 18,384 260,384 212,384 212,266 212,411 212,680 697,680 697,627 401,627 634,627 446,627 446,320 446,231 797,231 363,231 895,231 493,231 493,944 493,236 493,651 477,651 444,651 708,651 708,808 399,808 115,808 115,764 115,265 115,376 115,507 414,507 433,507 433,897 433,675 433,779 433,407 433,977 433,647 433,401 283,401 283,190 872,190 567,190 567,938 567,740 567,365 567,160 258,160 258,282 258,476 374,476 374,399 227,399 606,399 460,399 643,399 586,399 586,178 703,178 703,766 703,336 244,336 175,336 175,487 153,487 691,487 691,39 691,137 173,137 173,746 188,746 490,746 490,19 490,975 490,383 490,789 235,789 125,789 802,789 779,789 845,789 845,718 683,718 748,718 748,408 616,408 616,298 307,298 307,336 779,336 779,283 139,283 714,283 714,697 714,523 359,523 359,743 453,743 762,743 142,743 142,602 940,602 940,438 751,438 213,438 785,438 839,438 839,434 839,413 839,649 847,649 847,735 180,735 591,735 134,735 134,379 648,379 648,894 648,209 892,209 95,209 95,367 95,615 95,685 95,272 95,606 95,307 632,307 835,307 104,307 958,307 262,307 262,174 262,299 262,655 262,787 223,787 223,474 223,656 547,656 547,465 211,465 211,387 837,387 837,801 837,271 837,268 269,268 269,524 384,524 732,524 904,524 532,524 532,427 310,427 310,625 310,146 310,863 675,863 323,863 323,148 323,140 325,140 498,140 717,140 707,140 515,140 632,140 632,497 632,120 436,120 436,170 769,170 769,484 50,484 50,677 50,448 50,646 975,646 975,475 975,599 126,599 126,388 495,388 495,723 206,723 206,170 139,170 139,267 496,267 870,267 870,504 870,711 859,711 629,711 629,88 629,448 629,457 629,65 629,676 819,676 819,455 322,455 768,455 70,455 70,707 851,707 851,545 441,545 168,545 168,613 108,613 303,613 303,486 303,627 303,168 468,168 524,168 524,541 92,541 209,541 209,876 209,396 574,396 574,489 574,332 574,288 733,288 115,288 115,482 115,210 537,210 537,922 570,922 486,922 499,922 499,369 499,77 672,77 753,77 541,77 290,77 290,666 792,666 792,320 792,772 792,772 792,118 792,97 792,476 973,476 508,476 508,220 508,99 621,99 281,99 281,438 281,617 268,617 268,723 268,650 897,650 88,650 88,607 158,607 158,344 158,432 275,432 746,432 458,432 458,384 458,343 839,343 839,557 839,728 839,516 779,516 960,516 960,667 95,667 734,667 369,667 369,551 244,551 281,551 489,551 489,487 816,487 959,487 959,418 774,418 774,897 774,551 283,551 601,551 5,551 986,551 986,498 986,546 376,546 376,350 279,350 820,350 820,740 820,252 820,378 820,563 820,871 820,703 789,703 310,703 623,703 623,323 944,323 530,323 530,696 856,696 581,696 581,347 581,36 522,36 441,36 455,36 356,36 356,463 872,463 55,463 55,423 55,294 55,705 55,645 447,645 381,645 569,645 569,891 569,944 569,705 447,705 447,966 447,438 447,404 119,404 119,813 155,813 501,813 440,813 638,813 815,813 146,813 162,813 162,395 162,586 162,639 971,639 971,608 138,608 100,608 100,308 100,448 186,448 186,756 110,756 230,756 675,756 104,756 104,399 455,399 455,503 455,872 455,724 455,147 206,147 206,395 798,395 666,395 443,395 443,368 443,723 443,420 394,420 394,827 394,195 394,191 394,486 394,980 394,400 264,400 264,526 264,87 264,642 63,642 627,642 627,268 251,268 251,638 856,638 474,638 474,990 420,990 420,806 707,806 707,234 777,234 419,234 419,649 419,527 863,527 123,527 123,405 462,405 450,405 897,405 962,405 468,405 468,4 471,4 541,4 541,139 541,634 541,195 692,195 692,662 58,662 58,593 58,485 49,485 130,485 130,535 284,535 284,415 284,248 284,486 284,383 266,383 266,928 420,928 732,928 732,173 732,463 651,463 651,387 545,387 545,25 545,749 462,749 462,240 462,235 827,235 827,145 827,329 827,132 809,132 806,132 806,850 806,853 714,853 293,853 293,746 293,878 293,660 588,660 370,660 844,660 844,770 280,770 760,770 760,791 760,150 760,552 857,552 91,552 21,552 465,552 465,494 741,494 741,426 741,692 741,747 453,747 453,302 453,143 387,143 387,434 387,671 493,671 493,245 599,245 741,245 741,653 741,316 741,687 741,760 741,690 907,690 907,356 907,696 907,631 99,631 99,345 99,305 457,305 544,305 544,977 544,802 618,802 618,32 542,32 542,894 302,894 302,528 929,528 929,415 358,415 918,415 149,415 149,509 149,693 663,693 593,693 593,521 593,557 593,255 214,255 214,625 214,159 546,159 653,159 653,422 317,422 317,883 317,686 317,53 317,177 637,177 637,112 637,719 852,719 148,719 148,475 234,475 605,475 549,475 549,480 549,670 549,764 549,757 540,757 386,757 780,757 401,757 120,757 364,757 606,757 924,757 671,757 671,360 348,360 81,360 81,742 81,570 634,570 142,570 142,446 142,361 142,720 82,720 916,720 436,720 436,876 325,876 325,249 856,249 856,841 312,841 842,841 842,572 842,381 842,782 842,320 842,763 554,763 477,763 152,763 857,763 331,763 331,99 331,39 331,533 586,533 586,927 586,366 586,568 586,492 586,68 259,68 557,68 369,68 369,604 369,150 369,732 180,732 180,139 669,139 669,695 669,193 752,193 752,447 72,447 111,447 716,447 716,567 716,325 123,325 123,418 476,418 476,282 278,282 229,282 724,282 724,246 724,775 97,775 97,468 202,468 202,187 202,771 769,771 769,498 72,498 72,275 400,275 869,275 869,355 510,355 224,355 367,355 367,469 367,225 367,720 477,720 592,720 97,720 223,720 148,720 148,308 148,700 148,374 481,374 473,374 473,286 473,137 473,625 59,625 48,625 678,625 678,910 678,112 678,128 371,128 408,128 696,128 822,128 750,128 750,884 521,884 496,884 455,884 455,706 455,390 43,390 43,346 201,346 201,105 584,105 255,105 255,662 817,662 792,662 631,662 631,844 631,329 524,329 524,200 291,200 399,200 609,200 609,162 609,41 348,41 683,41 576,41 661,41 661,655 661,631 661,317 661,729 661,72 661,296 661,654 840,654 391,654 690,654 677,654 677,831 568,831 568,372 672,372 169,372 169,827 169,856 169,336 766,336 71,336 328,336 328,99 328,149 328,831 328,79 328,159 328,968 328,867 686,867 686,393 834,393 834,200 834,447 221,447 221,219 221,457 221,580 993,580 191,580 648,580 648,429 391,429 761,429 761,714 761,618 761,511 601,511 601,913 773,913 287,913 751,913 751,785 751,900 751,825 647,825 272,825 272,810 109,810 109,373 194,373 194,445 194,688 194,422 42,422 306,422 306,675 306,495 855,495 855,675 855,852 690,852 690,706 849,706 849,345 849,328 774,328 774,841 801,841 801,145 801,637 801,833 499,833 193,833 606,833 606,417 606,475 606,723 827,723 583,723 667,723 667,717 667,495 564,495 564,170 564,295 456,295 456,581 456,831 618,831 618,519 618,554 618,327 618,448 939,448 939,653 909,653 239,653 239,100 239,673 239,190 383,190 383,842 510,842 510,686 61,686 61,530 61,293 316,293 464,293 54,293 54,285 54,443 407,443 407,71 407,450 904,450 904,734 904,532 593,532 593,641 593,328 295,328 295,881 295,283 295,126 295,756 882,756 522,756 641,756 603,756 603,458 603,422 953,422 698,422 867,422 700,422 683,422 511,422 466,422 466,630 52,630 51,630 51,491 51,600 243,600 310,600 344,600 344,902 344,547 344,236 313,236 313,883 313,410 313,247 313,77 464,77 380,77 380,717 380,261 380,710 615,710 615,331 615,315 595,315 104,315 671,315 177,315 177,480 177,627 227,627 227,162 227,466 227,255 623,255 304,255 871,255 123,255 241,255 238,255 361,255 361,374 953,374 953,336 505,336 524,336 394,336 394,451 191,451 44,451 44,328 44,350 172,350 172,591 172,679 172,337 172,695 172,557 497,557 497,282 246,282 246,735 246,281 800,281 460,281 460,821 664,821 411,821 411,662 411,555 411,474 292,474 292,75 394,75 394,106 394,725 394,698 830,698 830,704 830,198 830,595 431,595 463,595 720,595 720,590 165,590 876,590 644,590 644,506 849,506 556,506 556,84 262,84 586,84 284,84 284,57 552,57 477,57 477,116 799,116 799,120 799,105 799,570 799,486 690,486 690,441 431,441 55,441 55,313 268,313 268,200 275,200 275,621 806,621 942,621 728,621 728,643 232,643 340,643 340,273 116,273 116,592 116,672 116,727 590,727 590,455 89,455 177,455 311,455 311,666 723,666 841,666 841,721 699,721 699,64 699,672 699,707 699,229 531,229 244,229 244,79 244,385 827,385 658,385 463,385 463,948 463,882 463,25 631,25 631,267 737,267 262,267 799,267 696,267 236,267 541,267 321,267 321,542 321,535 321,180 321,315 531,315 531,652 337,652 337,851 337,897 337,654 106,654 791,654 252,654 196,654 391,654 443,654 315,654 66,654 120,654 91,654 65,654 65,617 65,665 65,476 12,476 12,512 517,512 370,512 370,626 370,314 370,761 370,301 353,301 591,301 591,716 591,202 247,202 836,202 596,202 596,933 596,984 596,14 596,585 596,814 596,328 596,370 254,370 254,637 254,483 155,483 748,483 748,420 519,420 519,457 519,96 230,96 230,584 309,584 181,584 181,134 281,134 281,778 281,826 281,740 181,740 181,645 536,645 536,75 436,75 762,75 762,634 762,385 853,385 814,385 814,741 814,157 668,157 668,451 531,451 531,13 531,606 576,606 576,916 358,916 543,916 543,526 822,526 822,370 837,370 273,370 97,370 97,251 97,227 636,227 111,227 260,227 374,227 766,227 766,905 766,866 564,866 564,736 564,507 564,15 397,15 397,213 326,213 399,213 399,83 696,83 230,83 244,83 244,921 244,119 244,792 244,700 259,700 259,768 589,768 455,768 839,768 449,768 214,768 496,768 582,768 446,768 207,768 207,447 207,633 207,618 207,162 207,732 710,732 250,732 250,488 598,488 598,114 598,475 197,475 604,475 604,187 503,187 503,11 503,841 771,841 865,841 865,702 865,279 742,279 402,279 914,279 868,279 868,163 157,163 157,730 157,484 981,484 67,484 67,426 67,292 805,292 98,292 410,292 410,911 382,911 393,911 393,56 393,688 393,202 430,202 430,971 391,971 391,611 391,674 391,579 626,579 476,579 476,150 400,150 400,666 400,754 405,754 115,754 115,482 932,482 932,425 932,398 580,398 798,398 798,788 798,552 996,552 996,525 996,546 869,546 340,546 502,546 502,530 502,644 502,888 273,888 273,308 704,308 395,308 395,959 515,959 372,959 694,959 694,71 694,613 694,369 467,369 560,369 560,381 560,701 148,701 148,201 148,205 148,658 148,521 148,164 148,254 148,327 148,330 184,330 184,299 184,145 729,145 729,825 729,828 729,145 729,125 729,526 729,130 729,903 575,903 575,595 269,595 269,529 695,529 35,529 35,493 52,493 52,606 567,606 567,880 567,777 97,777 585,777 558,777 305,777 649,777 765,777 765,789 765,89 692,89 520,89 520,635 418,635 657,635 764,635 764,570 764,353 903,353 794,353 82,353 82,394 82,403 811,403 811,786 148,786 148,264 148,305 148,236 148,574 148,192 148,447 583,447 714,447 714,551 714,164 714,850 714,860 170,860 778,860 778,176 252,176 252,305 252,741 716,741 267,741 267,721 267,266 535,266 535,595 745,595 387,595 261,595 261,226 261,571 9,571 345,571 345,386 345,960 345,377 345,80 262,80 262,788 262,616 324,616 438,616 229,616 229,439 229,905 229,220 343,220 615,220 388,220 241,220 676,220 676,574 676,775 676,119 676,906 356,906 325,906 325,947 586,947 586,951 560,951 534,951 534,501 20,501 20,479 20,425 738,425 738,785 267,785 267,739 267,663 211,663 929,663 591,663 456,663 888,663 888,556 976,556 976,423 982,423 671,423 877,423 877,523 877,354 877,535 324,535 516,535 516,521 14,521 640,521 640,136 292,136 788,136 546,136 546,460 2,460 2,499 185,499 185,340 450,340 33,340 571,340 386,340 386,803 386,513 21,513 21,637 792,637 792,693 792,342 792,736 792,813 446,813 720,813 424,813 424,975 377,975 576,975 346,975 346,369 383,369 383,45 559,45 559,139 559,172 217,172 875,172 875,203 875,615 704,615 370,615 370,724 370,702 703,702 124,702 124,303 659,303 659,425 112,425 974,425 193,425 121,425 738,425 738,282 753,282 830,282 224,282 224,230 224,740 919,740 919,451 919,600 919,359 427,359 899,359 899,533 137,533 265,533 635,533 585,533 585,625 887,625 887,361 841,361 841,822 841,157 197,157 452,157 811,157 626,157 626,442 626,61 626,177 626,496 111,496 111,455 74,455 16,455 16,588 107,588 107,696 107,469 269,469 318,469 318,689 318,120 318,470 618,470 618,844 280,844 280,652 280,253 78,253 838,253 764,253 764,610 620,610 620,83 311,83 663,83 663,678 663,894 663,124 663,541 608,541 608,634 608,292 622,292 622,792 622,305 622,139 622,452 622,212 622,136 691,136 691,884 691,218 691,183 122,183 122,758 763,758 763,911 763,318 141,318 141,765 869,765 179,765 179,232 319,232 711,232 711,67 711,421 488,421 456,421 456,327 858,327 858,370 176,370 598,370 565,370 565,941 565,56 302,56 498,56 498,72 692,72 692,270 692,911 507,911 507,519 159,519 794,519 539,519 805,519 474,519 474,85 431,85 420,85 420,197 420,292 420,281 420,900 408,900 408,498 408,76 379,76 435,76 435,199 435,115 435,612 435,957 654,957 320,957 512,957 498,957 363,957 363,212 792,212 792,624 792,511 792,339 156,339 156,207 586,207 586,108 586,259 491,259 246,259 777,259 777,353 158,353 158,662 325,662 538,662 538,930 538,18 448,18 547,18 383,18 518,18 479,18 437,18 437,275 425,275 425,146 425,46 550,46 550,410 110,410 908,410 908,636 908,579 908,678 908,250 929,250 929,361 629,361 821,361 821,882 491,882 491,310 491,693 491,774 626,774 626,847 663,847 692,847 630,847 630,29 606,29 606,616 212,616 469,616 469,898 469,122 258,122 258,237 258,789 240,789 102,789 641,789 467,789 697,789 697,800 697,535 843,535 843,519 990,519 763,519 982,519 290,519 290,941 537,941 283,941 404,941 404,342 404,632 266,632 707,632 707,230 870,230 870,637 588,637 915,637 923,637 923,336 897,336 970,336 970,633 317,633 568,633 568,250 645,250 645,245 187,245 187,602 255,602 785,602 785,398 952,398 952,407 463,407 235,407 526,407 526,526 526,124 629,124 629,776 451,776 662,776 373,776 697,776 697,319 697,638 262,638 104,638 104,401 104,234 104,713 104,483 423,483 423,475 423,390 423,497 423,12 552,12 452,12 598,12 571,12 571,704 411,704 411,746 411,424 750,424 694,424 694,257 694,346 386,346 386,51 643,51 643,24 643,346 643,348 690,348 451,348 451,145 544,145 544,85 336,85 336,350 336,740 450,740 450,449 994,449 994,510 700,510 700,403 102,403 987,403 987,439 987,502 744,502 744,385 39,385 39,523 39,385 39,578 39,383 39,340 39,543 189,543 189,582 97,582 97,363 359,363 359,327 359,173 359,807 359,83 409,83 409,148 409,308 409,228 409,748 409,815 883,815 484,815 484,878 256,878 256,696 658,696 658,488 658,472 847,472 847,467 818,467 818,693 818,719 818,513 818,728 818,428 818,281 818,352 503,352 503,596 808,596 688,596 688,758 458,758 586,758 586,701 717,701 824,701 264,701 264,419 40,419 118,419 118,780 118,193 596,193 486,193 873,193 640,193 618,193 618,968 618,449 618,214 895,214 250,214 250,200 243,200 366,200 468,200 468,654 511,654 511,527 511,411 663,411 107,411 387,411 197,411 117,411 590,411 590,208 787,208 787,842 760,842 760,292 760,757 337,757 337,383 771,383 771,461 771,726 216,726 467,726 467,116 467,11 500,11 536,11 536,609 696,609 696,608 696,775 696,450 696,166 696,343 129,343 129,684 679,684 427,684 960,684 181,684 655,684 655,240 586,240 586,804 586,407 586,923 463,923 463,214 207,214 207,131 663,131 230,131 203,131 203,791 203,526 354,526 971,526 971,386 971,452 971,572 119,572 119,253 473,253 617,253 617,740 617,840 617,437 617,574 617,326 892,326 892,657 651,657 651,630 651,654 651,687 334,687 334,253 863,253 787,253 286,253 286,542 286,529 251,529 616,529 616,240 616,709 186,709 186,552 186,510 186,421 186,159 228,159 228,696 228,265 887,265 887,245 891,245 891,281 891,709 891,195 481,195 167,195 167,317 167,782 167,172 167,307 469,307 498,307 495,307 495,42 627,42 627,884 394,884 394,184 394,572 394,953 383,953 383,893 298,893 809,893 809,132 809,851 809,277 809,473 62,473 550,473 420,473 238,473 519,473 519,76 519,781 519,117 413,117 413,357 737,357 779,357 779,809 502,809 502,344 502,132 502,422 220,422 220,617 467,617 329,617 329,803 406,803 406,541 350,541 419,541 419,210 108,210 108,602 622,602 812,602 812,785 806,785 806,544 468,544 775,544 775,810 123,810 419,810 271,810 419,810 751,810 751,810 751,564 751,261 751,872 751,611 339,611 386,611 386,781 725,781 363,781 363,318 363,450 363,406 363,895 363,773 761,773 881,773 897,773 240,773 786,773 786,327 919,327 919,266 151,266 151,228 781,228 768,228 768,360 768,168 768,120 768,768 768,695 930,695 120,695 114,695 114,554 486,554 486,41 486,520 172,520 172,600 982,600 321,600 305,600 518,600 837,600 29,600 29,392 29,551 29,360 372,360 372,942 372,933 372,591 48,591 861,591 191,591 191,212 191,184 191,413 191,438 333,438 333,742 336,742 336,541 304,541 233,541 233,114 233,787 233,551 138,551 138,670 138,633 138,655 757,655 45,655 45,507 147,507 147,294 879,294 879,493 879,198 383,198 144,198 144,428 296,428 582,428 582,738 577,738 577,876 577,714 577,380 577,498 577,343 577,369 121,369 462,369 757,369 757,99 645,99 645,744 853,744 159,744 384,744 841,744 919,744 135,744 135,620 135,351 135,795 716,795 520,795 520,529 520,125 520,770 520,201 608,201 608,661 608,857 635,857 221,857 264,857 797,857 542,857 789,857 789,792 161,792 642,792 642,201 642,116 718,116 718,167 317,167 638,167 638,416 904,416 904,723 136,723 136,223 225,223 735,223 778,223 628,223 123,223 745,223 745,445 641,445 59,445 736,445 286,445 47,445 47,632 772,632 772,482 994,482 994,427 994,552 816,552 816,707 816,501 816,128 816,611 654,611 182,611 182,323 182,419 182,357 182,161 623,161 284,161 284,210 216,210 216,547 68,547 694,547 694,424 172,424 613,424 613,54 285,54 581,54 331,54 331,854 331,136 490,136 430,136 380,136 380,688 380,491 380,29 380,665 380,652 380,346 380,589 185,589 297,589 297,528 984,528 867,528 784,528 784,381 878,381 878,824 878,230 200,230 584,230 584,124 721,124 751,124 714,124 714,180 850,180 850,183 614,183 216,183 404,183 555,183 513,183 840,183 840,508 895,508 895,295 895,618 895,606 455,606 449,606 510,606 510,101 510,626 510,662 510,878 510,860 786,860 205,860 585,860 585,349 585,341 585,682 585,214 585,342 857,342 192,342 515,342 866,342 866,210 645,210 645,681 645,374 645,438 645,904 645,128 645,656 645,576 645,223 645,866 267,866 267,616 250,616 249,616 121,616 637,616 788,616 788,174 213,174 213,255 213,171 839,171 207,171 207,231 207,437 207,219 207,116 446,116 446,338 734,338 734,656 252,656 206,656 206,368 153,368 153,302 153,321 153,662 258,662 317,662 317,723 317,751 317,543 307,543 173,543 173,242 860,242 860,651 860,520 860,259 860,487 860,664 347,664 35,664 35,473 197,473 197,211 776,211 309,211 309,552 523,552 736,552 736,660 478,660 478,422 989,422 486,422 80,422 714,422 714,412 682,412 992,412 977,412 977,454" /></svg>