<?xml version="1.0" encoding="utf-8" ?>
<svg baseProfile="tiny" fill="none" height="500" stroke="black" stroke-opacity="1.0" stroke-width="0.5" version="1.2" width="500" xmlns="http://www.w3.org/2000/svg" xmlns:ev="http://www.w3.org/2001/xml-events" xmlns:xlink="http://www.w3.org/1999/xlink"><defs /><polyline points="433,397 433,84 433,149 433,99 388,99 318,99 150,99 150,103 150,462 239,462 239,131 239,346 239,72 220,72 220,180 220,47 278,47 278,107 256,107 300,107 300,373 298,373 114,373 278,373 278,173 14,173 97,173 97,166 143,166 482,166 482,217 297,217 297,330 34,330 34,251 200,251 126,251 126,279 126,92 126,254 224,254 200,254 200,336 356,336 415,336 466,336 355,336 445,336 445,369 445,340 95,340 479,340 466,340 466,314 466,177 315,177 315,172 60,172 60,192 368,192 368,337 240,337 240,312 143,312 365,312 365,250 365,177 365,261 7,261 7,232 7,246 7,277 7,197 272,197 272,130 96,130 112,130 112,410 112,205 84,205 482,205 461,205 249,205 249,348 372,348 442,348 150,348 150,399 144,399 144,172 144,402 144,184 469,184 34,184 166,184 166,367 166,365 438,365 438,137 345,137 133,137 133,419 239,419 139,419 331,419 331,128 148,128 148,346 148,296 99,296 99,161 99,266 99,185 99,230 99,242 200,242 157,242 157,78 157,47 216,47 390,47 390,423 390,143 390,353 37,353 37,304 107,304 107,194 137,194 206,194 453,194 453,352 453,355 453,112 431,112 263,112 337,112 393,112 393,70 393,215 251,215 251,206 251,159 251,437 251,161 251,233 356,233 274,233 164,233 458,233 112,233 112,268 222,268 291,268 291,421 291,453 291,31 291,134 291,262 291,456 255,456 255,371 54,371 54,379 304,379 70,379 70,249 70,266 298,266 298,53 146,53 228,53 228,317 228,247 228,361 228,199 228,304 143,304 143,347 41,347 340,347 340,120 42,120 42,272 386,272 386,320 386,140 227,140 227,233 227,404 228,404 228,406 228,217 378,217 378,94 68,94 68,170 68,160 426,160 352,160 352,175 300,175 300,304 300,224 370,224 370,296 228,296 150,296 141,296 141,140 141,399 210,399 103,399 249,399 249,268 292,268 292,120 156,120 261,120 134,120 134,109 444,109 316,109 328,109 345,109 345,376 253,376 253,228 253,132 91,132 373,132 152,132 32,132 32,275 32,312 32,345 315,345 315,258 315,153 315,362 431,362 205,362 205,298 14,298 477,298 477,182 353,182 456,182 456,363 456,248 249,248 249,53 272,53 272,481 272,298 292,298 292,395 292,7 292,379 342,379 324,379 324,439 156,439 115,439 103,439 354,439 354,157 266,157 266,430 266,9 195,9 195,210 195,467 361,467 361,409 84,409 84,89 419,89 419,88 419,154 304,154 304,342 304,283 285,283 279,283 279,28 363,28 329,28 142,28 142,139 405,139 405,110 405,56 199,56 199,493 288,493 288,384 80,384 252,384 261,384 261,388 442,388 442,399 376,399 376,97 376,404 370,404 370,257 362,257 362,168 483,168 483,229 70,229 70,302 409,302 293,302 155,302 155,452 146,452 192,452 167,452 167,335 165,335 134,335 74,335 74,284 74,122 80,122 89,122 89,368 89,215 14,215 14,234 499,234 499,263 499,238 324,238 324,60 324,146 51,146 65,146 368,146 368,300 368,252 181,252 321,252 321,28 296,28 296,248 415,248 415,324 415,179 415,175 415,434 288,434 132,434 132,44 132,229 293,229 120,229 120,73 120,78 120,266 385,266 385,84 70,84 70,325 278,325 378,325 378,352 285,352 206,352 194,352 383,352 247,352 247,256 11,256 74,256 458,256 113,256 97,256 97,136 182,136 182,242 368,242 368,384 278,384 278,404 201,404 265,404 265,267 265,169 429,169 429,251 429,133 464,133 464,312 215,312 98,312 16,312 16,294 94,294 94,61 94,163 94,142 384,142 384,401 445,401 445,359 445,204 445,300 292,300 233,300 232,300 232,165 232,68 232,374 232,36 232,401 317,401 272,401 172,401 84,401 436,401 436,405 436,131 436,346 238,346 238,365 238,456 290,456 170,456 109,456 109,436 163,436 208,436 84,436 297,436 351,436 219,436 219,415 219,137 219,469 302,469 302,184 293,184 277,184 63,184 118,184 433,184 288,184 312,184 312,202 312,52 393,52 111,52 111,427 111,205 111,343 111,384 124,384 74,384 446,384 446,235 125,235 424,235 403,235 354,235 22,235 22,165 23,165 23,196 23,342 23,300 71,300 71,84 102,84 393,84 414,84 414,73 414,168 156,168 118,168 118,319 293,319 420,319 420,70 90,70 90,408 90,302 384,302 384,195 384,391 331,391 245,391 245,127 245,386 245,215 156,215 156,364 156,195 156,175 159,175 148,175 148,185 148,24 148,477 300,477 308,477 308,15 308,92 308,22 240,22 150,22 290,22 177,22 215,22 188,22 326,22 316,22 158,22 158,60 158,300 97,300 97,436 97,301 97,281 284,281 79,281 79,157 79,253 79,185 212,185 212,431 334,431 334,113 334,330 334,88 353,88 353,476 285,476 178,476 178,394 119,394 119,259 119,71 88,71 88,284 88,228 88,191 424,191 424,76 424,88 201,88 201,303 147,303 147,225 248,225 482,225 482,327 69,327 437,327 437,355 437,119 155,119 155,460 339,460 377,460 377,80 411,80 329,80 329,464 329,236 329,152 219,152 165,152 347,152 267,152 267,9 267,4 267,265 267,173 267,350 267,158 267,152 193,152 193,38 281,38 281,419 373,419 373,192 136,192 265,192 225,192 108,192 108,290 108,442 319,442 319,377 319,19 319,91 439,91 439,326 430,326 430,368 430,267 430,152 304,152 304,435 159,435 159,370 159,372 159,110 421,110 445,110 445,350 445,144 445,246 267,246 143,246 146,246 439,246 439,246 439,312 413,312 413,428 75,428 95,428 95,285 292,285 292,284 391,284 423,284 70,284 70,375 70,219 70,329 70,152 70,136 310,136 270,136 411,136 411,381 411,94 411,110 411,227 455,227 455,247 499,247 407,247 94,247 253,247 253,375 229,375 87,375 338,375 338,279 52,279 52,385 52,137 52,400 156,400 71,400 296,400 296,183 296,404 296,64 110,64 247,64 91,64 91,222 190,222 190,259 438,259 13,259 247,259 186,259 260,259 302,259 400,259 2,259 2,256 2,244 166,244 166,370 166,437 166,348 390,348 255,348 37,348 385,348 381,348 198,348 198,330 185,330 185,18 185,21 185,85 373,85 307,85 277,85 277,148 141,148 419,148 395,148 395,317 395,395 126,395 126,219 416,219 416,386 161,386 180,386 180,325 437,325 437,215 118,215 374,215 346,215 346,457 145,457 194,457 194,342 333,342 227,342 227,248 227,173 486,173 486,226 68,226 426,226 426,230 426,189 234,189 234,23 208,23 191,23 191,415 353,415 126,415 273,415 273,16 273,276 335,276 149,276 149,118 149,138 149,97 62,97 348,97 348,379 348,461 348,68 348,55 348,275 129,275 129,362 129,73 136,73 311,73 311,244 205,244 51,244 51,178 295,178 295,132 401,132 401,158 144,158 144,234 164,234 166,234 132,234 430,234 482,234 144,234 144,300 228,300 234,300 234,161 234,440 356,440 318,440 272,440 340,440 228,440 403,440 252,440 252,436 252,80 248,80 317,80 152,80 152,282 152,219 328,219 328,166 328,359 407,359 65,359 65,280 65,327 19,327 19,202 419,202 419,369 419,296 419,98 419,145 419,244 469,244 469,304 469,235 301,235 301,386 301,291 81,291 81,334 308,334 138,334 409,334 369,334 103,334 72,334 72,274 313,274 244,274 377,274 306,274 463,274 472,274 414,274 256,274 76,274 76,396 76,273 113,273 407,273 69,273 107,273 107,327 388,327 388,344 388,133 292,133 292,376 301,376 301,459 301,375 301,250 11,250 330,250 330,375 330,150 435,150 435,132 435,370 435,281 435,232 18,232 18,266 315,266 329,266 329,296 213,296 213,45 213,409 82,409 334,409 334,419 139,419 300,419 323,419 323,81 323,301 323,376 323,426 323,85 156,85 156,58 109,58 275,58 275,11 277,11 295,11 307,11 307,218 81,218 393,218 10,218 348,218 348,250 348,160 348,472 348,361 348,396 348,184 348,169 348,291 348,451 348,77 135,77 135,263 135,151 135,404 135,171 135,72 135,286 135,40 135,64 135,149 135,194 135,99 135,441 296,441 296,416 296,273 296,44 296,416 296,120 296,417 356,417 82,417 205,417 154,417 364,417 199,417 199,274 199,325 199,20 264,20 214,20 189,20 189,195 189,22 189,57 189,464 204,464 251,464 251,114 401,114 134,114 454,114 346,114 346,249 346,182 346,38 255,38 285,38 285,3 285,78 285,403 285,183 253,183 253,258 117,258 117,256 387,256 387,452 387,247 387,104 387,331 199,331 183,331 183,42 183,170 136,170 136,136 35,136 35,372 35,252 35,137 159,137 79,137 211,137 163,137 163,228 163,275 174,275 351,275 398,275 398,320 398,373 398,374 433,374 433,199 213,199 213,479 213,166 319,166 137,166 220,166 175,166 175,57 179,57 351,57 220,57 106,57 106,57 263,57 263,221 263,52 175,52 175,23 221,23 221,321 241,321 74,321 115,321 286,321 286,66 286,42 286,47 387,47 186,47 186,378 186,452 201,452 328,452 328,263 328,142 328,327 32,327 443,327 26,327 325,327 338,327 147,327 40,327 451,327 451,365 290,365 290,376 290,220 320,220 430,220 294,220 270,220 13,220 13,252 13,276 38,276 155,276 7,276 7,255 7,219 134,219 355,219 193,219 348,219 268,219 418,219 62,219 62,201 62,212 62,300 62,264 62,264 62,351 255,351 147,351 147,367 339,367 331,367 331,103 331,142 46,142 46,356 28,356 42,356 275,356 416,356 331,356 331,452 331,64 331,130 331,212 331,118 121,118 246,118 246,369 65,369 360,369 298,369 292,369 292,183 381,183 250,183 436,183 245,183 395,183 203,183 203,46 330,46 330,299 78,299 21,299 130,299 130,252 130,461 348,461 272,461 219,461 219,259 486,259 486,282 408,282 408,391 408,218 418,218 418,225 418,99 272,99 272,262 272,396 272,177 42,177 413,177 352,177 155,177 155,77 311,77 311,415 112,415 112,232 403,232 403,364 403,165 403,125 403,172 403,208 403,245 418,245 418,426 418,387 66,387 66,330 90,330 252,330 252,236 372,236 372,119 372,155 195,155 195,133 195,493 195,53 227,53 123,53 123,251 123,454 111,454 111,50 311,50 311,446 219,446 161,446 323,446 264,446 264,200 264,37 264,451 264,420 167,420 194,420 213,420 409,420 409,441 409,244 111,244 111,405 111,346 395,346 265,346 265,173 265,290 135,290 135,70 407,70 212,70 212,324 212,85 183,85 183,350 440,350 259,350 259,140 48,140 333,140 333,309 377,309 377,329 406,329 406,387 99,387 87,387 358,387 358,254 262,254 262,265 168,265 168,310 209,310 209,495 282,495 282,132 405,132 405,348 74,348 74,156 74,136 472,136 472,273 96,273 183,273 183,269 225,269 225,119 211,119 211,303 211,149 211,432 211,111 285,111 285,287 285,95 348,95 251,95 247,95 247,167 354,167 354,38 149,38 149,49 373,49 203,49 203,100 203,427 403,427 403,142 205,142 202,142 164,142 277,142 277,244 282,244 18,244 277,244 277,245 277,364 150,364 150,446 150,100 61,100 61,309 61,126 61,284 61,278 279,278 295,278 295,466 332,466 332,37 332,379 332,211 332,307 269,307 95,307 152,307 152,29 346,29 346,191 346,24 346,75 158,75 247,75 106,75 197,75 197,84 372,84 175,84 349,84 265,84 247,84 247,186 194,186 260,186 104,186 37,186 37,134 37,300 232,300 401,300 401,192 223,192 223,99 223,225 212,225 243,225 243,357 243,251 243,20 243,408 241,408 241,20 241,415 360,415 360,129 412,129 412,267 412,109 412,205 344,205 43,205 448,205 62,205 62,400 57,400 383,400 383,144 204,144 204,224 406,224 406,208 246,208 207,208 301,208 51,208 51,243 140,243 140,354 140,322 140,192 248,192 248,4 270,4 241,4 241,4 241,454 334,454 334,70 329,70 108,70 415,70 415,205 489,205 242,205 242,179 140,179 140,204 140,48 305,48 305,215 18,215 18,273 24,273 24,175 162,175 250,175 250,468 213,468 213,393 306,393 306,219 144,219 144,412 144,229 144,418 87,418 87,426 314,426 279,426 141,426 141,134 141,90 137,90 418,90 58,90 58,305 432,305 467,305 235,305 357,305 357,103 357,474 357,204 357,306 153,306 434,306 434,310 420,310 483,310 483,258 483,160 483,161 483,204 14,204 69,204 69,126 69,217 368,217 393,217 315,217 315,254 315,138 315,197 315,72 315,143 155,143 155,96 261,96 261,420 311,420 268,420 293,420 293,461 198,461 198,274 198,286 234,286 3,286 28,286 389,286 217,286 307,286 307,287 307,55 175,55 175,357 363,357 363,213 363,181 199,181 199,88 361,88 361,421 361,455 361,104 361,40 288,40 157,40 175,40 347,40 347,351 208,351 208,407 173,407 407,407 275,407 438,407 438,158 438,366 149,366 372,366 318,366 318,37 151,37 151,64 174,64 174,199 174,199 119,199 119,348 119,434 119,46 197,46 229,46 229,390 359,390 158,390 312,390 312,94 152,94 219,94 327,94 109,94 142,94 187,94 187,448 187,393 187,457 187,237 50,237 94,237 94,334 94,144 389,144 257,144 216,144 339,144 339,312 339,477 339,76 193,76 217,76 217,157 322,157 305,157 305,171 130,171 130,143 130,87 130,91 130,67 167,67 279,67 106,67 106,372 106,127 106,236 106,176 138,176 138,365 61,365 111,365 442,365 97,365 295,365 366,365 366,423 366,447 114,447 114,98 114,419 114,290 114,261 114,58 114,389 114,366 268,366 268,243 268,224 80,224 382,224 382,310 79,310 79,336 184,336 184,342 268,342 268,389 268,184 206,184 175,184 357,184 357,241 117,241 117,98 117,373 117,252 117,278 117,68 117,63 117,315 117,355 115,355 115,333 377,333 195,333 195,362 322,362 305,362 305,202 305,42 305,92 203,92 203,370 314,370 314,212 371,212 118,212 118,161 118,317 118,230 118,240 125,240 222,240 222,449 222,371 222,380 222,354 222,18 222,188 23,188 465,188 465,351 465,237 136,237 136,141 56,141 254,141 126,141 126,450 181,450 302,450 302,135 302,346 353,346 177,346 177,437 170,437 410,437 315,437 331,437 103,437 292,437 292,6 292,57 292,81 261,81 261,388 261,159 261,381 271,381 256,381 102,381 83,381 127,381 318,381 318,37 138,37 138,84 138,252 129,252 56,252 56,325 56,364 93,364 122,364 122,76 122,363 235,363 235,138 235,1 235,432 235,474 303,474 210,474 210,323 210,270 278,270 278,462 278,26 258,26 156,26 223,26 343,26 218,26 218,299 427,299 120,299 120,387 152,387 217,387 394,387 394,308 356,308 297,308 321,308 407,308 384,308 384,110 384,66 159,66 281,66 200,66 200,45 200,388 200,408 251,408 251,417 363,417 363,302 363,69 363,101 363,397 363,100 363,117 363,254 66,254 131,254 131,158 196,158 196,102 287,102 317,102 317,416 317,410 297,410 297,327 297,377 52,377 329,377 73,377 73,262 295,262 142,262 366,262 366,419 366,124 366,365 396,365 396,185 96,185 36,185 36,371 36,162 260,162 260,160 129,160 129,66 129,426 329,426 135,426 135,402 254,402 254,215 254,51 254,173 141,173 141,56 384,56 384,406 384,321 384,451 297,451 186,451 186,17 186,38 186,244 494,244 226,244 226,285 226,61 98,61 126,61 342,61 342,61 324,61 324,72 340,72 199,72 199,304 35,304 488,304 488,245 325,245 107,245 107,272 107,246 453,246 102,246 159,246 159,248 422,248 403,248 403,314 403,341 403,205 403,326 403,245 420,245 53,245 53,243 196,243 196,283 378,283 378,238 474,238 474,179 474,145 229,145 211,145 211,64 385,64 385,412 385,426 385,337 385,440 385,350 385,446 385,306 363,306 185,306 200,306 246,306 246,29 193,29 242,29 242,400 242,164 242,269 392,269 392,325 392,435 392,184 73,184 66,184 359,184 359,31 359,138 359,307 359,447 359,125 375,125 375,267 384,267 384,437 384,59 122,59 273,59 291,59 105,59 105,288 105,394 280,394 431,394 431,383 431,238 371,238 164,238 204,238 204,180 349,180 349,41 356,41 173,41 173,58 394,58 289,58 243,58 243,206 243,72 243,88 243,128 243,160 247,160 472,160 472,229 134,229 102,229 200,229 27,229 27,140 27,284 27,340 27,301 27,215 314,215 472,215 472,273 472,157 317,157 96,157 246,157 42,157 193,157 193,430 193,120 54,120 54,147 54,262 54,189 54,400 54,281 54,134 363,134 363,442 212,442 212,34 305,34 305,367 305,464 377,464 248,464 248,325 248,415 158,415 158,377 158,281 16,281 179,281 179,111 132,111 196,111 196,121 196,167 196,8 273,8 247,8 247,365 71,365 178,365 178,427 178,174 275,174 395,174 395,334 182,334 182,142 182,429 182,350 155,350 194,350 194,7 264,7 214,7 229,7 250,7 242,7 242,8 242,249 242,170 242,122 242,93 227,93 227,31 163,31 163,345 163,33 148,33 258,33 254,33 254,489 254,345 254,199 254,85 315,85 249,85 149,85 314,85 340,85 395,85 395,199 219,199 294,199 294,40 294,44 342,44 342,41 342,451 342,333 342,270 50,270 463,270 463,368 463,219 203,219 203,420 313,420 313,37 370,37 370,175 48,175 35,175 354,175 215,175 215,8 285,8 285,285 317,285 317,444 317,115 354,115 354,263 354,434 247,434 405,434 286,434 286,312 396,312 396,404 396,342 396,273 64,273 125,273 12,273 67,273 321,273 321,301 89,301 228,301 228,484 228,31 255,31 255,271 255,214 255,472 270,472 189,472 189,216 189,180 338,180 338,414 184,414 184,401 184,47 270,47 160,47 349,47 349,381 349,91 349,268 307,268 370,268 370,388 362,388 343,388 343,171 343,417 179,417 181,417 181,52 272,52 345,52 245,52 357,52 357,381 122,381 439,381 439,395 439,108 439,332 191,332 191,140 48,140 48,222 48,185 441,185 353,185 353,197 278,197 278,312 445,312 445,335 445,149 445,106 445,244 478,244 354,244 226,244 226,423 226,467 167,467 167,247 167,180 167,268 75,268 75,164 75,394 75,401 310,401 310,21 310,415 66,415 290,415 333,415 284,415 284,28 284,130 284,159 320,159 320,292 320,118 120,118 120,349 249,349 249,222 249,147 380,147 380,126 380,74 380,328 91,328 91,119 267,119 269,119 269,288 269,372 269,114 269,312 269,443 269,282 383,282 343,282 343,327 343,465 341,465 335,465 323,465 323,135 201,135 201,190 486,190 486,186 486,268 311,268 324,268 93,268 93,111 93,330 221,330 221,88 368,88 368,80 182,80 182,186 334,186 185,186 475,186 74,186 372,186 181,186 165,186 165,385 365,385 431,385 431,378 165,378 165,40 285,40 285,466 370,466 333,466 155,466 269,466 269,247 336,247 399,247 399,183 464,183 76,183 241,183 323,183 397,183 349,183 269,183 269,301 341,301 269,301 269,7 238,7 238,484 238,129 238,169 403,169 403,95 191,95 191,17 256,17 256,187 351,187 351,257 417,257 417,406 205,406 133,406 415,406 77,406 77,250 77,172 77,352 61,352 301,352 301,91 301,13 301,205 129,205 340,205 340,234 495,234 376,234 269,234 148,234 328,234 328,220 328,325 328,435 328,477 164,477 164,40 164,400 241,400 241,404 241,324 408,324 264,324 264,7 264,301 264,79 264,167 264,6 264,136 264,124 175,124 175,54 175,28 342,28 342,168 401,168 401,336 401,426 171,426 267,426 143,426 155,426 155,479 179,479 210,479 281,479 196,479 323,479 323,247 362,247 362,285 362,155 362,170 362,131 362,393 362,385 362,301 362,428 362,82 362,67 362,146 60,146 60,363 60,114 60,100 60,359 60,96 401,96 401,201 146,201 146,142 472,142 176,142 176,225 451,225 362,225 35,225 35,357 35,125 349,125 360,125 214,125 61,125 61,178 367,178 367,286 367,202 367,136 367,77 225,77 225,236 225,423 225,257 485,257 354,257 468,257 468,153 468,174 221,174 107,174 107,226 262,226 375,226 146,226 146,63 146,182 146,204 435,204 350,204 459,204 118,204 118,423 119,423 291,423 291,174 291,31 291,262 266,262 241,262 241,60 241,203 269,203 411,203 411,203 278,203 229,203 229,250 209,250 209,122 72,122 72,178 414,178 330,178 330,412 330,134 244,134 161,134 362,134 105,134 33,134 33,368 33,332 198,332 176,332 176,451 327,451 138,451 138,156 138,77 359,77 359,284 359,304 383,304 163,304 318,304 235,304 220,304 291,304 291,423 291,173 291,128 291,245 32,245 52,245 52,376 52,284 376,284 376,154 257,154 374,154 374,434 374,107 374,138 387,138 387,394 212,394 212,422 212,156 101,156 447,156 397,156 297,156 297,385 297,153 297,424 297,195 45,195 270,195 270,191 270,322 226,322 243,322 45,322 45,200 45,198 45,181 211,181 417,181 15,181 201,181 129,181 450,181 450,344 450,121 295,121 166,121 194,121 194,484 303,484 303,142 240,142 235,142 375,142 375,60 375,138 375,38 375,185 289,185 64,185 64,392 64,368 178,368 178,445 313,445 313,488 313,12 313,167 313,136 440,136 409,136 409,402 78,402 78,85 78,397 78,288 344,288 344,20 258,20 336,20 336,280 48,280 48,234 48,154 48,341 130,341 130,278 130,80 169,80 169,442 247,442 104,442 221,442 221,202 268,202 399,202 399,196 174,196 174,380 351,380 351,364 351,453 351,468 351,193 91,193 149,193 300,193 300,94 300,140 300,406 300,67 113,67 113,440 113,196 113,304 113,291 113,382 145,382 145,94 145,381 322,381 322,60 363,60 290,60 290,153 290,492 218,492 218,492 260,492 258,492 250,492 250,133 250,334 395,334 395,440 412,440 283,440 317,440 317,217 317,359 317,301 317,138 317,227 317,186 194,186 281,186 281,284 281,467 281,356 281,127 467,127 48,127 48,218 48,119 293,119 223,119 167,119 409,119 227,119 272,119 272,249 105,249 105,307 119,307 388,307 82,307 100,307 188,307 318,307 311,307 311,469 311,185 311,220 372,220 481,220 118,220 118,433" /></svg>