<?xml version="1.0" encoding="utf-8" ?>
<svg baseProfile="tiny" fill="none" height="300" stroke="black" stroke-opacity="1.0" stroke-width="0.5" version="1.2" width="300" xmlns="http://www.w3.org/2000/svg" xmlns:ev="http://www.w3.org/2001/xml-events" xmlns:xlink="http://www.w3.org/1999/xlink"><defs /><polyline points="61,40 61,41 61,64 58,64 58,62 58,62 58,18 37,18 37,31 37,34 37,48 93,48 93,58 40,58 81,58 28,58 28,47 28,69 86,69 86,56 95,56 95,42 95,66 95,68 8,68 8,29 8,49 8,60 11,60 98,60 98,47 98,60 44,60 7,60 89,60 47,60 47,5 47,17 47,50 47,19 47,94 27,94 27,20 27,10 36,10 36,48 83,48 83,45 59,45 39,45 8,45 8,69 50,69 50,25 50,41 58,41 4,41 4,45 77,45 36,45 80,45 80,57 53,57 53,10 53,63 53,72 53,35 53,85 53,84 36,84 50,84 49,84 49,74 36,74 36,15 34,15 34,33 34,23 34,44 21,44 25,44 77,44 34,44 34,22 34,34 34,97 33,97 66,97 63,97 63,32 35,32 35,80 59,80 59,76 59,93 73,93 73,74 73,57 73,73 73,94 42,94 59,94 59,24 59,80 59,63 59,75 23,75 23,70 56,70 63,70 52,70 52,91 52,76 43,76 90,76 90,72 90,42 90,79 90,27 28,27 53,27 53,47 47,47 79,47 79,20 12,20 76,20 76,37 76,18 76,11 23,11 52,11 52,77 59,77 70,77 70,48 70,39 97,39 97,35 64,35 9,35 21,35 21,54 37,54 37,76 37,62 37,89 39,89 28,89 31,89 31,32 31,60 73,60 22,60 25,60 25,29 11,29 75,29 79,29 79,78 79,18 63,18 63,84 63,64 46,64 46,10 46,85 32,85 61,85 61,42 94,42 94,71 94,60 86,60 22,60 22,33 68,33 93,33 38,33 58,33 21,33 21,28 6,28 19,28 49,28 90,28 90,42 90,55 20,55 20,37 25,37 74,37 76,37 93,37 69,37 87,37 68,37 68,56 68,95 68,71 68,83 76,83 76,49 26,49 26,9 26,92 59,92 40,92 65,92 54,92 39,92 39,14 66,14 66,50 66,71 53,71 53,7 60,7 57,7 71,7 30,7 30,62 30,81 30,56 57,56 6,56 6,51 67,51 67,17 83,17 78,17 87,17 26,17 58,17 58,67 85,67 85,44 85,36 85,35 85,64 45,64 59,64 59,17 63,17 63,15 29,15 29,44 1,44 1,52 1,57 1,44 1,51 1,50 43,50 44,50 44,48 69,48 31,48 31,83 31,17 31,17 31,50 31,22 73,22 73,48 3,48 3,60 60,60 60,84 43,84 48,84 49,84 49,49 49,52 35,52 88,52 88,36 88,23 28,23 53,23 53,94 53,54 53,18 34,18 13,18 13,45 90,45 90,38 90,46 41,46 35,46 35,21 89,21 89,70 89,77 67,77 68,77 45,77 45,61 83,61 83,40 64,40 64,9 64,64 22,64 10,64 77,64 77,44 40,44 38,44 38,13 50,13 50,43 27,43 27,6 27,70 27,64 27,43 27,46 96,46 95,46 57,46 67,46 36,46 36,44 59,44 59,28 59,75 59,15 59,39 98,39 95,39 92,39 92,24 92,47 49,47 49,83 55,83 55,69 55,61 55,79 55,18 55,40 55,37 7,37 28,37 87,37 87,18 22,18 22,15 76,15 35,15 45,15 24,15 61,15 80,15 80,62 80,53 80,16 84,16 71,16 68,16 64,16 64,92 64,69 14,69 71,69 71,45 44,45 44,75 44,51 33,51 19,51 76,51 76,89 52,89 35,89 57,89 20,89 32,89 32,67 62,67 7,67 38,67 3,67 3,50 1,50 61,50 36,50 36,66 64,66 29,66 29,70 45,70 45,3 45,97 55,97 39,97 58,97 40,97 58,97 34,97 66,97 40,97 40,59 40,76 40,37 40,90 40,27 78,27 46,27 64,27 64,16 51,16 71,16 71,65 4,65 77,65 78,65 78,57 70,57 56,57 56,75 10,75 10,78 84,78 84,82 84,33 84,31 49,31 48,31 79,31 79,68 9,68 9,35 47,35 58,35 67,35 67,80 67,32 37,32 37,31 20,31 71,31 71,31 91,31 91,48 91,30 91,40 13,40 13,30 53,30 31,30 31,81 34,81 79,81 79,22 79,27 74,27 74,21 24,21 70,21 70,74 79,74 11,74 58,74 37,74 37,30 37,70 37,6 37,85 37,59 77,59 56,59 56,19 43,19 41,19 41,98 41,40 51,40 51,40 51,5 60,5 34,5 34,40 70,40 70,20 70,20 70,6 70,65 70,30 70,65 70,14 60,14 60,93 60,4 55,4 55,45 90,45 90,56 92,56" /></svg>