<?xml version="1.0" encoding="utf-8" ?>
<svg baseProfile="tiny" fill="none" height="300" stroke="black" stroke-opacity="1.0" stroke-width="0.5" version="1.2" width="300" xmlns="http://www.w3.org/2000/svg" xmlns:ev="http://www.w3.org/2001/xml-events" xmlns:xlink="http://www.w3.org/1999/xlink"><defs /><polyline points="419,307 185,307 185,383 336,383 336,209 196,209 115,209 42,209 419,209 419,227 419,267 419,343 283,343 283,6 297,6 218,6 218,323 218,369 346,369 380,369 394,369 394,118 404,118 404,271 404,254 294,254 294,486 294,234 294,244 294,125 177,125 177,235 273,235 273,163 273,123 78,123 464,123 189,123 189,212 189,302 189,108 189,253 499,253 499,262 499,241 230,241 230,295 230,97 137,97 394,97 394,142 394,165 394,107 394,364 394,113 170,113 170,248 313,248 313,159 313,108 313,375 246,375 246,200 480,200 480,300 32,300 117,300 117,318 53,318 204,318 204,451 231,451 231,186 231,340 231,285 113,285 118,285 227,285 11,285 302,285 418,285 418,191 244,191 438,191 438,349 438,167 438,290 321,290 475,290 406,290 406,331 406,139 341,139 326,139 326,355 39,355 39,317 267,317 375,317 142,317 142,417 142,261 142,93 248,93 145,93 242,93 242,76 276,76 276,235 276,314 276,307 445,307 445,95 445,134 445,144 445,198 445,254 445,245 445,229 445,390 445,139 445,189 445,118 71,118 71,163 71,207 101,207 400,207 400,119 400,162 400,210 41,210 41,260 62,260 162,260 144,260 144,381 144,29 144,82 78,82 78,239 79,239 105,239 385,239 57,239 481,239 481,222 147,222 285,222 285,277 229,277 229,386 229,327 131,327 176,327 176,436 176,110 112,110 311,110 419,110 419,306 137,306 471,306 471,281 260,281 406,281 406,390 58,390 365,390 365,168 365,350 84,350 84,161 84,270 172,270 172,94 403,94 403,147 131,147 131,114 302,114 456,114 264,114 264,161 264,143 281,143 383,143 383,297 383,104 383,309 250,309 250,277 406,277 406,82 406,219 406,171 406,82 406,307 217,307 217,286 217,166 217,475 269,475 269,248 269,147 269,241 269,287 394,287 283,287 443,287 102,287 71,287 71,320 447,320 18,320 18,166 18,264 18,281 350,281 9,281 117,281 117,281 25,281 21,281 112,281 236,281 266,281 266,436 266,391 266,155 84,155 294,155 238,155 238,75 238,269 238,116 169,116 169,385 169,232 169,291 296,291 431,291 83,291 83,265 437,265 437,119 437,396 437,328 437,353 105,353 258,353 258,126 258,198 442,198 442,222 107,222 408,222 454,222 34,222 52,222 180,222 180,186 321,186 321,175 321,12 321,137 182,137 182,426 182,209 182,282 182,451 182,55 260,55 198,55 322,55 322,465 322,209 322,23 322,50 144,50 368,50 368,425 280,425 80,425 317,425 145,425 411,425 411,230 411,171 459,171 119,171 244,171 244,309 299,309 299,231 251,231 29,231 31,231 31,226 440,226 407,226 407,176 407,267 407,207 30,207 393,207 240,207 316,207 399,207 187,207 384,207 71,207 15,207 15,234 15,280 189,280 466,280 466,205 466,214 466,189 466,190 345,190 345,131 82,131 82,222 82,100 156,100 156,215 197,215 100,215 304,215 304,65 352,65 352,33 352,110 194,110 280,110 187,110 70,110 395,110 395,121 395,101 395,295 395,215 395,218 371,218 156,218 152,218 123,218 493,218 223,218 395,218 395,393 390,393 330,393 260,393 260,106 260,135 425,135 328,135 328,453 328,340 328,297 328,76 220,76 220,133 323,133 160,133 160,277 316,277 249,277 249,415 249,427 301,427 396,427 396,53 115,53 115,40 328,40 314,40 314,95 261,95 261,330 379,330 379,370 125,370 125,255 125,416 395,416 71,416 295,416 237,416 199,416 213,416 121,416 121,436 121,282 295,282 295,473 295,493 223,493 226,493 226,53 226,211 291,211 14,211 14,228 69,228 69,333 69,404 69,269 69,155 69,285 69,257 69,194 478,194 88,194 118,194 118,311 77,311 447,311 447,161 447,288 447,228 447,168 447,398 447,242 447,97 426,97 386,97 80,97 263,97 110,97 126,97 142,97 132,97 212,97 411,97 378,97 378,421 256,421 256,460 256,165 82,165 82,276 82,226 115,226 285,226 285,88 285,134 337,134 344,134 344,314 455,314 9,314 311,314 311,401 311,219 123,219 123,431 201,431 135,431 135,61 185,61 185,253 318,253 157,253 157,375 157,22 268,22 268,155 235,155 116,155 420,155 437,155 216,155 35,155 399,155 361,155 292,155 292,109 393,109 393,410 393,77 257,77 71,77 84,77 84,330 84,366 257,366 257,351 168,351 165,351 165,466 215,466 215,265 215,3 215,276 447,276 201,276 410,276" /></svg>