<?xml version="1.0" encoding="utf-8" ?>
<svg baseProfile="tiny" fill="none" height="250" stroke="black" stroke-opacity="1.0" stroke-width="0.5" version="1.2" width="250" xmlns="http://www.w3.org/2000/svg" xmlns:ev="http://www.w3.org/2001/xml-events" xmlns:xlink="http://www.w3.org/1999/xlink"><defs /><polyline points="40,7 40,21 29,21 13,21 13,83 87,83 49,83 49,3 49,89 49,85 53,85 53,91 41,91 41,80 25,80 25,79 25,21 25,83 25,16 25,23 73,23 73,23 73,80 75,80 75,91 76,91 76,21 25,21 69,21 41,21 41,78 41,89 41,98 41,86 44,86 52,86 52,79 52,11 52,93 52,95 52,76 72,76 69,76 69,77 69,10 69,13 69,15 71,15 71,83 80,83 80,84 80,88 78,88 78,78 78,23 68,23 68,95 42,95 42,4 65,4 65,82 17,82 27,82 27,10 27,20 77,20 75,20 75,23 75,91 69,91 69,18 78,18 12,18 12,76 12,20 12,81 44,81 37,81 37,18 48,18 37,18 37,6 45,6 65,6 59,6 38,6 38,14 38,83 38,90 38,5 68,5 68,5 68,94 68,86 65,86 65,76 19,76 19,15 57,15 57,87 37,87 33,87 21,87 21,90 21,19 21,82 21,90 21,80 44,80 44,87 43,87 54,87 54,20 54,80 12,80 12,23 12,24 67,24 67,83 55,83 55,15 55,8 55,90 55,86 83,86 47,86 72,86 72,92 72,8 42,8 31,8 25,8 25,8 25,84 25,92 25,85 75,85 47,85 47,93 47,17 47,5 47,87 47,17 47,11 77,11 77,87 83,87 83,82 59,82 18,82 52,82 23,82 23,15 23,87 23,11 23,14 23,90 23,23 75,23 80,23 80,76 80,86 80,12 24,12 24,19 55,19 55,90 55,23 14,23 14,21 65,21 44,21 44,4 44,89 44,97 44,11 44,13 44,5 44,3 65,3 63,3 47,3 54,3 61,3 61,95 38,95 37,95 69,95 55,95 37,95 37,90 37,15 37,89 38,89 38,82 75,82 59,82 59,21 59,83 38,83 41,83 41,4 33,4 33,78 39,78 91,78 91,78 62,78 32,78 32,14 25,14 84,14 45,14 59,14 68,14 41,14 70,14 70,12 21,12 21,87 65,87 65,76 45,76 45,90 78,90 78,85 74,85 74,79 74,7 74,88 42,88 42,2 55,2 47,2 43,2 43,15 43,92 43,14 43,17 58,17 64,17 83,17 83,84 33,84 33,81 68,81 84,81 84,86 84,17 82,17 64,17 64,77 64,9 41,9 41,86 41,88 38,88 47,88 47,18 47,88 59,88 47,88 47,92 66,92 52,92 52,76 16,76 16,84 16,24 16,23 84,23 30,23 70,23 77,23 77,20 77,92 77,85 18,85 18,22 21,22 21,20 71,20 15,20 15,79 84,79 45,79 35,79 59,79 46,79 14,79 14,81 65,81 65,94 36,94 65,94 60,94 71,94 71,6 41,6 53,6 64,6 64,6 64,95 64,5 58,5 40,5 61,5 68,5 70,5 44,5 60,5 41,5 41,89 81,89 80,89 80,19 33,19 84,19 44,19 44,16 34,16 34,3 53,3 53,90 53,93 40,93 40,21 24,21 81,21 13,21 23,21 23,92 23,82 23,14 23,92 38,92 38,85 38,97 59,97 59,13 62,13 80,13 65,13 46,13 46,18 32,18 32,16 32,24 32,19 58,19 32,19 32,12 32,19 32,81 32,16 84,16 59,16 59,5 58,5 55,5 55,96 55,24 75,24 59,24 59,19 59,86 59,93 52,93 52,79 59,79 59,18 59,9 52,9 39,9 75,9 44,9 40,9 40,2 42,2 48,2 52,2 50,2 50,90 50,84 50,21 50,99 46,99 46,95 46,22 79,22 79,14 34,14 27,14 27,22 34,22 9,22 86,22 86,20 86,81 86,19 86,84 65,84 65,12 19,12 30,12 74,12 74,8 31,8 33,8 33,79 33,6 33,23 33,93 33,13 33,3 33,6 33,95 33,4 33,11 67,11 67,90 67,96 67,96 32,96 39,96 46,96 46,99 46,24 27,24 63,24 63,2 63,95 63,5 63,20 63,7 63,96 63,98 60,98 57,98 57,14 57,88 39,88 63,88 63,90 43,90 67,90 67,7 43,7 33,7 33,87 70,87 82,87 65,87 81,87 59,87 81,87 58,87 69,87 41,87 63,87 41,87 27,87 20,87 51,87 51,92 51,92 56,92 56,10 66,10 66,80 66,13 80,13 64,13 37,13 37,82 65,82 65,84 85,84 85,20 38,20 38,16 42,16 42,97 37,97 33,97 33,10 33,97 56,97 56,8 52,8 69,8 24,8 57,8 41,8 44,8 44,15 55,15 55,2 41,2 41,95" /></svg>