<?xml version="1.0" encoding="utf-8" ?>
<svg baseProfile="tiny" fill="none" height="250" stroke="black" stroke-opacity="1.0" stroke-width="0.5" version="1.2" width="250" xmlns="http://www.w3.org/2000/svg" xmlns:ev="http://www.w3.org/2001/xml-events" xmlns:xlink="http://www.w3.org/1999/xlink"><defs /><polyline points="173,50 173,161 182,161 165,161 7,161 7,21 7,138 75,138 130,138 130,61 130,49 26,49 26,131 162,131 162,188 162,133 198,133 91,133 30,133 47,133 58,133 58,148 58,95 58,161 58,191 60,191 190,191 9,191 55,191 93,191 180,191 180,123 3,123 180,123 180,107 180,81 16,81 16,43 16,45 124,45 124,36 142,36 142,79 145,79 163,79 163,142 170,142 0,142 0,172 109,172 108,172 108,104 123,104 27,104 60,104 162,104 162,50 162,36 198,36 198,135 198,161 198,85 198,155 146,155 87,155 87,188 36,188 36,28 36,131 129,131 129,16 93,16 93,61 93,46 93,193 93,98 93,72 93,21 93,167 93,167 132,167 78,167 78,69 122,69 193,69 193,177 160,177 107,177 166,177 97,177 55,177 140,177 53,177 105,177 153,177 135,177 110,177 183,177 132,177 132,104 173,104 137,104 41,104 141,104 31,104 31,36 147,36 147,73 147,44 147,33 28,33 73,33 73,164 73,80 73,20 73,122 99,122 63,122 8,122 8,58 8,122 19,122 62,122 180,122 15,122 161,122 161,14 79,14 79,193 24,193 24,188 24,18 24,139 150,139 150,98 88,98 52,98 52,175 152,175 54,175 70,175 139,175 175,175 175,197 131,197 131,40 36,40 32,40 32,6 47,6 182,6 182,157 56,157 56,130 56,44 56,31 56,34 92,34 92,77 150,77 177,77 177,24 88,24 165,24 184,24 186,24 186,162 171,162 171,95 102,95 96,95 96,1 96,45 104,45 104,116 104,34 104,96 104,25 100,25 35,25 198,25 33,25 33,106 73,106 73,127 78,127 10,127 10,44 137,44 137,126 169,126 169,70 169,103 169,83 189,83 189,112 189,129 79,129 79,124 79,153 22,153 22,146 22,178 61,178 169,178 169,94 169,41 161,41 161,41 161,175 133,175 194,175 194,154 194,86 194,6 194,135 194,191 55,191 176,191 45,191 125,191 125,52 52,52 52,130 41,130 41,184 174,184 174,81 174,15 174,111 174,144 174,165 53,165 79,165 138,165 138,57 146,57 39,57 41,57 94,57 141,57 36,57 31,57 31,17 31,3 0,3 123,3 123,170 28,170 185,170 185,104 19,104 141,104 87,104 87,181 161,181 3,181 3,12 3,44 165,44 165,40 165,113 179,113 179,92 179,106 179,68 179,139 185,139 88,139 81,139 138,139 138,101 138,67 138,89 48,89 4,89 4,11 4,14 48,14 48,141 109,141 109,95 109,9 109,180 175,180 88,180 88,57 88,178 180,178 172,178 37,178 198,178 198,193 198,137 198,105 198,57 96,57 96,159 96,178 96,126 30,126 30,27 10,27 110,27 167,27 62,27 62,97 62,68 62,184 62,73 62,75 179,75 30,75 175,75 175,92 193,92 94,92 192,92 13,92 13,130 12,130 65,130 65,182 65,166 65,97 96,97 128,97 128,5 112,5 115,5 125,5 125,25 162,25 162,189 162,35 162,119 19,119 81,119 104,119 104,86 104,164 104,153 117,153 117,187 192,187 192,10 153,10 182,10 182,194 182,50 52,50 65,50 65,72 74,72 74,5 74,88 74,22 74,6 74,154 74,107 74,21 74,137 54,137 164,137 120,137 46,137 46,23 139,23 130,23 123,23 123,85 123,38 28,38 136,38 70,38 70,59 70,160 120,160 17,160 121,160 39,160 69,160 152,160 118,160 118,193 45,193 45,170 30,170 164,170 164,15 147,15 177,15 159,15 124,15 164,15 164,141 124,141 124,42 124,122 49,122 49,136 170,136 100,136 100,14 190,14 190,141 144,141 159,141 180,141 180,131 100,131 184,131 158,131 15,131 15,64 1,64 127,64 55,64 104,64 104,89 104,51 104,32 56,32 56,175 56,162 127,162 127,14 119,14 42,14 42,48 42,65 42,192 18,192 189,192 60,192 60,118 60,13 11,13 11,138 142,138 58,138 33,138 71,138 144,138 144,1 199,1 199,151 69,151 69,185 46,185 54,185 54,157 67,157 132,157 132,198 132,133 88,133 169,133 169,17 169,17 169,50 169,158 40,158 40,169 40,156 40,77 40,123 40,100 40,101 40,15 142,15 142,119 142,168 142,116 142,139 78,139 78,198 78,126 12,126 12,125 12,46 12,34 12,157 12,33 43,33 177,33 177,184 98,184 98,169 57,169 54,169 154,169 154,47 154,152 154,101 154,163 3,163 3,54 98,54 98,195" stroke="cyan" /><polyline points="138,194 138,13 138,179 138,115 138,193 71,193 71,164 173,164 199,164 199,30 58,30 58,92 48,92 48,93 194,93 2,93 2,61 2,90 2,199 25,199 25,20 25,125 175,125 166,125 2,125 2,74 117,74 194,74 74,74 71,74 29,74 29,105 18,105 18,177 18,184 18,173 18,115 18,14 18,6 179,6 190,6 139,6 139,6 139,38 139,113 19,113 19,61 19,29 36,29 138,29 43,29 43,15 43,85 162,85 162,83 162,198 162,96 195,96 122,96 134,96 134,82 134,97 111,97 177,97 141,97 141,166 191,166 43,166 43,155 43,11 91,11 32,11 8,11 169,11 169,112 115,112 19,112 148,112 70,112 184,112 184,40 184,170 195,170 46,170 46,58 46,159 135,159 135,104 66,104 149,104 149,197 7,197 21,197 68,197 68,157 68,176 32,176 86,176 36,176 36,4 22,4 22,51 22,187 22,41 191,41 191,171 155,171 155,117 45,117 166,117 179,117 103,117 80,117 80,99 198,99 57,99 57,152 88,152 81,152 169,152 83,152 83,161 83,175 83,119 83,1 127,1 127,191 52,191 52,138 52,138 184,138 93,138 93,44 88,44 124,44 76,44 76,157 43,157 43,161 43,46 179,46 133,46 79,46 192,46 11,46 11,95 11,185 31,185 172,185 55,185 124,185 124,154 124,124 124,8 40,8 40,8 135,8 148,8 148,42 148,142 44,142 44,4 37,4 2,4 2,106 194,106 43,106 43,123 155,123 88,123 61,123 61,54 39,54 39,47 79,47 181,47 181,194 181,5 146,5 125,5 185,5 82,5 65,5 129,5 165,5 165,59 152,59 152,93 152,85 152,147 117,147 115,147 86,147 163,147 163,70 121,70 121,32 62,32 70,32 70,151 0,151 173,151 173,148 173,79 173,83 173,196 86,196 60,196 60,68 60,114 7,114 167,114 157,114 1,114 102,114 165,114 135,114 135,134 135,20 104,20 63,20 63,12 63,172 148,172 148,141 129,141 102,141 149,141 149,154 116,154 31,154 31,115 31,41 57,41 57,167 57,25 80,25 195,25 192,25 192,69 192,50 192,85 3,85 39,85 39,2 83,2 83,169 83,198 169,198 156,198 128,198 128,48 128,176 59,176 59,105 59,61 59,48 97,48 77,48 114,48 114,169 114,151 124,151 124,199 124,8 91,8 91,180 91,71 64,71 176,71 65,71 65,29 116,29 116,177 116,129 8,129 8,167 182,167 157,167 145,167 145,18 145,53 145,41 195,41 195,121 95,121 95,140 95,121 3,121 75,121 54,121 54,153 54,138 54,47 54,12 41,12 162,12 182,12 182,40 182,27 18,27 18,43 130,43 9,43 9,12 9,120 9,195 98,195 98,97 48,97 125,97 125,165 127,165 127,65 172,65 172,102 178,102 183,102 28,102 28,102 39,102 39,153 79,153 79,21 18,21 18,56 18,84 35,84 35,156 35,51 35,172 171,172 88,172 88,192 130,192 130,38 193,38 27,38 30,38 30,15 30,20 164,20 57,20 118,20 118,101 92,101 188,101 170,101 170,97 142,97 142,4 62,4 62,195 191,195 5,195 5,48 5,19 180,19 55,19 68,19 104,19 82,19 82,88 82,58 194,58 130,58 190,58 127,58 176,58 15,58 15,9 15,84 110,84 110,62 131,62 1,62 65,62 62,62 117,62 117,104 3,104 32,104 170,104 170,81 170,158 128,158 128,105 128,3 128,108 128,164 128,149 2,149 135,149 135,101 135,36 146,36 64,36 64,188 64,161 56,161 135,161 33,161 33,46 33,186 43,186 16,186 16,138 139,138 145,138 62,138 23,138 162,138 99,138 101,138 101,49 110,49 74,49 166,49 166,178 46,178 112,178 61,178 61,79 61,21 61,130 61,80 13,80 133,80 133,121 133,89 2,89 2,156 11,156 11,2 11,35 100,35 100,176 100,16 59,16 177,16 177,91 177,174 33,174 33,24 65,24 133,24 133,148 49,148 40,148 40,185 40,146 50,146 50,54 50,56 23,56 140,56 162,56 162,105 32,105 32,183 152,183 152,154 92,154 92,126 171,126 141,126 141,23 141,32 48,32 12,32 12,45 116,45 116,148 183,148 183,30 183,146 193,146 181,146 181,9 21,9 21,165 21,180 21,183 21,103 96,103 176,103 176,21 176,153 154,153 155,153 155,46 155,145 155,155 155,10 155,169 155,198 155,20 155,182 4,182 4,20" stroke="magenta" /><polyline points="9,109 33,109 108,109 75,109 75,113 75,18 186,18 186,171 186,156 186,85 186,48 75,48 92,48 14,48 14,70 81,70 132,70 132,183 132,7 44,7 44,49 44,78 44,38 162,38 162,111 179,111 154,111 157,111 89,111 89,129 152,129 152,84 125,84 191,84 160,84 50,84 50,139 50,174 57,174 51,174 51,61 51,179 51,171 51,3 34,3 88,3 143,3 56,3 56,43 56,16 12,16 12,23 185,23 151,23 144,23 144,42 144,55 106,55 106,191 106,150 54,150 159,150 20,150 20,16 28,16 125,16 193,16 193,124 193,12 193,53 42,53 160,53 161,53 90,53 118,53 118,48 68,48 68,56 68,193 76,193 76,79 61,79 177,79 177,186 177,126 50,126 24,126 24,35 24,157 24,115 24,41 24,127 24,27 24,70 75,70 75,160 41,160 24,160 173,160 118,160 179,160 179,120 179,185 179,68 18,68 18,35 43,35 62,35 62,12 153,12 153,76 153,196 49,196 49,89 49,160 126,160 126,186 140,186 140,48 16,48 12,48 157,48 157,87 157,122 162,122 153,122 125,122 125,75 125,79 125,44 78,44 78,158 78,187 78,7 67,7 41,7 41,76 41,38 41,147 117,147 117,176 117,74 117,20 12,20 64,20 54,20 54,104 54,107 123,107 72,107 72,163 153,163 33,163 49,163 49,70 49,148 42,148 42,146 42,132 133,132 179,132 179,75 115,75 195,75 150,75 52,75 75,75 75,86 75,13 92,13 196,13 156,13 104,13 136,13 129,13 129,14 96,14 96,4 96,70 164,70 164,137 164,183 157,183 2,183 2,1 67,1 67,78 67,88 22,88 22,185 22,127 22,19 22,40 22,46 94,46 94,146 94,117 116,117 116,123 116,113 116,30 192,30 28,30 180,30 16,30 99,30 150,30 150,151 150,35 150,74 96,74 38,74 58,74 123,74 123,183 123,56 156,56 156,87 156,197 12,197 75,197 134,197 69,197 69,174 130,174 63,174 132,174 56,174 56,160 56,78 56,55 56,146 56,198 56,43 56,160 114,160 114,33 114,49 113,49 113,23 113,145 169,145 169,19 169,106 169,43 66,43 66,153 66,158 66,19 62,19 126,19 12,19 12,166 21,166 21,31 70,31 70,153 70,33 70,162 14,162 14,106 14,76 14,167 148,167 191,167 194,167 9,167 53,167 53,95 106,95 106,144 106,64 106,169 106,72 106,27 106,43 106,99 189,99 189,159 89,159 89,84 160,84 114,84 147,84 147,92 147,174 147,178 147,74 147,40 197,40 61,40 61,42 61,44 61,22 61,194 61,61 170,61 190,61 15,61 15,133 50,133 147,133 147,41 147,93 147,137 147,54 80,54 80,131 80,101 80,199 80,59 80,98 80,139 80,30 80,150 12,150 12,160 78,160 141,160 141,25 162,25 56,25 140,25 140,118 140,120 156,120 156,118 139,118 196,118 160,118 160,62 74,62 93,62 33,62 72,62 102,62 102,157 102,145 102,151 24,151 24,86 24,151 24,140 96,140 96,58 71,58 71,10 71,179 71,117 139,117 52,117 52,180 52,146 52,12 52,39 95,39 95,170 184,170 5,170 51,170 51,88 97,88 97,198 97,14 167,14 88,14 183,14 183,40 11,40 55,40 55,12 55,0 130,0 17,0 169,0 50,0 50,84 50,51 50,94 154,94 181,94 181,14 33,14 33,177 185,177 185,50 133,50 135,50 98,50 98,103 98,164 98,197 98,150 98,94 98,43 98,118 48,118 48,194 96,194 96,188 96,196 96,110 96,129 96,79 96,181 96,150 96,75 96,158 82,158 113,158 141,158 25,158 199,158 199,46 80,46 80,139 66,139 197,139 197,33 94,33 94,109 151,109 164,109 164,64 164,27 164,100 15,100 15,146 15,126 15,194 21,194 23,194 23,1 23,61 131,61 186,61 107,61 107,31 107,166 99,166 46,166 128,166 128,61 128,164 128,190 128,10 144,10 144,152 144,55 158,55 158,69 76,69 26,69 26,127 26,86 124,86 124,160 124,171 124,165 124,104 74,104 74,173 175,173 83,173 90,173 90,103 11,103 11,113 11,126 11,156 19,156 21,156 21,107 21,155 21,83 170,83 2,83 2,110 197,110 174,110 174,105 63,105 63,165 63,199 122,199 122,99 22,99 22,126 22,84 22,70 22,140 22,104 55,104 165,104 165,7 165,85 165,125 165,35 165,113 165,137" stroke="yellow" /></svg>