<?xml version="1.0" encoding="utf-8" ?>
<svg baseProfile="tiny" fill="none" height="300" stroke="black" stroke-opacity="1.0" stroke-width="0.5" version="1.2" width="300" xmlns="http://www.w3.org/2000/svg" xmlns:ev="http://www.w3.org/2001/xml-events" xmlns:xlink="http://www.w3.org/1999/xlink"><defs /><polyline points="7,41 31,41 31,6 27,6 36,6 10,6 10,21 1,21 1,29 45,29 45,13 7,13 7,29 7,12 5,12 5,25 41,25 41,6 41,43 41,19 46,19 15,19 18,19 18,35 11,35 36,35 34,35 34,19 34,41 6,41 25,41 16,41 16,12 16,11 24,11 24,3 24,19 24,8 24,26 45,26 45,23 45,37 45,20 45,28 41,28 38,28 38,4 19,4 28,4 28,33 28,21 31,21 31,5 26,5 26,22 26,6 11,6 11,17 46,17 46,18 46,21 19,21 27,21 27,10 28,10 28,6 35,6 35,28 35,42 24,42 24,3 32,3 32,14 13,14 13,16 45,16 9,16 18,16 6,16 26,16 21,16 21,29 35,29 20,29 29,29 29,42 29,26 18,26 18,37 18,45 18,17 18,38 29,38 29,33 29,38 46,38 18,38 28,38 28,2 28,4 16,4 25,4 25,35 14,35 14,15 14,32 7,32 8,32 8,31 31,31 31,48 31,9 42,9 42,29 42,29 42,41 42,34 42,18 42,7 22,7 22,19 8,19 31,19 14,19 14,7 9,7 39,7 39,29 39,19 43,19 43,27 40,27 40,6 40,43 11,43 11,21 4,21 4,15 18,15 18,45 18,34 17,34 31,34 29,34 29,1 31,1 31,33 31,23 31,37 31,4 31,1 31,35 31,41 31,37 5,37 5,30 19,30 19,35 19,15 19,34 19,41 21,41 21,9 21,1 24,1 19,1 23,1 23,37 23,47 14,47 14,4 24,4 24,16 24,14 9,14 9,34 9,29 47,29 36,29 34,29 34,14 34,36 24,36 24,17 24,21 24,49 23,49 31,49 31,18 31,15 36,15 11,15 21,15 21,9 27,9 22,9 22,10 8,10 8,10 8,20 8,20" /></svg>