<?xml version="1.0" encoding="utf-8" ?>
<svg baseProfile="tiny" fill="none" height="300" stroke="black" stroke-opacity="1.0" stroke-width="0.5" version="1.2" width="300" xmlns="http://www.w3.org/2000/svg" xmlns:ev="http://www.w3.org/2001/xml-events" xmlns:xlink="http://www.w3.org/1999/xlink"><defs /><line x1="162" x2="33" y1="102" y2="102" /><line x1="33" x2="33" y1="102" y2="14" /><line x1="33" x2="61" y1="14" y2="14" /><line x1="61" x2="61" y1="14" y2="124" /><line x1="61" x2="144" y1="124" y2="124" /><line x1="144" x2="240" y1="124" y2="124" /><line x1="240" x2="240" y1="124" y2="154" /><line x1="240" x2="240" y1="154" y2="119" /><line x1="240" x2="240" y1="119" y2="167" /><line x1="240" x2="86" y1="167" y2="167" /><line x1="86" x2="211" y1="167" y2="167" /><line x1="211" x2="211" y1="167" y2="122" /><line x1="211" x2="211" y1="122" y2="206" /><line x1="211" x2="211" y1="206" y2="55" /><line x1="211" x2="42" y1="55" y2="55" /><line x1="42" x2="228" y1="55" y2="55" /><line x1="228" x2="65" y1="55" y2="55" /><line x1="65" x2="65" y1="55" y2="61" /><line x1="65" x2="65" y1="61" y2="164" /><line x1="65" x2="102" y1="164" y2="164" /><line x1="102" x2="216" y1="164" y2="164" /><line x1="216" x2="36" y1="164" y2="164" /><line x1="36" x2="108" y1="164" y2="164" /><line x1="108" x2="108" y1="164" y2="235" /><line x1="108" x2="108" y1="235" y2="205" /><line x1="108" x2="34" y1="205" y2="205" /><line x1="34" x2="34" y1="205" y2="158" /><line x1="34" x2="34" y1="158" y2="91" /><line x1="34" x2="107" y1="91" y2="91" /><line x1="107" x2="107" y1="91" y2="92" /><line x1="107" x2="107" y1="92" y2="155" /><line x1="107" x2="105" y1="155" y2="155" /><line x1="105" x2="105" y1="155" y2="14" /><line x1="105" x2="105" y1="14" y2="66" /><line x1="105" x2="230" y1="66" y2="66" /><line x1="230" x2="230" y1="66" y2="217" /><line x1="230" x2="230" y1="217" y2="198" /><line x1="230" x2="230" y1="198" y2="140" /><line x1="230" x2="230" y1="140" y2="149" /><line x1="230" x2="230" y1="149" y2="151" /><line x1="230" x2="85" y1="151" y2="151" /><line x1="85" x2="85" y1="151" y2="58" /><line x1="85" x2="85" y1="58" y2="71" /><line x1="85" x2="9" y1="71" y2="71" /><line x1="9" x2="9" y1="71" y2="144" /><line x1="9" x2="9" y1="144" y2="162" /><line x1="9" x2="9" y1="162" y2="117" /><line x1="9" x2="38" y1="117" y2="117" /><line x1="38" x2="189" y1="117" y2="117" /><line x1="189" x2="62" y1="117" y2="117" /><line x1="62" x2="62" y1="117" y2="137" /><line x1="62" x2="242" y1="137" y2="137" /><line x1="242" x2="90" y1="137" y2="137" /><line x1="90" x2="223" y1="137" y2="137" /><line x1="223" x2="223" y1="137" y2="236" /><line x1="223" x2="223" y1="236" y2="101" /><line x1="223" x2="129" y1="101" y2="101" /><line x1="129" x2="214" y1="101" y2="101" /><line x1="214" x2="88" y1="101" y2="101" /><line x1="88" x2="88" y1="101" y2="5" /><line x1="88" x2="106" y1="5" y2="5" /><line x1="106" x2="234" y1="5" y2="5" /><line x1="234" x2="61" y1="5" y2="5" /><line x1="61" x2="61" y1="5" y2="45" /><line x1="61" x2="61" y1="45" y2="195" /><line x1="61" x2="61" y1="195" y2="169" /><line x1="61" x2="61" y1="169" y2="27" /><line x1="61" x2="61" y1="27" y2="218" /><line x1="61" x2="79" y1="218" y2="218" /><line x1="79" x2="79" y1="218" y2="89" /><line x1="79" x2="163" y1="89" y2="89" /><line x1="163" x2="246" y1="89" y2="89" /><line x1="246" x2="246" y1="89" y2="164" /><line x1="246" x2="246" y1="164" y2="177" /><line x1="246" x2="246" y1="177" y2="14" /><line x1="246" x2="70" y1="14" y2="14" /><line x1="70" x2="85" y1="14" y2="14" /><line x1="85" x2="85" y1="14" y2="187" /><line x1="85" x2="85" y1="187" y2="176" /><line x1="85" x2="85" y1="176" y2="83" /><line x1="85" x2="85" y1="83" y2="240" /><line x1="85" x2="85" y1="240" y2="76" /><line x1="85" x2="85" y1="76" y2="64" /><line x1="85" x2="85" y1="64" y2="114" /><line x1="85" x2="198" y1="114" y2="114" /><line x1="198" x2="201" y1="114" y2="114" /><line x1="201" x2="201" y1="114" y2="225" /><line x1="201" x2="110" y1="225" y2="225" /><line x1="110" x2="211" y1="225" y2="225" /><line x1="211" x2="211" y1="225" y2="191" /><line x1="211" x2="211" y1="191" y2="122" /><line x1="211" x2="73" y1="122" y2="122" /><line x1="73" x2="73" y1="122" y2="206" /><line x1="73" x2="178" y1="206" y2="206" /><line x1="178" x2="217" y1="206" y2="206" /><line x1="217" x2="179" y1="206" y2="206" /><line x1="179" x2="179" y1="206" y2="213" /><line x1="179" x2="179" y1="213" y2="241" /><line x1="179" x2="192" y1="241" y2="241" /><line x1="192" x2="96" y1="241" y2="241" /><line x1="96" x2="151" y1="241" y2="241" /><line x1="151" x2="23" y1="241" y2="241" /><line x1="23" x2="23" y1="241" y2="0" /><line x1="23" x2="19" y1="0" y2="0" /><line x1="19" x2="19" y1="0" y2="88" /><line x1="19" x2="19" y1="88" y2="228" /><line x1="19" x2="19" y1="228" y2="214" /><line x1="19" x2="241" y1="214" y2="214" /><line x1="241" x2="0" y1="214" y2="214" /><line x1="0" x2="80" y1="214" y2="214" /><line x1="80" x2="80" y1="214" y2="204" /><line x1="80" x2="80" y1="204" y2="227" /><line x1="80" x2="80" y1="227" y2="227" /><line x1="80" x2="205" y1="227" y2="227" /><line x1="205" x2="128" y1="227" y2="227" /><line x1="128" x2="128" y1="227" y2="135" /><line x1="128" x2="95" y1="135" y2="135" /><line x1="95" x2="226" y1="135" y2="135" /><line x1="226" x2="226" y1="135" y2="75" /><line x1="226" x2="50" y1="75" y2="75" /><line x1="50" x2="50" y1="75" y2="214" /><line x1="50" x2="50" y1="214" y2="167" /><line x1="50" x2="50" y1="167" y2="216" /><line x1="50" x2="213" y1="216" y2="216" /><line x1="213" x2="213" y1="216" y2="191" /><line x1="213" x2="83" y1="191" y2="191" /><line x1="83" x2="95" y1="191" y2="191" /><line x1="95" x2="95" y1="191" y2="146" /><line x1="95" x2="212" y1="146" y2="146" /><line x1="212" x2="212" y1="146" y2="60" /><line x1="212" x2="100" y1="60" y2="60" /><line x1="100" x2="100" y1="60" y2="74" /><line x1="100" x2="100" y1="74" y2="108" /><line x1="100" x2="100" y1="108" y2="131" /><line x1="100" x2="114" y1="131" y2="131" /><line x1="114" x2="82" y1="131" y2="131" /><line x1="82" x2="82" y1="131" y2="191" /><line x1="82" x2="44" y1="191" y2="191" /><line x1="44" x2="58" y1="191" y2="191" /><line x1="58" x2="58" y1="191" y2="16" /><line x1="58" x2="58" y1="16" y2="239" /><line x1="58" x2="58" y1="239" y2="213" /><line x1="58" x2="167" y1="213" y2="213" /><line x1="167" x2="224" y1="213" y2="213" /><line x1="224" x2="109" y1="213" y2="213" /><line x1="109" x2="32" y1="213" y2="213" /><line x1="32" x2="32" y1="213" y2="89" /><line x1="32" x2="100" y1="89" y2="89" /><line x1="100" x2="100" y1="89" y2="124" /><line x1="100" x2="100" y1="124" y2="0" /><line x1="100" x2="100" y1="0" y2="111" /><line x1="100" x2="100" y1="111" y2="76" /><line x1="100" x2="205" y1="76" y2="76" /><line x1="205" x2="205" y1="76" y2="167" /><line x1="205" x2="205" y1="167" y2="185" /><line x1="205" x2="198" y1="185" y2="185" /><line x1="198" x2="198" y1="185" y2="215" /><line x1="198" x2="88" y1="215" y2="215" /><line x1="88" x2="88" y1="215" y2="231" /><line x1="88" x2="144" y1="231" y2="231" /><line x1="144" x2="144" y1="231" y2="124" /><line x1="144" x2="195" y1="124" y2="124" /><line x1="195" x2="191" y1="124" y2="124" /><line x1="191" x2="191" y1="124" y2="180" /><line x1="191" x2="57" y1="180" y2="180" /><line x1="57" x2="240" y1="180" y2="180" /><line x1="240" x2="121" y1="180" y2="180" /><line x1="121" x2="26" y1="180" y2="180" /><line x1="26" x2="13" y1="180" y2="180" /><line x1="13" x2="120" y1="180" y2="180" /><line x1="120" x2="120" y1="180" y2="51" /><line x1="120" x2="223" y1="51" y2="51" /><line x1="223" x2="223" y1="51" y2="207" /><line x1="223" x2="204" y1="207" y2="207" /><line x1="204" x2="220" y1="207" y2="207" /><line x1="220" x2="220" y1="207" y2="102" /><line x1="220" x2="81" y1="102" y2="102" /><line x1="81" x2="68" y1="102" y2="102" /><line x1="68" x2="68" y1="102" y2="177" /><line x1="68" x2="68" y1="177" y2="199" /><line x1="68" x2="77" y1="199" y2="199" /><line x1="77" x2="247" y1="199" y2="199" /><line x1="247" x2="166" y1="199" y2="199" /><line x1="166" x2="54" y1="199" y2="199" /><line x1="54" x2="54" y1="199" y2="149" /><line x1="54" x2="54" y1="149" y2="117" /><line x1="54" x2="183" y1="117" y2="117" /><line x1="183" x2="31" y1="117" y2="117" /><line x1="31" x2="109" y1="117" y2="117" /><line x1="109" x2="83" y1="117" y2="117" /><line x1="83" x2="220" y1="117" y2="117" /><line x1="220" x2="216" y1="117" y2="117" /><line x1="216" x2="216" y1="117" y2="192" /><line x1="216" x2="203" y1="192" y2="192" /><line x1="203" x2="162" y1="192" y2="192" /><line x1="162" x2="162" y1="192" y2="96" /><line x1="162" x2="162" y1="96" y2="10" /><line x1="162" x2="249" y1="10" y2="10" /><line x1="249" x2="249" y1="10" y2="174" /><line x1="249" x2="249" y1="174" y2="111" /><line x1="249" x2="48" y1="111" y2="111" /><line x1="48" x2="48" y1="111" y2="140" /><line x1="48" x2="48" y1="140" y2="43" /><line x1="48" x2="17" y1="43" y2="43" /><line x1="17" x2="17" y1="43" y2="202" /><line x1="17" x2="17" y1="202" y2="90" /><line x1="17" x2="17" y1="90" y2="138" /><line x1="17" x2="79" y1="138" y2="138" /><line x1="79" x2="179" y1="138" y2="138" /><line x1="179" x2="179" y1="138" y2="30" /><line x1="179" x2="101" y1="30" y2="30" /><line x1="101" x2="101" y1="30" y2="17" /><line x1="101" x2="109" y1="17" y2="17" /><line x1="109" x2="203" y1="17" y2="17" /><line x1="203" x2="171" y1="17" y2="17" /><line x1="171" x2="171" y1="17" y2="119" /><line x1="171" x2="171" y1="119" y2="14" /><line x1="171" x2="99" y1="14" y2="14" /><line x1="99" x2="99" y1="14" y2="96" /><line x1="99" x2="99" y1="96" y2="45" /><line x1="99" x2="99" y1="45" y2="70" /><line x1="99" x2="99" y1="70" y2="87" /><line x1="99" x2="24" y1="87" y2="87" /><line x1="24" x2="38" y1="87" y2="87" /><line x1="38" x2="163" y1="87" y2="87" /><line x1="163" x2="163" y1="87" y2="132" /><line x1="163" x2="163" y1="132" y2="139" /><line x1="163" x2="163" y1="139" y2="201" /><line x1="163" x2="163" y1="201" y2="189" /><line x1="163" x2="163" y1="189" y2="231" /><line x1="163" x2="163" y1="231" y2="160" /><line x1="163" x2="115" y1="160" y2="160" /><line x1="115" x2="115" y1="160" y2="26" /><line x1="115" x2="115" y1="26" y2="173" /><line x1="115" x2="196" y1="173" y2="173" /><line x1="196" x2="161" y1="173" y2="173" /><line x1="161" x2="161" y1="173" y2="55" /><line x1="161" x2="75" y1="55" y2="55" /><line x1="75" x2="75" y1="55" y2="139" /><line x1="75" x2="75" y1="139" y2="144" /><line x1="75" x2="12" y1="144" y2="144" /><line x1="12" x2="12" y1="144" y2="129" /><line x1="12" x2="12" y1="129" y2="46" /><line x1="12" x2="12" y1="46" y2="233" /><line x1="12" x2="12" y1="233" y2="201" /><line x1="12" x2="12" y1="201" y2="141" /><line x1="12" x2="41" y1="141" y2="141" /><line x1="41" x2="41" y1="141" y2="29" /><line x1="41" x2="41" y1="29" y2="172" /><line x1="41" x2="27" y1="172" y2="172" /><line x1="27" x2="19" y1="172" y2="172" /><line x1="19" x2="19" y1="172" y2="143" /><line x1="19" x2="73" y1="143" y2="143" /><line x1="73" x2="73" y1="143" y2="104" /><line x1="73" x2="73" y1="104" y2="9" /><line x1="73" x2="73" y1="9" y2="109" /><line x1="73" x2="73" y1="109" y2="0" /><line x1="73" x2="73" y1="0" y2="236" /><line x1="73" x2="73" y1="236" y2="30" /><line x1="73" x2="73" y1="30" y2="234" /><line x1="73" x2="73" y1="234" y2="71" /><line x1="73" x2="136" y1="71" y2="71" /><line x1="136" x2="92" y1="71" y2="71" /><line x1="92" x2="92" y1="71" y2="9" /><line x1="92" x2="196" y1="9" y2="9" /><line x1="196" x2="196" y1="9" y2="80" /><line x1="196" x2="196" y1="80" y2="239" /><line x1="196" x2="173" y1="239" y2="239" /><line x1="173" x2="173" y1="239" y2="96" /><line x1="173" x2="173" y1="96" y2="173" /><line x1="173" x2="146" y1="173" y2="173" /><line x1="146" x2="223" y1="173" y2="173" /><line x1="223" x2="116" y1="173" y2="173" /><line x1="116" x2="209" y1="173" y2="173" /><line x1="209" x2="209" y1="173" y2="82" /><line x1="209" x2="209" y1="82" y2="115" /><line x1="209" x2="69" y1="115" y2="115" /><line x1="69" x2="187" y1="115" y2="115" /><line x1="187" x2="187" y1="115" y2="99" /><line x1="187" x2="187" y1="99" y2="229" /><line x1="187" x2="172" y1="229" y2="229" /><line x1="172" x2="172" y1="229" y2="16" /><line x1="172" x2="75" y1="16" y2="16" /><line x1="75" x2="123" y1="16" y2="16" /><line x1="123" x2="123" y1="16" y2="143" /><line x1="123" x2="123" y1="143" y2="153" /><line x1="123" x2="176" y1="153" y2="153" /><line x1="176" x2="176" y1="153" y2="25" /><line x1="176" x2="176" y1="25" y2="41" /><line x1="176" x2="74" y1="41" y2="41" /><line x1="74" x2="74" y1="41" y2="211" /><line x1="74" x2="32" y1="211" y2="211" /><line x1="32" x2="216" y1="211" y2="211" /><line x1="216" x2="216" y1="211" y2="109" /><line x1="216" x2="216" y1="109" y2="60" /><line x1="216" x2="92" y1="60" y2="60" /><line x1="92" x2="92" y1="60" y2="104" /><line x1="92" x2="52" y1="104" y2="104" /><line x1="52" x2="52" y1="104" y2="160" /><line x1="52" x2="219" y1="160" y2="160" /><line x1="219" x2="123" y1="160" y2="160" /></svg>