<?xml version="1.0" encoding="utf-8" ?>
<svg baseProfile="tiny" fill="none" height="300" stroke="black" stroke-opacity="1.0" stroke-width="0.5" version="1.2" width="300" xmlns="http://www.w3.org/2000/svg" xmlns:ev="http://www.w3.org/2001/xml-events" xmlns:xlink="http://www.w3.org/1999/xlink"><defs /><line x1="80" x2="80" y1="50" y2="53" /><line x1="80" x2="245" y1="53" y2="53" /><line x1="245" x2="245" y1="53" y2="64" /><line x1="245" x2="245" y1="64" y2="34" /><line x1="245" x2="241" y1="34" y2="34" /><line x1="241" x2="241" y1="34" y2="194" /><line x1="241" x2="241" y1="194" y2="147" /><line x1="241" x2="120" y1="147" y2="147" /><line x1="120" x2="120" y1="147" y2="186" /><line x1="120" x2="205" y1="186" y2="186" /><line x1="205" x2="205" y1="186" y2="227" /><line x1="205" x2="205" y1="227" y2="67" /><line x1="205" x2="205" y1="67" y2="57" /><line x1="205" x2="128" y1="57" y2="57" /><line x1="128" x2="38" y1="57" y2="57" /><line x1="38" x2="38" y1="57" y2="88" /><line x1="38" x2="120" y1="88" y2="88" /><line x1="120" x2="65" y1="88" y2="88" /><line x1="65" x2="65" y1="88" y2="192" /><line x1="65" x2="40" y1="192" y2="192" /><line x1="40" x2="40" y1="192" y2="51" /><line x1="40" x2="40" y1="51" y2="60" /><line x1="40" x2="13" y1="60" y2="60" /><line x1="13" x2="165" y1="60" y2="60" /><line x1="165" x2="100" y1="60" y2="60" /><line x1="100" x2="152" y1="60" y2="60" /><line x1="152" x2="158" y1="60" y2="60" /><line x1="158" x2="158" y1="60" y2="110" /><line x1="158" x2="3" y1="110" y2="110" /><line x1="3" x2="186" y1="110" y2="110" /><line x1="186" x2="186" y1="110" y2="162" /><line x1="186" x2="226" y1="162" y2="162" /><line x1="226" x2="26" y1="162" y2="162" /><line x1="26" x2="26" y1="162" y2="30" /><line x1="26" x2="177" y1="30" y2="30" /><line x1="177" x2="177" y1="30" y2="50" /><line x1="177" x2="177" y1="50" y2="71" /><line x1="177" x2="200" y1="71" y2="71" /><line x1="200" x2="207" y1="71" y2="71" /><line x1="207" x2="207" y1="71" y2="82" /><line x1="207" x2="207" y1="82" y2="65" /><line x1="207" x2="207" y1="65" y2="37" /><line x1="207" x2="78" y1="37" y2="37" /><line x1="78" x2="78" y1="37" y2="220" /><line x1="78" x2="56" y1="220" y2="220" /><line x1="56" x2="56" y1="220" y2="59" /><line x1="56" x2="234" y1="59" y2="59" /><line x1="234" x2="107" y1="59" y2="59" /><line x1="107" x2="84" y1="59" y2="59" /><line x1="84" x2="195" y1="59" y2="59" /><line x1="195" x2="195" y1="59" y2="194" /></svg>