<?xml version="1.0" encoding="utf-8" ?>
<svg baseProfile="tiny" fill="none" height="500" stroke="black" stroke-opacity="1.0" stroke-width="0.5" version="1.2" width="500" xmlns="http://www.w3.org/2000/svg" xmlns:ev="http://www.w3.org/2001/xml-events" xmlns:xlink="http://www.w3.org/1999/xlink"><defs /><polyline points="369,294 369,274 335,274 488,274 488,296 189,296 189,112 228,112 228,50 228,484 185,484 183,484 168,484 239,484 318,484 215,484 285,484 194,484 315,484 215,484 215,222 215,52 215,338 376,338 452,338 454,338 448,338 239,338 239,75 119,75 119,307 284,307 284,436 176,436 176,264 176,134 113,134 137,134 125,134 125,297 428,297 363,297 66,297 449,297 67,297 67,80 67,98 67,147 67,172 425,172 375,172 375,207 375,421 163,421 163,104 163,81 163,105 163,442 163,415 163,191 163,272 144,272 144,262 144,209 407,209 468,209 166,209 166,154 433,154 249,154 249,211 141,211 141,34 141,343 367,343 464,343 464,191 464,208 439,208 439,332 439,266 268,266 403,266 403,221 403,217 493,217 424,217 12,217 151,217 20,217 458,217 130,217 219,217 219,274 219,230 219,8 219,243 144,243 144,190 187,190 187,15 248,15 306,15 306,154 121,154 135,154 367,154 375,154 106,154 106,332 382,332 225,332 383,332 383,236 383,251 383,105 342,105 155,105 412,105 412,157 412,174 59,174 348,174 367,174 367,261 221,261 221,319 221,22 165,22 165,415 89,415 89,418 216,418 310,418 310,117 310,68 310,303 176,303 176,233 44,233 429,233 220,233 190,233 213,233 213,138 213,389 213,317 405,317 405,331 405,310 49,310 49,361 297,361 131,361 415,361 27,361 27,185 27,154 27,145 294,145 294,473 358,473 358,49 198,49 198,241 418,241 418,376 418,327 418,71 418,147 418,189 406,189 318,189 318,88 373,88 373,428 373,40 373,230 469,230 488,230 93,230 247,230 247,290 247,5 247,390 247,274 430,274 430,331 430,94 246,94 216,94 216,366 256,366 439,366 439,210 449,210 248,210 248,103 281,103 281,44 162,44 162,125 162,327 205,327 205,121 205,66 205,377 134,377 283,377 260,377 260,46 375,46 375,100 375,105 395,105 395,165 395,344 395,421 395,151 248,151 248,362 248,378 370,378 125,378 398,378 398,406 271,406 271,410 139,410 139,471 139,410 146,410 146,355 146,245 146,289 330,289 35,289 35,206 35,250 35,367 372,367 163,367 163,60 163,357 163,402 163,117 163,310 135,310 135,417 408,417 238,417 78,417 78,114 78,159 78,335 248,335 248,113 248,72 248,331 248,138 121,138 121,186 121,309 121,378 121,242 121,297 451,297 451,301 485,301 396,301 162,301 162,25 300,25 176,25 176,368 199,368 199,232 127,232 127,241 281,241 406,241 285,241 221,241 325,241 325,140 180,140 294,140 294,256 294,296 16,296 85,296 126,296 126,346 224,346 224,177 162,177 162,354 162,169 283,169 480,169 228,169 228,164 154,164 154,443 391,443 349,443 349,238 349,218 485,218 416,218 241,218 241,253 241,154 241,367 241,189 120,189 120,335 120,285 120,427 120,406 120,77 120,55 120,171 13,171 13,265 13,248 187,248 125,248 125,314 125,411 125,325 249,325 249,51 249,156 249,17 311,17 171,17 266,17 266,279 87,279 87,412 354,412 354,121 354,469 315,469 292,469 292,30 366,30 366,421 366,63 123,63 123,78 364,78 96,78 90,78 255,78 355,78 283,78 283,324 283,375 382,375 382,342 382,272 382,123 331,123 458,123 110,123 110,50 315,50 352,50 352,453 352,261 352,148 407,148 193,148 193,453 193,346 42,346 262,346 373,346 373,417 373,149 77,149 77,341 77,105 77,168 77,89 130,89 130,128 130,260 255,260 255,472 255,346 98,346 365,346 365,230 284,230 68,230 494,230 494,202 182,202 182,278 177,278 67,278 180,278 180,172 180,173 183,173 183,479 183,449 183,363 251,363 251,433 155,433 155,165 188,165 245,165 245,151 245,396 245,82 163,82 163,191 262,191 80,191 362,191 443,191 23,191 227,191 175,191 175,225 291,225 294,225 294,311 294,108 254,108 102,108 176,108 392,108 392,275 324,275 145,275 145,228 145,109 51,109 51,331 181,331 181,272 181,139 181,125 50,125 382,125 382,127 382,54 382,153 382,79 382,252 127,252 127,175 261,175 86,175 86,208 86,185 86,265 86,115 178,115 178,338 178,392 178,23 306,23 329,23 265,23 265,127 243,127 90,127 339,127 339,352 339,34 201,34 201,23 203,23 146,23 146,419 146,59 146,263 362,263 321,263 321,251 321,230 321,59 150,59 150,469 314,469 314,223 314,477 326,477 326,72 326,384 326,320 326,393 225,393 225,350 225,74 323,74 323,301 435,301 435,277 435,353 435,259 150,259 150,302 199,302 199,404 199,209 199,123 455,123 455,272 455,226 455,121 455,216 455,257 455,153 463,153 128,153 371,153 371,408 118,408 330,408 330,419 324,419 324,277 324,156 285,156 270,156 189,156 67,156 324,156 333,156 335,156 378,156 132,156 427,156 427,123 427,131 78,131 78,204 78,199 172,199 172,273 172,435 189,435 189,383 189,440 189,368 189,409 189,421 387,421 157,421 157,240 398,240 398,426 303,426 303,74 303,88 303,442 303,419 303,322 286,322 286,175 89,175 171,175 449,175 449,393 449,365 449,320 215,320 208,320 409,320 409,67 346,67 357,67 357,430 187,430 137,430 122,430 122,290 442,290 439,290 191,290 191,226 191,228 332,228 332,475 332,147 38,147 416,147 58,147 408,147 408,343 408,289 408,289 358,289 95,289 95,89 95,259 30,259 30,150 30,268 30,308 30,283 127,283 57,283 57,137 57,113 57,293 57,358 171,358 76,358 465,358 465,197 465,277 463,277 463,277 301,277 52,277 52,356 322,356 422,356 422,413 422,404 55,404 55,385 55,137 55,130 456,130 206,130 265,130 267,130 267,168 14,168 461,168 461,149 395,149 70,149 396,149 396,427 393,427 393,416 173,416 173,207 466,207 466,321 378,321 212,321 307,321 307,437 267,437 267,330 21,330 455,330 220,330 220,338 224,338 224,222 224,231 224,112 224,247 224,43 224,372 224,251 422,251 422,252 422,227 422,264 334,264 84,264 84,376 84,249 357,249 357,100 357,113 215,113 347,113 154,113 250,113 398,113 433,113 179,113 173,113 327,113 327,201 194,201 194,165 194,314 490,314 490,293 490,208 490,284 436,284 436,291 26,291 26,356 337,356 124,356 124,310 124,389 124,403 124,156 124,197 265,197 346,197 346,134 346,458 346,242 396,242 45,242 45,365 290,365 290,241 290,12 290,353 388,353 368,353 421,353 241,353 241,62 311,62 311,483 311,70 311,283 476,283 232,283 175,283 282,283 282,266 282,24 285,24 285,438 285,92 227,92 355,92 355,216 355,449 391,449 391,358 380,358 380,250 200,250 254,250 254,127 254,36 254,191 364,191 364,379 364,258 222,258 193,258 193,320 278,320 156,320 156,159 156,35 156,444 156,280 471,280 128,280 128,461 333,461 333,209 257,209 416,209 184,209 435,209 292,209 292,104 431,104 431,321 431,363 461,363 461,339 461,235 190,235 425,235 425,302 425,74 167,74 309,74 342,74 116,74 116,89 367,89 427,89 304,89 103,89 268,89 268,329 268,493 268,101 268,16 268,468 268,495 237,495 207,495 207,194 207,232 207,187 207,276 392,276 392,366 392,140 392,64 371,64 371,287 62,287 232,287 232,246 156,246 156,254 308,254 308,271 308,190 408,190 408,331 408,380 408,250 408,344 408,110 146,110 399,110 399,433 399,197 133,197 133,91 133,86 210,86 399,86 399,200 473,200 473,181 212,181 212,215 167,215 167,368 167,315 348,315 435,315 206,315 407,315 386,315 386,76 386,122 386,455 386,58 214,58 389,58 128,58 128,51 128,94 128,416 175,416 72,416 421,416 421,258 421,392 209,392 209,83 209,336 267,336 351,336 465,336 374,336 374,253 121,253 121,456 232,456 232,238 232,31 232,200 232,248 283,248 283,295 283,239 283,8 283,428 166,428 75,428 75,272 75,426 75,379 445,379 445,196 257,196 257,402 391,402 342,402 279,402 279,346 179,346 179,313 471,313 383,313 383,288 383,302 383,375 437,375 437,206 437,379 437,199 437,244 24,244 24,183 24,254 24,272 24,278 24,313 295,313 343,313 343,451 330,451 162,451 162,320 247,320 183,320 487,320 487,237 150,237 150,147 150,334 150,465 343,465 343,95 343,147 92,147 92,366 187,366 187,450 187,113 81,113 411,113 411,256 455,256 221,256 221,463 221,52 136,52 351,52 388,52 388,416 388,48 388,51 300,51 300,45 300,355 364,355 56,355 56,184 184,184 479,184 479,273 343,273 343,276 267,276 267,164 267,488 267,281 267,457 267,283 267,81 267,8 267,268 267,168 349,168 120,168 120,70 120,416 120,151 120,292 450,292 457,292 457,243 457,307 383,307 153,307 383,307 394,307 225,307 337,307 337,116 355,116 246,116 307,116 90,116 62,116 62,314 62,106 62,340 62,108 62,379 62,187 121,187 16,187 16,277 493,277 493,303 358,303 387,303 387,321 387,279 387,400 387,354 387,221 216,221 101,221 101,154 377,154 119,154 302,154 302,224 37,224 37,281 37,124 303,124 303,362 227,362 227,149 96,149 96,124 96,344 208,344 367,344 367,50 367,54 367,79 167,79 249,79 432,79 432,90 432,347 434,347 434,397 135,397 135,184 256,184 256,296 256,85 67,85 67,246 272,246 81,246 492,246 492,290 492,200 492,246 492,237 492,305 492,201 492,236 492,189 134,189 124,189 459,189 459,360 327,360 188,360 188,163 423,163 393,163 152,163 371,163 80,163 80,385 80,108 74,108 74,90 430,90 352,90 352,125 352,302 415,302 189,302 17,302 17,214 17,287 17,303 17,295 17,263 381,263 381,155 381,226 381,134 59,134 59,198 31,198 31,330 31,309 209,309 232,309 240,309 240,458 240,369 285,369 285,227 285,69 407,69 407,312 307,312 307,412 307,129 307,328 307,389 409,389 384,389 384,153 384,433 155,433 155,199 179,199 166,199 184,199 151,199 354,199 34,199 400,199 400,306 76,306 181,306 181,153 238,153 145,153 146,153 146,427 104,427 81,427 239,427 239,404 239,408 155,408 134,408 208,408 189,408 226,408 196,408 196,256 399,256 399,168 61,168 61,318 61,175 61,276 61,388 61,115 61,306 61,184 285,184 285,66 285,371 285,302 383,302 253,302 394,302 290,302 93,302 93,243 93,164 70,164 447,164 134,164 149,164 149,133 230,133 271,133 271,164 271,454 176,454 176,255 327,255 327,95 327,363 327,388 327,172 327,301 327,132 327,230 327,61 370,61 370,443 390,443 390,291 390,283 172,283 375,283 375,239 40,239 40,204 40,226 40,371 40,139 53,139 466,139 176,139 226,139 226,161 265,161 265,321 265,163 299,163 476,163 203,163 203,145 64,145 382,145 382,133 382,425 382,258 273,258 440,258 194,258 299,258 299,83 399,83 353,83 366,83 311,83 311,439 311,89 311,264 327,264 92,264 92,169 338,169 105,169 138,169 260,169 318,169 318,226 318,432 390,432 390,261 390,218 390,366 283,366 283,446 360,446 360,178 360,449 228,449 228,382 150,382 150,124 150,215 272,215 92,215 114,215 23,215 247,215 98,215 98,84 136,84 167,84 239,84 275,84 275,478 275,348 275,160 383,160 172,160 172,453 172,38 172,198 172,411 220,411 220,448 378,448 378,142 367,142 367,247 110,247 110,85 120,85 120,128 120,400 120,102 339,102 339,203 60,203 325,203 73,203 113,203 113,312 250,312 256,312 200,312 108,312 252,312 252,101 441,101 216,101 216,405 216,278 216,203 216,433 115,433 243,433 344,433 344,297 344,417 270,417 270,201 75,201 75,278 75,111 75,339 357,339 357,273 357,266 357,421 376,421 102,421 102,330 89,330 377,330 377,143 408,143 417,143 417,430 162,430 346,430 156,430 278,430 218,430 304,430 317,430 240,430 240,46 240,454 328,454 328,446 328,300 328,94 328,37 236,37 337,37 337,123 433,123 433,264 433,383 160,383 160,478 195,478 322,478 304,478 333,478 240,478 241,478 345,478 150,478 243,478 332,478 332,52 332,26 332,335 371,335 371,308 465,308 317,308 167,308 114,308 319,308 319,276 278,276 450,276 450,324 450,225 246,225 420,225 395,225 395,255 395,409 365,409 104,409 104,346 104,118 323,118 323,278 210,278 472,278 395,278 395,62 395,309 86,309 86,69 86,366 86,184 86,122 203,122 203,155 203,376 154,376 239,376 239,230 239,169 239,189 239,206 239,79 239,347 21,347 21,271 485,271 485,250 485,166 485,170 485,184 485,167 80,167 233,167 233,295 233,148 316,148 316,437 243,437 298,437 90,437 367,437 367,386 135,386 150,386 150,109 221,109 84,109 221,109 221,145 221,432 172,432 138,432 188,432 188,353 188,71 188,105 188,356 390,356 390,306 468,306 365,306 417,306 417,245 417,82 241,82 241,25 357,25 357,334 145,334 427,334 427,135 138,135 278,135 278,389 65,389 96,389 377,389 377,423 377,285 377,158 54,158 54,293 54,233 148,233 148,102 215,102 399,102 254,102 254,495 254,84 415,84 415,349 415,330 395,330 395,301 275,301 275,34 305,34 313,34 164,34 164,392 208,392 290,392 290,204 290,201 397,201 397,64 397,178 112,178 375,178 375,59 141,59 293,59 409,59 102,59 102,384 54,384 271,384 271,175 271,90 157,90 157,193 18,193 18,223 18,328 221,328 221,115 418,115 391,115 391,185 343,185 343,210 69,210 69,372 69,163 69,325 69,243 411,243 411,246 420,246 420,105 180,105 180,483 180,284 54,284 54,263 54,402 54,186 314,186 227,186 227,149 227,117 227,229 227,6 269,6 269,200 383,200 383,97 90,97 90,105 200,105 360,105 175,105 175,370 164,370 202,370 202,403 202,232 202,192 202,343 79,343 79,239 438,239 477,239 261,239 261,463 126,463 126,397 191,397 58,397 365,397 365,387 365,145 365,56 365,318 83,318 83,373 83,364 83,336 356,336 356,76 356,222 255,222 255,183 255,274 487,274 487,177 203,177 203,278 478,278 478,258 268,258 268,175 328,175 328,210 112,210 112,209 266,209 334,209 334,347 148,347 148,162 148,196 148,180 148,442 257,442 165,442 165,45 165,402 165,234 54,234 78,234 78,380 263,380 263,75 263,259 263,160 339,160 450,160 120,160 263,160 183,160 267,160 267,423 309,423 206,423 206,493 206,467 206,94 206,404 336,404 336,213 336,110 336,290 107,290 240,290 240,422 240,92 314,92 314,63 309,63 309,479 309,412 309,448 309,261 309,331 431,331 435,331 77,331 77,116 77,95 131,95 131,106 78,106 78,71 200,71 200,248 262,248 262,375 463,375 41,375 67,375 67,232 67,256 67,294 67,231 67,211 67,200 67,299 67,148 67,117 235,117 253,117 115,117 236,117 236,229 152,229 407,229 117,229 262,229 63,229 63,97 63,133 63,366 63,216 63,90 196,90 196,451 196,54 196,301 60,301 424,301 424,332 424,258 424,160 428,160 17,160 213,160 213,64 365,64 347,64 347,323 41,323 86,323 86,231 357,231 357,419 308,419 122,419 273,419 375,419 245,419 245,421 180,421 180,470 180,107 180,232 36,232 36,141 36,189 36,137 36,187 36,297 87,297 87,387 165,387 165,298 269,298 269,323 269,366 269,125 269,416 269,193 299,193 299,140 299,465 299,220 299,368 299,108 283,108 267,108 452,108 452,133 452,384 452,316 452,177 452,150 452,394 69,394 78,394 78,289 453,289 453,136 453,351 288,351 219,351 219,452 135,452 135,163 252,163 453,163 453,360 453,320 430,320 430,185 430,332 206,332 473,332 473,270 473,276 473,341 19,341 19,206 19,305 58,305 79,305 73,305 189,305 189,33 189,106 351,106 351,272 376,272 267,272 267,94 267,394 267,434 297,434 196,434 196,241 196,298 196,168 196,61 174,61 174,294 174,88 174,419 115,419 115,301 106,301 106,208 482,208 434,208 434,300 434,285 225,285 136,285 136,358 396,358 390,358 368,358 428,358 413,358 167,358 151,358 151,241 333,241 348,241 348,447 206,447 360,447 352,447 336,447 336,142 182,142 182,329 182,215 182,20 182,275 95,275 287,275 287,17 246,17 292,17 204,17 204,234 267,234 345,234 167,234 194,234 298,234 298,397 298,191 298,16 298,67 298,35 298,83 182,83 182,64 182,101 444,101 236,101 111,101 227,101 227,334 16,334 68,334 101,334 118,334 118,240 191,240 191,297 69,297 74,297 74,253 74,241 74,243 492,243 208,243 208,483 208,176 30,176 294,176 294,134 294,335 294,356 294,159 465,159 465,228 435,228 435,102 435,352 435,355 54,355 54,109 289,109 289,147 213,147 213,405 213,405 73,405 73,408 219,408 189,408 189,44 222,44 243,44 192,44 192,472 192,33 349,33 306,33 189,33 189,209 189,265 189,43 155,43 257,43 257,170 257,268 241,268 383,268 383,416 383,366 296,366 296,296 10,296 10,205 10,219 10,269 188,269 188,329 188,197 188,137 296,137 97,137 97,266 158,266 282,266 282,80 282,376 282,376 282,343 178,343 178,195 178,98 178,466 178,415 130,415 130,109 130,262 435,262 435,133 292,133 272,133 372,133 62,133 62,365 62,267 62,309 62,196 62,97 62,147 300,147 300,241 63,241 63,94 63,158 63,191 63,157 108,157 56,157 208,157 208,110 208,395 208,400 208,271 208,334 208,170 208,378 116,378 325,378 325,37 138,37 259,37 259,280 232,280 232,313 232,14 232,371 209,371 209,442 148,442 395,442 395,292 76,292 76,414 76,114 76,191 232,191 232,221 232,350 232,45 232,390 192,390 387,390 333,390 250,390 80,390 167,390 280,390 48,390 387,390 387,281 387,179 387,284 160,284 160,379 160,339 160,464 160,482 160,207 160,251 86,251 86,173 86,299 361,299 160,299 160,20 160,75 119,75 268,75 132,75 400,75 286,75 284,75 226,75 226,244 226,476 210,476 352,476 219,476 177,476 177,280 177,300 177,333 326,333 316,333 316,20 316,221 316,425 316,81 316,101 265,101 293,101 76,101 317,101 58,101 58,308 58,126 58,364 463,364 55,364 307,364 307,221 169,221 199,221 199,105 417,105 417,206 417,83 417,203 211,203 336,203 447,203 76,203 365,203 365,45 365,446 157,446 312,446 312,343 312,84 334,84 172,84 172,89 153,89 153,169 153,189 402,189 473,189 473,358 436,358 370,358 99,358 99,414 99,400 99,346 99,268 9,268 9,308 368,308 219,308 219,332 379,332 379,288 130,288 385,288 385,213 269,213 413,213 413,250 413,192 262,192 247,192 247,361 235,361 235,284 235,332 235,8 234,8 295,8 295,463 295,397 191,397 191,14 191,174 191,269 255,269 12,269 12,292 66,292 66,132 66,323 344,323 14,323 289,323 289,462 251,462 376,462 334,462 258,462 380,462 354,462 354,94 354,429 354,128 354,191 354,423 354,416 259,416 259,452 142,452 385,452 385,45 385,287 385,73 260,73 260,235 63,235 69,235 291,235 490,235 490,214 37,214 37,198 365,198 231,198 231,120 231,425 286,425 286,276 286,292 220,292 220,264 220,389 103,389 103,204 103,425 103,382 280,382 197,382 407,382 204,382 364,382 185,382 185,357 185,398 131,398 131,98 131,315 131,168 131,249 131,369 131,108 60,108 45,108 365,108 365,194 365,100 365,183 470,183 470,181 470,332 470,169 470,275 492,275 492,238 492,251 49,251 334,251 212,251 212,282 452,282 173,282 173,264 173,23 214,23 214,210 214,79 214,457 214,149 125,149 370,149 370,66 375,66 375,278 411,278 411,59 347,59 370,59 370,444 370,383 117,383 117,434 413,434 194,434 159,434 387,434 387,345 387,341 293,341 364,341 364,458 364,362 95,362 95,237 95,289 433,289 239,289 239,227 239,460 272,460 256,460 229,460 229,378 107,378 344,378 185,378 404,378 271,378 419,378 237,378 272,378 272,361 272,337 272,37 272,345 272,427 272,42 272,198 272,479 272,317 434,317 131,317 131,143 131,352 440,352 323,352 63,352 63,115 63,93 63,243 63,189 12,189 461,189 244,189 244,239 244,214 244,171 244,340 153,340 236,340 301,340 189,340 189,398 446,398 446,374 446,186 108,186 108,359 96,359 200,359 200,137 200,237 200,359 200,467 306,467 306,296 306,99 321,99 361,99 270,99 73,99 103,99 318,99 284,99 284,284 284,194 427,194 168,194 168,374 168,403 168,386 222,386 222,364 222,170 222,354 222,303 222,23 222,320 282,320 26,320 288,320 288,274 72,274 173,274 173,367 173,149 173,392 173,149 445,149 246,149 246,141 246,212 226,212 144,212 27,212 373,212 22,212 211,212 211,339 211,226 211,104 277,104 277,214 277,357 347,357 348,357 208,357 120,357 236,357 236,38 315,38 315,230 315,283 87,283 287,283 259,283 370,283 159,283 259,283 241,283 241,296 241,250 241,248 241,208 33,208 384,208 238,208 448,208 136,208 189,208 189,86 189,405 336,405 336,448 336,279 336,213 491,213 349,213 458,213 126,213 98,213 397,213 178,213 210,213 210,124 69,124 183,124 450,124 249,124 249,346 60,346 281,346 142,346 263,346 263,327 263,224 421,224 421,332 399,332 399,321 76,321 171,321 171,260 171,368 354,368 354,99 173,99 173,260 173,190 179,190 179,461 179,46 179,398 366,398 366,255 366,34 366,322 366,302 470,302 294,302 294,345 294,175 294,137 104,137 104,137 165,137 165,374 87,374 133,374 133,321 232,321 232,42 232,48 232,301 444,301 444,276 444,304 444,115 444,368 444,146 444,348 338,348 61,348 61,405 371,405 117,405 117,218 117,376 117,256 252,256 252,183 319,183 319,15 212,15 281,15 281,400 421,400 449,400 176,400 176,438 176,16 176,478 176,366 280,366 325,366 436,366 365,366 63,366 63,186 63,145 63,274 63,275 63,181 63,381 63,415 63,301 69,301 16,301 16,304 16,187 16,229 16,281 16,165 16,327 16,186 16,265 16,270 16,299 203,299 203,132 124,132 124,63 124,138 278,138 278,32 278,167 198,167 198,44 198,138 187,138 187,130 339,130 394,130 394,189 394,425 394,300 79,300 423,300 423,425 195,425 413,425 413,403 299,403 299,468 267,468 267,461 267,106 409,106 409,340 176,340 176,99 176,371 192,371 329,371 214,371 214,118 214,183 47,183 47,351 47,182 125,182 293,182 293,155 293,456 153,456 341,456 341,293 341,328 341,291 341,381 242,381 457,381 457,132 457,316 216,316 216,466 323,466 323,339 20,339 83,339 83,297 83,291 485,291 151,291 151,112 151,441 153,441 153,460 153,307 371,307 371,204 94,204 199,204 199,437 128,437 128,394 384,394 384,209 384,427 122,427 122,446 122,69 247,69 247,362 247,74 407,74 407,267 98,267 298,267 391,267 391,142 391,99 242,99 306,99 306,337 57,337 57,328 18,328 18,158 221,158 156,158 204,158 88,158 88,150 359,150 50,150 50,229 261,229 261,57 261,62 186,62 186,359 186,437 392,437 392,280 392,329 392,163 122,163 467,163 467,265 321,265 418,265 195,265 244,265 244,11 239,11 177,11 274,11 206,11 269,11 269,256 122,256 469,256 480,256 78,256 78,321 112,321 343,321 399,321 399,350 399,157 399,107 399,305 399,69 399,230 446,230 228,230 266,230 266,253 266,113 65,113 65,359 65,128 65,95 280,95 280,217 489,217 489,298 134,298 134,118 315,118 233,118 456,118 456,250 456,275 336,275 185,275 185,412 196,412 99,412 99,59 135,59 135,122 135,61 199,61 118,61 360,61 360,393 354,393 212,393 99,393 99,337 99,260 65,260 65,205 65,305 202,305 309,305 309,488 316,488 207,488 207,29 207,273 280,273 387,273 387,388 387,242 387,276 226,276 226,305 226,151 105,151 404,151 149,151 149,128 149,269 351,269 284,269 284,458 139,458 144,458 310,458 182,458 184,458 184,360 315,360 37,360 37,328 243,328 137,328 226,328 246,328 177,328 175,328 248,328 248,37 334,37 334,125 334,431 334,102 173,102 173,56 179,56 126,56 126,461 126,208 351,208 405,208 405,368 405,203 447,203 447,252 447,138 447,252 447,283 447,201 29,201 29,199 158,199 141,199 377,199 318,199 299,199 166,199 166,150 181,150 181,247 181,469 322,469 322,337 169,337 169,92 169,247 477,247 477,219 11,219 415,219 349,219 349,271 349,57 134,57 134,441 134,169 86,169 199,169 240,169 240,470 240,79 240,234 416,234 229,234 229,76 267,76 267,55 267,473 267,179 267,290 197,290 197,306 197,490 197,215 112,215 112,114 112,114 112,369 112,278 390,278 390,429 390,136 268,136 346,136 408,136 199,136 239,136 437,136 437,206 437,334 437,245 19,245 19,226 437,226 338,226 294,226 415,226 10,226 117,226 375,226 209,226 195,226 195,52 195,92 195,385 411,385 411,99 332,99 332,183 73,183 73,229 73,411 73,142 222,142 222,69 348,69 348,376 348,197 305,197 305,119 305,489 305,486 305,99 305,183 126,183 265,183 70,183 70,218 70,223 86,223 365,223 365,293 218,293 218,405 58,405 58,188 58,392 58,158 232,158 64,158 64,363 394,363 181,363 181,217 374,217 285,217 285,271 64,271 275,271 275,67 275,388 275,232 287,232 287,386 312,386 134,386 54,386 370,386 370,118 370,336 398,336 465,336 469,336 238,336 238,428 376,428 131,428 131,265 131,42 351,42 182,42 182,482 182,147 182,183 182,451 264,451 264,499 228,499 228,373 211,373 211,287 211,147 211,342 211,232 211,202 211,84 211,330 211,290 134,290 134,196 134,412 134,68 405,68 216,68 248,68 248,396 145,396 145,408 424,408 424,365 424,173 424,260 424,396 159,396 401,396 401,265 401,409 401,124 285,124 285,318 285,278 285,391 285,72 285,157 285,291 285,366 321,366 155,366 155,122 383,122 383,346 383,71 264,71 196,71 411,71 411,151 200,151 449,151 462,151 462,238 462,157 462,277 462,325 462,321 65,321 65,356 65,306 65,238 258,238 258,155 258,232 258,193 486,193 486,235 160,235 160,151 160,230 432,230 422,230 422,356 422,191 147,191 457,191 178,191 237,191 237,406 237,66 108,66 108,55 264,55 264,293 315,293 70,293 70,402 238,402 238,63 238,27 350,27 286,27 292,27 292,310 292,324 314,324 360,324 360,126 312,126 312,377 90,377 90,236 475,236 81,236 266,236 299,236 140,236 476,236 476,299 476,327 409,327 288,327 185,327 185,312 185,71 185,479 185,90 266,90 266,155 223,155 294,155 294,115 83,115 83,174 83,77 166,77 125,77 125,135 125,105 301,105 69,105 69,110 427,110 449,110 65,110 65,311 65,344 429,344 294,344 394,344 215,344 215,97 215,4 281,4 281,225 281,86 281,328 281,3 281,31 281,478 281,326 281,227 281,115 281,365 281,152 332,152 303,152 303,93 232,93 72,93 266,93 266,192 426,192 386,192 307,192 307,132 45,132 45,116 432,116 410,116 236,116 434,116 82,116 82,242 334,242 334,306 334,69 334,472 231,472 231,468 175,468 268,468 163,468 207,468 207,198 240,198 283,198 162,198 162,475 162,75 275,75 275,325 275,180 275,488 205,488 205,375 205,374 205,416 205,242 258,242 37,242 37,270 37,326 238,326 238,444 287,444 287,431 287,116 287,129 458,129 335,129 335,464 127,464 196,464 369,464 369,101 173,101 314,101 321,101 202,101 202,74 128,74 117,74 376,74 376,318 70,318 12,318 12,310 401,310 346,310 121,310 121,347 121,168 260,168 321,168 363,168 363,332 340,332 467,332 307,332 367,332 389,332 109,332 77,332 251,332 251,51 251,279 251,319 287,319 254,319 254,371 254,180 133,180 170,180 323,180 323,419 323,447 323,171 323,58 323,448 323,63 105,63 105,339 105,61 403,61 178,61 253,61 253,94 253,155 253,375 253,138 253,212 310,212 310,147 310,106 61,106 61,383 45,383 45,214 127,214 127,454 247,454 247,168 60,168 251,168 251,457 251,286 251,96 251,439 251,165 251,184 282,184 282,98 321,98 321,262 461,262 461,333 257,333 94,333 185,333 370,333 370,229 370,162 370,414 370,69 374,69 374,369 369,369 369,97 369,167 458,167 458,315 432,315 432,357 432,246 409,246 409,351 409,211 409,305 205,305 65,305 288,305 288,335 137,335 129,335 301,335 213,335 427,335 427,412 427,406 427,208 243,208 183,208 183,318 183,307 183,310 130,310 459,310 459,129 267,129 212,129 164,129 140,129 220,129 340,129 340,207 176,207 176,305 130,305 408,305 408,355 453,355 453,139 453,173 275,173 401,173 401,368 434,368 434,144 434,162 113,162 113,354 228,354 352,354 129,354 461,354 316,354 79,354 79,186 279,186 416,186 461,186 461,178 461,332 298,332 167,332 59,332 59,265 243,265 243,113 362,113 362,327 362,447 362,345 126,345 387,345 248,345 249,345 283,345 125,345 125,272 328,272 123,272 123,172 399,172 332,172 332,445 323,445 323,322 68,322 68,113 68,218 12,218 18,218 18,298 18,333 219,333 219,394 219,134 93,134 460,134 117,134 117,397 450,397 452,397 163,397 113,397 49,397 246,397 246,197 246,230 266,230 266,459 295,459 181,459 151,459 151,72 151,321 151,52 361,52 306,52 300,52 300,389 300,487 273,487 323,487 267,487 260,487 260,416 260,321 379,321 468,321 468,202 92,202 188,202 157,202 157,331 157,28 157,469 157,393 157,137 433,137 195,137 283,137 449,137 449,123 449,333 449,381 337,381 446,381 446,244 239,244 239,282 257,282 213,282 105,282 105,373 105,58 105,375 105,314 105,158 83,158 83,294 111,294 111,224 111,214 111,53 135,53 278,53 278,92 180,92 164,92 164,369 297,369 397,369 397,209 397,153 216,153 420,153 38,153 38,298 272,298 272,498 272,209 48,209 48,256 48,283 48,112 48,114 48,152 48,295 48,155 48,282 48,206 48,335 48,266 333,266 303,266 303,470 303,103 228,103 445,103 445,196 252,196 261,196 147,196 147,435 167,435 318,435 98,435 257,435 257,431 257,224 407,224 407,219 407,361 320,361 320,377 320,72 375,72 375,443 306,443 306,448 306,354 306,172 375,172 366,172 167,172 114,172 436,172 436,129 436,87 288,87 303,87 303,274 205,274 205,19 205,249 205,277 205,459 189,459 384,459 384,364 263,364 445,364 78,364 113,364 113,201 251,201 356,201 60,201 60,314 233,314 91,314 240,314 240,140 240,241 240,183 189,183 472,183 472,244 472,312 17,312 17,224 214,224 214,58 406,58 311,58 311,289 114,289 345,289 259,289 399,289 399,420 95,420 95,165 200,165 200,248 200,11 200,397 133,397 218,397 218,21 218,187 218,233 455,233 451,233 451,334 451,127 451,343 27,343 300,343 375,343 117,343 117,99 437,99 437,196 226,196 425,196 425,202 425,182 384,182 151,182 151,410 151,242 211,242 211,261 211,108 415,108 415,84 202,84 201,84 323,84 323,459 323,266 323,210 323,246 132,246 384,246 324,246 82,246 347,246 347,259 308,259 307,259 307,137 307,287 307,52 307,323 307,219 307,358 343,358 343,130 343,239 183,239 70,239 70,106 70,136 231,136 283,136 283,192 429,192 429,303 418,303 418,229 418,243 261,243 19,243 468,243 468,302 109,302 398,302 281,302 281,459 292,459 160,459 182,459 182,93 387,93 387,147 387,117 114,117 114,71 99,71 271,71 329,71 329,409 329,190 329,107 329,402 314,402 186,402 186,376 186,418 70,418 69,418 150,418 144,418 144,343 174,343 378,343 378,380 378,44 298,44 298,394 298,331 298,138 214,138 288,138 288,263 288,470 288,435 326,435 326,304 326,192 378,192 38,192 38,296 318,296 110,296 283,296 283,25 358,25 358,29 302,29 139,29 342,29 342,330 342,237 353,237 353,386 154,386 391,386 348,386 348,288 348,315 95,315 455,315 455,329 455,216 455,245 311,245 311,108 179,108 304,108 202,108 175,108 175,383 231,383 231,88 231,120 231,313 231,256 231,59 267,59 267,457 267,49 283,49 135,49 135,450 135,215 135,458 135,242 135,176 242,176 182,176 217,176 217,444 217,480 347,480 285,480 285,315 414,315 369,315 353,315 353,155 324,155 74,155 266,155 266,286 266,119 345,119 345,87 422,87 179,87 328,87 328,26 328,394 328,473 328,410 328,420 219,420 375,420 375,168 430,168 430,263 430,217 430,405 430,318 166,318 199,318 196,318 196,25 196,39 265,39 242,39 242,18 242,263 242,189 242,462 160,462 290,462 290,120 121,120 346,120 346,455 346,133 428,133 161,133 231,133 291,133 165,133 165,256 165,243 165,243 165,377 165,430 239,430 383,430 383,450 383,346 383,308 383,436 89,436 89,212 376,212 245,212 245,116 201,116 454,116 327,116 327,262 327,434 93,434 93,372 93,177 55,177 55,189 32,189 453,189 366,189 366,215 109,215 109,272 109,213 109,71 323,71 365,71 88,71 276,71 154,71 154,178 287,178 287,31 287,181 369,181 369,88 297,88 297,486 191,486 253,486 217,486 264,486 284,486 186,486 186,293 186,180 186,445 103,445 376,445 138,445 311,445 249,445 249,485 262,485 262,471 262,51 191,51 191,318 191,100 191,339 191,206 282,206 301,206 317,206 317,134 313,134 313,151 28,151 28,204 270,204 270,132 270,402 77,402 77,227 77,360 77,376 77,340 77,81 77,321 124,321 32,321 443,321 443,194 443,157 78,157 222,157 222,287 222,116 262,116 249,116 249,473 249,453 228,453 228,312 351,312 96,312 167,312 167,406 430,406 335,406 364,406 364,402 364,332 132,332 132,417 132,410 132,251 76,251 485,251 138,251 416,251 416,205 416,115 416,293 145,293 145,417 311,417 272,417 416,417 416,217 106,217 440,217 440,274 440,221 440,296 336,296 82,296 82,376 406,376 332,376 332,280 365,280 414,280 455,280 455,322 455,272 455,188 455,214 455,319 455,386 135,386 424,386 43,386 43,216 43,365 66,365 66,185 66,349 66,283 66,370 42,370 42,120 42,330 42,146 37,146 58,146 82,146 82,221 82,176 234,176 211,176 143,176 143,25 298,25 298,422 373,422 373,391 60,391 60,164 290,164 175,164 175,408 138,408 138,80 138,364 138,88 138,162 138,78 272,78 254,78 254,103 253,103 442,103 434,103 419,103 419,168 415,168 415,80 415,350 366,350 52,350 52,223 465,223 465,140 465,258 150,258 110,258 54,258 54,350 191,350 191,491 191,333 191,138 213,138 213,254 468,254 468,202 468,240 59,240 6,240 18,240 18,338 18,308 18,251 31,251 349,251 152,251 215,251 215,399 118,399 118,394 118,150 179,150 179,25 345,25 325,25 254,25 277,25 348,25 348,425 348,423 348,417 102,417 316,417 310,417 145,417 145,229 145,31 354,31 354,262 180,262 180,346 286,346 209,346 450,346 339,346 339,136 339,475 297,475 332,475 302,475 302,330 241,330 241,493 241,299 241,137 434,137 434,198 434,304 377,304 377,150 435,150 281,150 281,428 164,428 164,43 173,43 314,43 314,410 261,410 261,114 180,114 180,29 180,410 180,257 62,257 62,376 345,376 160,376 160,371 450,371 450,169 16,169 385,169 219,169 180,169 57,169 95,169 23,169 171,169 440,169 415,169 415,338 173,338 199,338 199,330 114,330 114,235 95,235 95,118 95,172 95,357 111,357 430,357 70,357 70,176 70,145 331,145 331,239 188,239 162,239 247,239 277,239 277,11 297,11 297,244 297,7 213,7 213,107 213,130 465,130 465,358 465,327 465,257 465,355 465,309 240,309 413,309 115,309 115,458 146,458 146,320 146,266 202,266 202,105 266,105 266,341 266,404 220,404 220,204 220,35 220,316 220,126 300,126 300,30 248,30 248,364 178,364 277,364 141,364 374,364 374,150 374,376 413,376 413,372 413,252 413,91 413,231 413,106 413,202 429,202 245,202 245,102 261,102 195,102 159,102 159,62 341,62 249,62 268,62 268,253 268,297 16,297 314,297 314,429 314,485 330,485 330,222 145,222 145,49 145,160 224,160 267,160 465,160 465,246 465,273 465,247 465,128 137,128 131,128 131,150 131,33 150,33 166,33 172,33 324,33 309,33 309,127 309,270 309,383 283,383 45,383 45,113 397,113 42,113 279,113 279,418 333,418 333,418 333,417 272,417 212,417 212,336 172,336 53,336 101,336 69,336 69,398 400,398 196,398 196,167 278,167 332,167 18,167 91,167 336,167 336,40 319,40 345,40 182,40 306,40 203,40 203,120 418,120 199,120 199,396 446,396 111,396 111,63 111,298 111,394 200,394 363,394 161,394 161,471 161,76 295,76 242,76 335,76 335,463 335,423 201,423 227,423 202,423 385,423 367,423 367,112 99,112 380,112 380,219 472,219 472,219 75,219 283,219 90,219 90,152 447,152 447,106 447,165 418,165 457,165 372,165 372,134 372,359 136,359 121,359 68,359 102,359 439,359 439,87 281,87 160,87 242,87 242,68 124,68 124,186 55,186 30,186 153,186 153,189 153,460 142,460 142,182 142,108 206,108 396,108 396,382 396,222 74,222 22,222 267,222 267,190 456,190 456,337 456,324 456,269 374,269 374,394 374,228 270,228 270,465 270,394 161,394 161,225 161,310 161,413 161,422 161,207 161,266 161,360 161,326 301,326 170,326 170,120 170,181 170,65 170,157 170,455 184,455 346,455 114,455 200,455 200,173 200,381 200,278 213,278 213,404 103,404 103,178 382,178 382,57 382,132 52,132 441,132 441,170 441,219 441,352 307,352 307,452 307,453 140,453 140,233 385,233 391,233 33,233 33,227 355,227 43,227 158,227 273,227 273,216 52,216 52,331 248,331 109,331 109,445 109,401 366,401 383,401 402,401 253,401 325,401 325,163 325,189 226,189 226,253 226,259 226,206 226,362 159,362 471,362 471,167 206,167 272,167 272,473 272,122 446,122 446,198 137,198 137,387 444,387 444,268 370,268 370,240 370,139 111,139 142,139 142,179 204,179 268,179 404,179 389,179 389,168 137,168 214,168 214,476 345,476 345,184 251,184 184,184 204,184 204,269 204,66 204,382 350,382 369,382 359,382 382,382 382,256 382,99 382,271 382,283 382,316 382,208 382,289 382,399 382,291 382,450 128,450 137,450 215,450 187,450 187,371 333,371 295,371 115,371 115,448 109,448 177,448 177,261 113,261 361,261 253,261 437,261 254,261 387,261 387,448 387,71 97,71 97,83 227,83 227,217 431,217 431,320 113,320 68,320 68,233 371,233 371,247 397,247 397,451 397,450 397,344 397,185 397,300 397,423 397,159 127,159 127,238 127,378 379,378 379,408 379,105 202,105 402,105 108,105 389,105 389,343 389,188 168,188 157,188 157,99 297,99 297,331 340,331 340,456 306,456 306,45 300,45 362,45 362,280 221,280 376,280 376,334 376,42 382,42 382,443 311,443 311,405 206,405 206,32 206,442 116,442 116,288 348,288 391,288 413,288 276,288 276,24 276,279 400,279 317,279 317,315 317,148 317,143 171,143 171,434 312,434 312,477 206,477 235,477 346,477 239,477 239,279 239,95 206,95 206,429 206,341 241,341 449,341 68,341 47,341 47,142 76,142 475,142 190,142 182,142 182,378 400,378 400,168 83,168 83,78 83,176 447,176 447,139 139,139 139,312 78,312 184,312 184,404 184,340 184,251 184,90 236,90 382,90 427,90 427,288 221,288 221,356 221,466 221,331 221,203 302,203 49,203 49,235 335,235 335,142 243,142 243,269 241,269 392,269 392,454 201,454 245,454 159,454 159,170 412,170 412,403 412,132 412,181 412,132 105,132 105,348 102,348 102,68 124,68 124,311 479,311 479,262 479,214 479,272 479,218 242,218 244,218 337,218 360,218 360,267 87,267 87,261 193,261 391,261 391,129 391,163 391,433 258,433 258,475 328,475 328,298 88,298 88,156 345,156 345,368 345,296 265,296 320,296 131,296 131,120 131,285 131,139 418,139 418,412 169,412 86,412 431,412 113,412 224,412 224,145 232,145 232,239 232,111 232,223 296,223 296,202 486,202 251,202 251,363 251,473 251,417 251,412 61,412 271,412 92,412 92,300 92,375 92,118 132,118 113,118 47,118 318,118 168,118 398,118 398,235 460,235 460,324 460,291 93,291 273,291 273,98 273,21 273,411 273,477 228,477 277,477 277,382 277,33 355,33 286,33 286,403 174,403 174,53 394,53 394,426 93,426 414,426 75,426 333,426 333,33 333,262 63,262 63,207 63,301 63,310 63,174 443,174 179,174 179,337 179,13 280,13 280,100 280,119 280,106 280,242 280,8 280,414 280,430 206,430 206,214 11,214 88,214 88,263 88,71 88,344 88,320 88,224 233,224 158,224 14,224 389,224 389,252 389,456 245,456 245,318 155,318 217,318 460,318 373,318 373,391 51,391 51,115 236,115 236,90 424,90 422,90 422,266 422,271 170,271 170,330 170,18 170,407 149,407 149,357 149,470 195,470 324,470 327,470 344,470 323,470 323,269 323,450 225,450 374,450 160,450 160,145 140,145 362,145 362,188 362,457 375,457 110,457 170,457 170,109 122,109 196,109 312,109 90,109 90,66 86,66 86,116 86,407 241,407 241,253 132,253 58,253 308,253 308,157 308,167 185,167 185,290 84,290 342,290 342,465 342,182 342,420 290,420 290,186 290,70 271,70 143,70 143,86 438,86 438,249 406,249 187,249 13,249 13,231 167,231 210,231 210,436 400,436 358,436 358,284 421,284 421,176 421,369 421,162 228,162 179,162 179,309 179,164 179,96 325,96 325,462 377,462 371,462 164,462 164,264 164,271 164,268 61,268 368,268 128,268 128,212 128,93 128,270 128,461 128,257 128,332 128,87 407,87 230,87 230,434 419,434 144,434 257,434 155,434 155,375 382,375 382,54 263,54 263,305 263,222 263,343 273,343 230,343 230,5 230,272 195,272 124,272 158,272 158,255 420,255 420,231 456,231 133,231 190,231 9,231 135,231 135,263 135,448 129,448 129,200 66,200 424,200 424,214 424,393 118,393 118,384 118,462 118,151 118,333 215,333 379,333 226,333 226,65 226,77 275,77 275,118 425,118 425,423 73,423 73,292 73,367 73,150 73,394 173,394 173,473 173,486 183,486 183,489 260,489 260,403 110,403 160,403 240,403 142,403 142,160 142,426 142,306 142,306 52,306 52,333 52,295 270,295 270,215 270,259 270,297 270,284 270,203 270,360 270,268 270,378 270,438 270,289 426,289 222,289 443,289 443,101 166,101 144,101 144,37 213,37 230,37 230,343 412,343 345,343 313,343 357,343 38,343 272,343 272,437 398,437 398,166 398,118 398,369 392,369 392,110 392,406 392,332 318,332 318,205 295,205 295,141 295,259 295,61 295,270 175,270 255,270 381,270 76,270 76,385 76,159 76,144 76,340 76,341 242,341 416,341 416,102 416,169 389,169 28,169 28,349 327,349 327,345 327,55 327,226 327,94 327,76 137,76 300,76 156,76 176,76 176,443 176,268 251,268 251,251 251,49 251,438 251,251 332,251 323,251 323,327 13,327 398,327 401,327 101,327 101,155 101,384 101,120 101,345 101,372 101,240 194,240 100,240 100,338 100,325 318,325 26,325 103,325 266,325 275,325 430,325 236,325 236,488 236,221 428,221 103,221 103,208 103,287 103,317 103,261 9,261 332,261 498,261 20,261 20,160 20,308 481,308 481,184 481,252 481,322 467,322 467,352 467,221 467,295 361,295 361,71 361,288 356,288 399,288 399,101 399,327 399,57 230,57 230,60 325,60 325,180 325,486 325,75 325,460 325,452 252,452 392,452 392,116 392,226 392,134 126,134 397,134 353,134 379,134 379,389 109,389 196,389 196,25 265,25 269,25 261,25 259,25 259,181 21,181 153,181 153,447 153,472 153,443 153,299 195,299 343,299 343,316 343,170 343,311 343,375 417,375 117,375 117,409 72,409 72,219 407,219 237,219 364,219 395,219 395,149 72,149 72,152 72,324 473,324 473,217 221,217 221,474 221,460 251,460 332,460 297,460 297,343 297,225 297,31 297,494 225,494 275,494 275,270 275,413 275,91 255,91 255,396 255,492 256,492 256,367 369,367 393,367 50,367 396,367 385,367 153,367" /></svg>