<?xml version="1.0" encoding="utf-8" ?>
<svg baseProfile="tiny" fill="none" height="300" stroke="black" stroke-opacity="1.0" stroke-width="0.5" version="1.2" width="300" xmlns="http://www.w3.org/2000/svg" xmlns:ev="http://www.w3.org/2001/xml-events" xmlns:xlink="http://www.w3.org/1999/xlink"><defs /><polyline points="6,36 43,36 43,15 85,15 85,19 85,73 54,73 54,87 54,60 4,60 4,63 4,46 42,46 42,91 42,85 35,85 35,65 35,8 35,72 12,72 12,22 14,22 14,67 14,69 14,44 14,83 78,83 78,75 78,64 86,64 86,41 82,41 68,41 68,27 81,27 28,27 28,85 28,10 28,11 28,54 28,29 28,68 28,61 45,61 45,43 30,43 64,43 95,43 73,43 73,58 94,58 94,30 58,30 63,30 88,30 88,70 88,40 88,19 80,19 80,60 50,60 11,60 79,60 10,60 10,69 60,69 60,42 46,42 46,90 46,37 46,91 23,91 23,11 23,35 23,79 23,21 23,87 23,42 99,42 99,51 2,51 2,62 2,41 64,41 64,27 64,30 63,30 63,40 63,85 63,15 63,54 63,39 25,39 39,39 39,51 39,36 44,36 44,17 46,17 46,47 60,47 77,47 77,67 81,67 81,32 81,79 81,11 81,85 81,84 73,84 73,10 73,8 73,28 38,28 79,28 79,39 79,65 79,65 84,65 84,30 84,33 85,33 74,33 74,87 74,17 74,31 74,82 65,82 41,82 41,10 49,10 49,15 49,48 5,48 17,48 17,21 74,21 46,21 18,21 18,28 18,54 67,54 67,13 67,89 65,89 52,89 52,19 52,55 52,90 52,76 52,54 89,54 16,54 6,54 43,54 90,54 61,54 61,19 61,55 97,55 97,47 43,47 42,47 42,15 42,89 42,31 36,31 36,18 33,18 77,18 69,18 69,55 67,55 67,96 67,44 67,97 67,31 10,31 7,31 38,31 88,31 88,42 26,42 26,19 42,19 42,54 48,54 48,87 59,87 59,18 59,98 59,59 87,59 87,78 87,68 87,35 42,35 42,70 42,55 42,51 62,51 27,51 27,34 27,52 72,52 72,81 72,89 72,40 17,40 17,86 27,86 27,32 9,32 9,25 75,25 75,15 75,93 75,26 75,60 40,60 20,60 20,17 20,86 72,86 49,86 49,6 45,6 45,10 45,51 45,92 52,92 52,62 52,31 52,84 52,90 68,90 68,64 68,63 68,77 35,77 35,35 84,35 71,35 91,35 91,77 91,67 91,63 91,49 91,36 91,67 74,67 74,59 40,59 40,73 54,73 12,73 12,65 12,26 44,26 44,27 64,27 17,27 17,50 17,63 17,47 19,47 19,78 19,87 19,58 22,58 81,58 81,27 67,27 67,58 67,82 29,82 47,82 47,57 26,57 26,83 38,83 54,83 83,83 67,83 67,11 28,11 67,11 78,11 64,11 64,58 64,46 64,34 64,29 64,8 64,61 64,19 64,49 24,49 24,34 32,34 56,34 69,34 69,36 69,96 53,96 53,95 53,82 84,82 84,52 7,52 69,52 69,34 69,20 62,20 62,83 85,83 85,20 30,20 30,39 30,13 30,25 30,64 25,64 9,64 35,64 56,64 53,64 53,11 53,52 13,52 13,73 13,57 64,57 8,57 15,57 15,25 15,17 15,34 15,41 15,33 15,19 15,20 61,20 61,20 61,90 61,67 18,67 18,16 50,16 50,85 50,42 94,42 89,42 79,42 96,42 96,33 53,33 53,82 65,82 65,25 30,25 30,83 15,83 55,83 55,67 68,67 12,67 75,67 75,86 83,86 64,86 64,65 64,91 41,91 41,79 49,79 49,37 49,91 70,91 71,91 71,87 71,54 67,54 51,54 51,15 53,15 53,41 53,58 53,38 76,38 76,50 45,50 45,12 45,40 4,40 4,67 4,69 4,33 4,54 40,54 40,74 29,74 29,66 29,69 29,25 23,25 48,25 48,4 48,96 48,98 53,98 53,46 53,22 12,22 12,38 11,38 25,38 25,60 35,60 35,19 65,19 40,19 75,19 75,69 75,34 75,46 75,71 35,71 35,11 43,11 43,45 43,25 43,45 43,53 43,14 43,60 43,56 43,28 93,28 24,28 24,22 61,22 67,22 67,82 67,75 67,5 67,68 46,68 18,68 18,29 18,55 1,55 1,55 1,47 91,47 91,69 4,69 4,36 4,32 79,32 58,32 58,18 58,81 86,81 38,81 19,81 19,78 83,78 83,42 40,42 40,38 40,46 40,56 34,56 15,56 15,43 79,43 79,35 91,35 16,35 42,35 71,35 74,35 19,35 19,75 49,75 49,95 58,95 32,95 32,32 89,32 90,32 90,43 90,57 90,49 9,49 57,49 87,49 19,49 19,84 19,64 47,64 47,16 47,67 47,52 47,9 54,9 53,9 53,65 53,65 8,65 90,65 90,30 17,30 17,31 20,31 20,32 20,18 55,18 55,78 55,99 55,1 55,34 59,34 59,41 59,83 64,83 38,83 38,85 35,85 21,85 49,85 23,85 23,73 15,73 65,73 90,73 90,62 90,58 79,58 16,58 16,51 63,51 31,51 46,51 26,51 26,46 89,46 67,46 67,73 67,83 67,61 67,3 67,65 67,34 60,34 60,54 84,54 3,54 66,54 31,54 22,54 45,54 45,87 27,87 63,87 54,87 54,29 54,30 71,30 34,30 32,30 32,92 32,66 60,66 88,66 88,47 41,47 66,47 87,47 87,41 87,36 87,63 83,63 83,26 87,26 45,26 45,31 45,25 20,25 20,14 20,73 20,71 83,71 64,71 64,45 55,45 93,45 93,73 89,73 76,73 76,12 65,12 47,12 47,29 47,89 47,74 32,74 32,6 32,23 49,23 53,23 53,35 22,35 22,82 84,82 84,71 94,71 94,47 94,63 94,36 40,36 70,36 92,36 75,36 75,92 69,92 33,92 46,92 58,92 42,92 70,92 70,91 43,91 49,91 49,23 64,23 64,87 64,19 79,19 30,19 36,19 36,85 78,85 16,85 69,85 69,82 47,82 58,82 65,82 65,87 65,43 65,39 50,39 50,28 50,91 50,42 76,42 72,42 1,42 30,42 50,42 64,42 64,76 64,96 64,17 64,61 24,61 41,61 41,80 41,13 47,13 82,13 82,23 82,48 93,48 30,48 33,48 11,48 11,67 59,67 59,83 54,83 40,83 77,83 16,83 41,83 48,83 48,57 48,37 48,13 49,13 80,13 80,59 80,36 87,36 37,36 85,36 85,70 25,70 25,49 25,36 67,36 67,38 67,25 67,87 74,87 74,83 74,48 74,13 79,13 57,13 29,13 29,17 29,35 67,35 67,47 30,47 16,47 16,30 67,30 93,30 93,63 93,54 99,54 99,58 92,58 92,54 92,70 25,70 25,21 26,21 53,21 53,4 38,4 39,4 44,4 44,47 44,66 10,66 56,66 10,66 10,75 20,75 20,81 20,36 16,36 16,71 16,54 16,86 61,86 61,61 7,61 38,61 58,61 58,8 53,8 53,37 53,87 80,87 80,70 76,70 76,31 76,38 55,38 29,38 29,44 29,5 33,5 31,5 32,5 32,84 70,84 44,84 44,63 70,63 15,63 25,63 25,81 25,50 25,75 25,36 48,36 48,95 48,12 61,12 68,12 49,12 30,12 27,12 36,12 67,12 78,12 24,12 24,15 67,15 67,32 67,92 59,92 44,92 61,92 67,92 24,92 27,92 27,16 19,16 64,16 36,16 36,70 36,71 37,71 6,71 6,40 23,40 78,40 90,40 4,40 4,67 42,67 94,67 94,40 94,59 69,59 78,59 12,59 42,59 42,97 67,97 54,97 54,10 38,10 53,10 71,10 71,77 49,77 74,77 74,34 74,88 54,88 55,88 37,88 37,14 37,38 32,38 32,67 23,67 23,28 72,28 67,28 40,28 40,66 40,33 40,78 40,78 33,78 76,78 76,14 47,14 54,14 83,14 82,14 49,14 31,14 31,63 31,46 74,46 74,32 74,27 66,27 66,24 66,61 34,61 34,80 16,80 27,80 21,80 60,80 60,22 64,22 64,43 61,43 61,15 32,15 20,15 30,15 18,15 18,30 41,30 30,30 30,22 10,22 10,23 10,23 69,23 66,23 66,28 66,88 66,57 66,40 66,38 66,9" /></svg>