<?xml version="1.0" encoding="utf-8" ?>
<svg baseProfile="tiny" fill="none" height="100" stroke="black" stroke-opacity="1.0" stroke-width="0.5" version="1.2" width="100" xmlns="http://www.w3.org/2000/svg" xmlns:ev="http://www.w3.org/2001/xml-events" xmlns:xlink="http://www.w3.org/1999/xlink"><defs /><polyline points="36,51 46,51 46,16 61,16 61,26 61,10 61,49 61,82 47,82 47,51 47,85 70,85 70,94 70,85 47,85 47,50 47,54 13,54 93,54 57,54 86,54 86,64 92,64 46,64 34,64 34,31 34,37 69,37 59,37 48,37 64,37 64,14 64,10 46,10 46,31 83,31 73,31 73,70 73,16 30,16 81,16 50,16 50,29 37,29 21,29 21,24 21,15 21,35 21,61 53,61 80,61 26,61 87,61 97,61 12,61 12,46 99,46 69,46 69,58 69,85 69,24 69,74 57,74 57,13 30,13 30,79 30,51 30,57 30,70 30,91 30,53 31,53 31,26 31,88 62,88 28,88 54,88 54,17 54,27 54,80 58,80 58,29 58,13 54,13 32,13 32,48 32,75 60,75 60,62 60,29 60,78 60,85 60,60 60,63 60,50 60,8 68,8 68,61 65,61 81,61 81,52 25,52 38,52 38,38 38,87 38,87 34,87 34,21 34,65 76,65 97,65 37,65 37,14 49,14 67,14 64,14 64,86 74,86 74,31 30,31 38,31 38,81 38,10 38,87 38,11 38,26 38,96 38,90 47,90 47,39 42,39 16,39 30,39 30,68 24,68 24,69 85,69 85,19 85,50 85,21 85,66 13,66 13,61 13,32 66,32 66,3 36,3 36,72 22,72 93,72 84,72 34,72 34,16 34,55 34,73 34,19 89,19 89,21 89,30 89,77 89,53 89,53 89,43 89,50 89,59 89,75 89,51 89,81 89,54 89,74 89,45 89,80 89,68 89,46 89,79 42,79 34,79 85,79 20,79 14,79 14,77 64,77 79,77 22,77 22,82 20,82 41,82 41,54 41,10 35,10 35,34 73,34 79,34 31,34 31,81 31,6 31,53 69,53 47,53 47,68 13,68 13,76 13,58 13,80 20,80 20,41 20,44 20,61 68,61 68,14 26,14 26,14 72,14 46,14 56,14 74,14 74,63 74,64 20,64 31,64 31,93 31,67 14,67 14,48 13,48 13,74 38,74 38,31 18,31 18,42 95,42 86,42 86,26 42,26 68,26 68,54 97,54 97,41 97,53 97,40 78,40 90,40 90,25 75,25 12,25 12,26 12,47 12,74 12,56 64,56 58,56 38,56 38,45 38,63 38,42 1,42 24,42 86,42 86,21 86,76 8,76 8,35 8,54 8,52 71,52 15,52 15,52 15,21 15,25 15,76 63,76 15,76 15,45 15,85 15,64 15,63 75,63 86,63 86,81 86,74 91,74 68,74 68,24 68,70 88,70 9,70 19,70 19,88 19,57 40,57 40,98 41,98 39,98 39,84 39,4 39,74 39,7 39,3 60,3 63,3 50,3 50,58 43,58 23,58 2,58 2,42 17,42 16,42 16,57 42,57 42,39 42,44 42,15 54,15 29,15 29,20 35,20 23,20 54,20 62,20 62,35 62,75 62,18 27,18 22,18 22,35 22,35 22,82 49,82 49,67 44,67 87,67 87,80 77,80 84,80 84,84 84,32 35,32 35,29 35,81 35,49 27,49 27,40 69,40 69,92 36,92 36,70 36,75 36,78 36,38 83,38 83,55 85,55 85,65 85,31 85,64 85,44 30,44 30,5 55,5 41,5 41,22 59,22 20,22 49,22 49,61 49,67 49,97 59,97 33,97 33,91 48,91 44,91 44,82 44,31 44,55 44,46 20,46 44,46 73,46 73,73 73,65 73,77 73,61 73,31 73,72 73,19 73,85 52,85 52,65 83,65 83,79 83,71 64,71 89,71 89,71 74,71 74,18 63,18 59,18 59,15 59,55 8,55 8,27 8,63 52,63 52,24 47,24 47,31 83,31 83,25 33,25 33,22 33,65 3,65 17,65 66,65 66,15 66,15 66,23 29,23 29,22 15,22 15,57 15,77 15,29 15,38 55,38 55,65 55,75 34,75 34,26 34,51 34,30 34,95 66,95 34,95 34,35 85,35 85,22 85,54 85,54 21,54 3,54 3,34 38,34 38,64 38,7 38,78 38,40 38,89 27,89 27,31 81,31 81,85 68,85 68,69 68,80 68,25 68,44 68,78 68,69 91,69 37,69 84,69 89,69 22,69 81,69 77,69 77,74 77,24 77,22 77,45 15,45 40,45 40,97 40,83 40,4 40,75 91,75 87,75 87,49 87,67 93,67 93,73 61,73 61,39 2,39 38,39 38,12 38,12 60,12 34,12 31,12 31,60 96,60 37,60 37,47 37,41 60,41 45,41 88,41 88,58 82,58 57,58 83,58 83,65 83,18 83,68 23,68 61,68 61,59 61,52 61,84 61,77 46,77 46,52 65,52 15,52 15,47 15,82 87,82 87,27 87,31 54,31 36,31 35,31 17,31 17,60 17,78 43,78 43,90 45,90 46,90 79,90 79,67 79,22 81,22 81,12 81,33 24,33 24,24 24,58 24,68 24,65 24,14 24,39 57,39 25,39 25,51 25,22 65,22 65,16 28,16 28,75 88,75 35,75 55,75 86,75 86,22 86,74 73,74 15,74 15,69 19,69 86,69 86,69 86,43 75,43 51,43 32,43 32,58 32,9 32,35 6,35 18,35 57,35 71,35 71,43 71,74 71,74 71,69 71,72 71,69 9,69 9,23 78,23 70,23 78,23 80,23 80,89 39,89 39,87 40,87 45,87 30,87 30,65 30,50 43,50 43,93 26,93 38,93 61,93 61,70 56,70 60,70 71,70 93,70 93,62 49,62 49,33 59,33 32,33 15,33 84,33 10,33 10,33 10,40 58,40 58,5 57,5 60,5 32,5 32,66 6,66 42,66 42,31 42,7 42,88 74,88 74,78 84,78 83,78 47,78 26,78 49,78 49,12 49,98 41,98 41,4 61,4 49,4 51,4 51,51 51,47 51,3 40,3 40,22 90,22 57,22 86,22 48,22 48,17 48,17 48,73 48,8 48,34 48,4 34,4 34,39 65,39 65,42 25,42 11,42 11,19 87,19 76,19 32,19 40,19 40,19 41,19 41,45 58,45 58,82 58,32 73,32 73,49 93,49 9,49 9,56 9,47 9,63 10,63 63,63 63,69 63,23 78,23 37,23 33,23 33,26 19,26 62,26 29,26 29,74 29,84 53,84 53,7 53,55 75,55 75,38 75,44 97,44 97,37 40,37 35,37 35,30 35,41 12,41 19,41 76,41 76,17 74,17 15,17 74,17 53,17 86,17 86,30 86,35 86,43 31,43 22,43 22,69 22,16 57,16 77,16 81,16 81,19 81,55 42,55 42,11 26,11 72,11 53,11 52,11 47,11 47,27 45,27 54,27 54,28 55,28 41,28 29,28 32,28 32,6 32,18 32,48 32,39 2,39 23,39 23,45 29,45 29,70 75,70 75,88 49,88 30,88 64,88 18,88 18,20 18,68 18,71 18,86 27,86 27,88 27,42 89,42 89,62 45,62 45,36 45,27 26,27 15,27 73,27 73,52 73,49 73,11 57,11 57,42 57,7 38,7 38,74 38,6 31,6 31,4 34,4 34,6 34,41 34,75 87,75 87,32 94,32 23,32 23,70 23,45 77,45 77,9 77,30 56,30 56,67 65,67 65,38 65,68 65,21 51,21 51,74 10,74 41,74 41,40 84,40 22,40 96,40 96,62 12,62 87,62 87,64 15,64 15,68 15,65 15,80 69,80 32,80 78,80 78,57 78,87 38,87 72,87 72,57 14,57 38,57 38,5 63,5 52,5 58,5 58,14 58,41 58,90 58,9 28,9 28,51 28,65 68,65 60,65 33,65 33,45 9,45 9,41 48,41 35,41 29,41 22,41 22,37 68,37 64,37 64,42 64,54 64,47 64,17 24,17 72,17 72,84 78,84 81,84 30,84 30,28 30,64 9,64 86,64 86,53 86,61 86,64 71,64 86,64 76,64 76,85 68,85 50,85 21,85 43,85 39,85 39,33 39,9 50,9 50,67 69,67 69,95 39,95 69,95 44,95 71,95 71,13 73,13 73,6 27,6 27,69 27,81 41,81 41,15 39,15 37,15 37,14 54,14" /></svg>