<?xml version="1.0" encoding="utf-8" ?>
<svg baseProfile="tiny" fill="none" height="250" stroke="black" stroke-opacity="1.0" stroke-width="0.5" version="1.2" width="250" xmlns="http://www.w3.org/2000/svg" xmlns:ev="http://www.w3.org/2001/xml-events" xmlns:xlink="http://www.w3.org/1999/xlink"><defs /><polyline points="63,28 63,151 32,151 32,39 32,171 160,171 160,166 141,166 137,166 137,190 58,190 58,27 58,25 58,175 58,168 58,25 104,25 104,199 111,199 109,199 109,5 109,37 91,37 91,154 175,154 175,160 175,156 152,156 152,151 100,151 100,35 56,35 56,23 56,167 56,168 56,41 56,22 56,11 131,11 103,11 103,198 103,161 103,46 103,18 103,171 37,171 37,30 94,30 94,39 94,48 94,17 152,17 152,177 152,153 152,49 152,18 152,161 65,161 148,161 148,151 148,165 39,165 39,30 39,23 39,42 39,168 33,168 36,168 36,25 159,25 159,25 159,48 137,48 137,14 137,28 137,30 68,30 161,30 161,153 161,32 161,40 138,40 138,24 138,173 138,184 138,161 138,47 138,163 138,190 138,154 138,19 128,19 72,19 134,19 134,18 134,8 134,155 19,155 19,153 69,153 69,191 69,162 69,164 69,174 110,174 99,174 66,174 154,174 154,41 154,36 154,154 154,17 154,17 95,17 95,166 159,166 159,30 159,29 159,180 159,38 159,180 62,180 134,180 134,20 134,34 134,40 134,33 134,168 134,38 80,38 80,183 151,183 151,154 151,175 158,175 158,159 158,46 27,46 27,166 101,166 69,166 69,166 69,154 69,164 41,164 41,39 41,151 58,151 157,151 157,168 157,153 157,19 157,36 157,45 94,45 18,45 18,47 18,49 42,49 129,49 129,183 129,42 43,42 62,42 145,42 175,42 175,165 175,36 175,47 175,47 127,47 127,189 100,189 67,189 88,189 113,189 79,189 79,31 79,171 111,171 141,171 141,179 141,24 127,24 89,24 89,11 89,190 89,160 123,160 123,173 147,173 147,158 89,158 89,189 89,38 89,35 169,35 115,35 115,195 115,12 115,177 44,177 149,177 97,177 90,177 90,159 90,10 90,194 105,194 111,194 103,194 103,38 103,157 175,157 41,157 41,35 41,23 41,25 41,175 110,175 152,175 63,175 144,175 58,175 58,41 58,29 106,29 106,158 106,27 106,43 106,41 93,41 93,5 122,5 122,5 71,5 71,36 159,36 159,22 159,163 159,48 159,34 159,179 159,29 109,29 109,152 109,167 109,28 159,28 159,166 174,166 175,166 143,166 164,166 49,166 49,48 149,48 149,187 128,187 63,187 63,168 33,168 130,168 130,169 116,169 90,169 90,26 90,30 73,30 73,158 81,158 56,158 148,158 88,158 115,158 161,158 149,158 62,158 161,158 161,172 88,172 88,165 106,165 99,165 118,165 118,31 169,31 41,31 161,31 161,153 161,171 161,165 75,165 75,188 92,188 109,188 109,33 72,33 72,153 72,153 143,153 74,153 179,153 179,42 179,41 179,160 179,47 184,47 61,47 61,21 91,21 91,197 95,197 95,16 51,16 143,16 98,16 83,16 83,39 121,39 55,39 119,39 119,40 49,40 49,172 49,22 155,22 69,22 69,47 35,47 35,31 35,172 81,172 81,29 81,29 81,186 81,19 79,19 60,19 136,19 114,19 114,191 114,155 170,155 72,155 72,31 72,159 72,11 55,11 55,157 73,157 93,157 93,35 93,196 93,172 145,172 145,156 145,172 108,172 108,171 108,19 43,19 66,19 105,19 78,19 107,19 107,39 107,7 107,161 66,161 66,41 66,46 66,19 149,19 75,19 75,184 148,184 148,26 148,171 148,177 148,172 60,172 61,172 61,49 72,49 72,34 159,34 159,174 159,48 159,38 106,38 160,38 160,155 168,155 168,165 168,161 49,161 49,42 91,42 130,42 148,42 65,42 65,167 139,167 75,167 75,42 75,167 74,167 74,176 74,188 74,18 74,10 60,10 143,10 104,10 118,10 122,10 119,10 119,13 84,13 139,13 139,17 59,17 59,30 59,162 58,162 58,30 58,25 58,172 78,172 78,186 92,186 92,30 92,195 87,195 87,35 87,196 98,196 98,41 20,41 95,41 165,41 165,167 165,46 165,49 165,160 165,39 109,39 109,47 18,47 18,48 18,157 171,157 105,157 114,157 115,157 115,163 115,178 115,156 159,156 159,49 56,49 35,49 22,49 43,49 43,31 43,42 163,42 163,38 104,38 104,41 114,41 180,41 106,41 106,14 106,158 132,158 132,159 132,21 132,21 132,184 58,184 143,184 66,184 66,184 93,184 93,171 93,189 70,189 70,169 125,169 125,155 26,155 72,155 72,45 181,45 81,45 81,2 81,185 81,7 81,17 81,45 158,45 158,164 87,164 87,151 87,190 63,190 96,190 96,166 96,35 72,35 72,45 72,47 72,36 72,13 66,13 66,45 66,170 171,170 166,170 124,170 138,170 138,160 88,160 88,177 88,151 124,151 33,151 16,151 157,151 157,30 157,155 157,160 157,161 114,161 114,161 54,161 54,169 135,169 135,28 135,186 77,186 77,176 91,176 91,167 91,152 16,152 16,48 110,48 110,3 97,3 79,3 79,178 79,157 79,3 79,27 79,185 75,185 75,24 75,157 72,157 72,12 72,31 72,45 105,45 105,167 78,167 59,167 127,167 116,167 128,167 144,167 85,167 40,167 40,169 76,169 163,169 31,169 153,169 153,160 78,160 129,160 129,31 129,33 45,33 162,33 162,28 162,36 50,36 50,166 115,166 26,166 75,166 75,33 75,189 75,172 75,39 108,39 108,4 108,155 108,169 161,169 161,179 64,179 63,179 63,191 63,29 142,29 142,153 86,153 86,40 86,180 156,180 156,152 65,152 65,14 65,15 65,13 87,13 111,13 88,13 88,31 88,21 88,40 88,1 88,17 88,37 30,37 30,154 131,154 118,154 118,181 118,191 118,8 71,8 104,8 126,8 136,8 136,192 68,192 68,155 42,155 42,48 50,48 50,43 172,43 110,43 110,34 32,34 140,34 144,34 144,17 114,17 114,162 114,39 114,7 110,7 110,34 110,45 110,26 110,11 110,14 110,33 110,12 135,12 145,12 71,12 108,12 91,12 91,193 64,193 85,193 85,166 85,37 85,162 85,29 55,29 119,29 33,29 33,27 33,168 33,28 33,46 33,154 33,165 33,47 145,47 145,178 126,178 96,178 96,175 96,158 96,7 114,7 114,29 114,175 114,26 159,26 138,26 144,26 144,13 100,13 119,13 110,13 135,13 135,22 127,22 153,22 153,19 153,160 153,164 67,164 67,8 67,171 43,171 37,171 37,30 41,30 41,161 41,31 77,31 77,20 128,20 108,20 108,155 181,155 181,155 71,155 130,155 71,155 173,155 31,155 31,49 31,38 50,38 151,38 113,38 167,38 151,38 94,38 94,196 127,196 127,162 130,162 122,162 122,161 122,190 125,190 125,193 82,193 82,173 77,173 77,4 73,4 73,195 100,195 113,195 113,37 173,37 93,37 171,37 171,35 171,159 111,159 111,28 111,169 64,169 64,21 64,13 113,13 145,13 145,189 145,186 112,186 112,5 80,5 80,29 132,29 132,177 132,177 132,36 104,36 41,36 41,20 81,20 81,36 49,36 49,179 49,178 152,178 152,177 61,177 61,15 61,191 74,191 107,191 104,191 89,191 69,191 119,191 111,191 128,191 93,191 76,191 76,27 76,46 38,46 38,171 115,171 115,25 115,25 115,186 109,186 137,186 112,186 53,186 58,186 93,186 93,157 163,157 60,157 50,157 93,157 93,167 47,167 47,158 178,158 55,158 107,158 48,158 61,158 145,158 159,158 151,158 88,158 88,154 88,27 159,27 159,155 159,44 159,154 159,30 140,30 140,46 132,46 31,46 31,161 31,168 142,168 142,177 142,14 133,14 62,14 65,14 65,8 65,22 65,49 101,49 101,17 71,17 117,17 117,152 69,152 27,152 54,152 114,152 114,190 62,190 143,190 143,166 143,187 143,176 143,184 103,184 91,184 117,184 46,184 46,154 46,48 136,48 20,48 173,48 173,36 173,155 173,44 173,40 157,40 159,40 112,40 112,154 178,154 178,159 178,46 69,46 97,46 97,25 97,173 160,173 160,44 166,44 166,171 166,25 139,25 162,25 162,26 162,37 168,37 95,37 104,37 117,37 91,37 91,187 91,185 91,15 91,168 91,192 125,192 125,48 125,187 125,180 125,165 103,165 164,165 160,165 143,165 143,187 143,13 120,13 109,13 90,13 78,13 78,17 78,15 78,30 101,30 101,13 120,13 93,13 93,195 93,48 43,48 43,162 43,167 43,19 43,21 67,21 39,21 39,44 39,161 120,161 120,178 161,178 161,47 161,163 161,27 161,23 161,36 161,28 55,28 55,156 104,156 18,156 18,155 168,155 168,172 168,158 168,42 168,40 46,40 109,40 109,14 55,14 122,14 67,14 92,14 92,32 92,13 92,157 95,157 95,174 95,38 33,38 33,158 77,158 163,158 163,166 163,177 163,23 163,163 163,36 64,36 64,176 97,176 164,176 52,176 122,176 122,189 135,189 92,189" /></svg>