<?xml version="1.0" encoding="utf-8" ?>
<svg baseProfile="tiny" fill="none" height="100" stroke="black" stroke-opacity="1.0" stroke-width="0.5" version="1.2" width="100" xmlns="http://www.w3.org/2000/svg" xmlns:ev="http://www.w3.org/2001/xml-events" xmlns:xlink="http://www.w3.org/1999/xlink"><defs /><line x1="97" x2="21" y1="35" y2="35" /><line x1="21" x2="21" y1="35" y2="57" /><line x1="21" x2="21" y1="57" y2="147" /><line x1="21" x2="127" y1="147" y2="147" /><line x1="127" x2="127" y1="147" y2="237" /><line x1="127" x2="60" y1="237" y2="237" /><line x1="60" x2="75" y1="237" y2="237" /><line x1="75" x2="75" y1="237" y2="233" /><line x1="75" x2="37" y1="233" y2="233" /><line x1="37" x2="212" y1="233" y2="233" /><line x1="212" x2="212" y1="233" y2="247" /><line x1="212" x2="212" y1="247" y2="47" /><line x1="212" x2="212" y1="47" y2="13" /><line x1="212" x2="212" y1="13" y2="125" /><line x1="212" x2="212" y1="125" y2="21" /><line x1="212" x2="131" y1="21" y2="21" /><line x1="131" x2="131" y1="21" y2="184" /><line x1="131" x2="131" y1="184" y2="223" /><line x1="131" x2="232" y1="223" y2="223" /><line x1="232" x2="118" y1="223" y2="223" /><line x1="118" x2="118" y1="223" y2="2" /><line x1="118" x2="118" y1="2" y2="57" /><line x1="118" x2="118" y1="57" y2="245" /><line x1="118" x2="118" y1="245" y2="104" /><line x1="118" x2="118" y1="104" y2="227" /><line x1="118" x2="45" y1="227" y2="227" /><line x1="45" x2="237" y1="227" y2="227" /><line x1="237" x2="237" y1="227" y2="111" /><line x1="237" x2="237" y1="111" y2="61" /><line x1="237" x2="237" y1="61" y2="134" /><line x1="237" x2="6" y1="134" y2="134" /><line x1="6" x2="6" y1="134" y2="224" /><line x1="6" x2="6" y1="224" y2="52" /><line x1="6" x2="6" y1="52" y2="209" /><line x1="6" x2="6" y1="209" y2="114" /><line x1="6" x2="6" y1="114" y2="61" /><line x1="6" x2="213" y1="61" y2="61" /><line x1="213" x2="82" y1="61" y2="61" /><line x1="82" x2="130" y1="61" y2="61" /><line x1="130" x2="130" y1="61" y2="81" /><line x1="130" x2="20" y1="81" y2="81" /><line x1="20" x2="20" y1="81" y2="11" /><line x1="20" x2="152" y1="11" y2="11" /><line x1="152" x2="152" y1="11" y2="19" /><line x1="152" x2="82" y1="19" y2="19" /><line x1="82" x2="82" y1="19" y2="159" /><line x1="82" x2="82" y1="159" y2="225" /><line x1="82" x2="119" y1="225" y2="225" /><line x1="119" x2="22" y1="225" y2="225" /><line x1="22" x2="43" y1="225" y2="225" /><line x1="43" x2="43" y1="225" y2="140" /><line x1="43" x2="3" y1="140" y2="140" /><line x1="3" x2="81" y1="140" y2="140" /><line x1="81" x2="81" y1="140" y2="25" /><line x1="81" x2="138" y1="25" y2="25" /><line x1="138" x2="138" y1="25" y2="130" /><line x1="138" x2="138" y1="130" y2="27" /><line x1="138" x2="138" y1="27" y2="116" /><line x1="138" x2="239" y1="116" y2="116" /><line x1="239" x2="239" y1="116" y2="28" /><line x1="239" x2="239" y1="28" y2="104" /><line x1="239" x2="239" y1="104" y2="218" /><line x1="239" x2="73" y1="218" y2="218" /><line x1="73" x2="73" y1="218" y2="167" /><line x1="73" x2="172" y1="167" y2="167" /><line x1="172" x2="172" y1="167" y2="222" /><line x1="172" x2="172" y1="222" y2="73" /><line x1="172" x2="172" y1="73" y2="31" /><line x1="172" x2="151" y1="31" y2="31" /><line x1="151" x2="151" y1="31" y2="169" /><line x1="151" x2="151" y1="169" y2="58" /><line x1="151" x2="169" y1="58" y2="58" /><line x1="169" x2="62" y1="58" y2="58" /><line x1="62" x2="62" y1="58" y2="59" /><line x1="62" x2="62" y1="59" y2="22" /><line x1="62" x2="62" y1="22" y2="209" /><line x1="62" x2="127" y1="209" y2="209" /><line x1="127" x2="127" y1="209" y2="117" /><line x1="127" x2="116" y1="117" y2="117" /><line x1="116" x2="244" y1="117" y2="117" /><line x1="244" x2="146" y1="117" y2="117" /><line x1="146" x2="146" y1="117" y2="144" /><line x1="146" x2="146" y1="144" y2="99" /><line x1="146" x2="146" y1="99" y2="232" /><line x1="146" x2="225" y1="232" y2="232" /><line x1="225" x2="179" y1="232" y2="232" /><line x1="179" x2="202" y1="232" y2="232" /><line x1="202" x2="202" y1="232" y2="58" /><line x1="202" x2="61" y1="58" y2="58" /><line x1="61" x2="61" y1="58" y2="231" /><line x1="61" x2="61" y1="231" y2="223" /><line x1="61" x2="61" y1="223" y2="113" /><line x1="61" x2="61" y1="113" y2="139" /><line x1="61" x2="61" y1="139" y2="162" /><line x1="61" x2="61" y1="162" y2="95" /><line x1="61" x2="173" y1="95" y2="95" /><line x1="173" x2="139" y1="95" y2="95" /><line x1="139" x2="138" y1="95" y2="95" /><line x1="138" x2="138" y1="95" y2="69" /><line x1="138" x2="204" y1="69" y2="69" /><line x1="204" x2="204" y1="69" y2="113" /></svg>