<?xml version="1.0" encoding="utf-8" ?>
<svg baseProfile="tiny" fill="none" height="250" stroke="black" stroke-opacity="1.0" stroke-width="0.5" version="1.2" width="250" xmlns="http://www.w3.org/2000/svg" xmlns:ev="http://www.w3.org/2001/xml-events" xmlns:xlink="http://www.w3.org/1999/xlink"><defs /><polyline points="222,188 194,188 219,188 219,54 118,54 71,54 104,54 28,54 28,49 28,54 199,54 125,54 125,14 125,247 147,247 147,57 147,241 147,56 85,56 59,56 59,191 59,60 25,60 42,60 148,60 148,244 141,244 141,32 141,14 141,27 133,27 137,27 137,200 95,200 186,200 186,227 186,226 189,226 168,226 62,226 62,199 128,199 128,237 128,228 72,228 86,228 185,228 157,228 157,229 60,229 60,58 60,35 60,231 163,231 163,204 107,204 126,204 183,204 104,204 104,48 60,48 60,230 60,190 60,50 60,207 60,27 60,198 33,198 186,198 141,198 168,198 168,59 185,59 185,213 185,197 185,27 107,27 107,203 179,203 179,42 182,42 180,42 36,42 36,204 47,204 161,204 78,204 103,204 163,204 163,229 167,229 167,212 98,212 98,215 137,215 75,215 68,215 68,37 188,37 188,191 188,207 188,57 188,48 35,48 84,48 84,210 84,189 84,10 84,203 84,43 84,201 84,43 84,53 84,201 84,62 213,62 213,196 42,196 59,196 121,196 121,55 121,207 121,30 65,30 65,212 141,212 74,212 172,212 172,218 172,190 91,190 91,192 91,19 168,19 134,19 134,215 76,215 124,215 124,196 124,222 124,189 53,189 53,226 53,48 185,48 94,48 72,48 72,193 140,193 140,235 127,235 127,241 116,241 116,237 172,237 169,237 110,237 110,31 72,31 72,233 160,233 160,53 34,53 107,53 107,61 146,61 146,234 146,14 146,17 146,210 200,210 89,210 89,218 89,40 76,40 76,40 193,40 44,40 44,40 44,198 226,198 226,53 226,62 215,62 215,41 51,41 63,41 63,57 63,188 57,188 142,188 142,28 142,238 158,238 142,238 135,238 123,238 155,238 92,238 174,238 108,238 108,24 108,57 108,15 91,15 176,15 176,229 176,218 194,218 180,218 180,56 180,29 180,54 180,188 77,188 77,40 42,40 42,217 42,42 42,205 42,215 186,215 186,204 199,204 199,46 172,46 172,15 172,188 172,22 172,212 97,212 113,212 113,196 215,196 28,196 75,196 169,196 223,196 223,198 84,198 188,198 188,221 188,44 73,44 48,44 77,44 77,219 76,219 76,18 76,27 112,27 150,27 150,22 150,244 158,244 158,7 158,47 123,47 147,47 147,52 160,52 140,52 177,52 94,52 94,17 95,17 95,4 95,206 95,203 48,203 48,213 65,213 182,213 67,213 67,42 70,42 70,192 70,62 70,13 141,13 141,28 108,28 95,28 95,51 155,51 155,34 193,34 165,34 208,34 80,34 80,229 182,229 106,229 106,45 170,45 153,45 153,240 153,8 153,8 145,8 129,8 152,8 98,8 98,210 98,193 49,193 105,193 161,193 201,193 201,31 201,56 181,56 181,204 85,204 50,204 137,204 137,201 137,243 137,19 137,17 137,206 137,44 142,44 109,44 109,203 94,203 194,203 217,203 217,198 199,198 112,198 112,58 112,218 83,218 55,218 74,218 113,218 113,15 72,15 111,15 124,15 124,221 60,221 75,221 55,221 50,221 89,221 89,12 89,33 89,28 93,28 191,28 93,28 175,28 153,28 179,28 179,46 81,46 81,26 105,26 67,26 186,26 177,26 177,49 177,225 190,225 82,225 82,217 82,241 82,225 54,225 62,225 73,225 197,225 162,225 77,225 144,225 144,214 93,214 81,214 43,214 43,207 178,207 160,207 156,207 183,207 214,207 214,62 155,62 155,234 105,234 84,234 84,60 42,60 42,55 96,55 90,55 181,55 181,35 181,224 69,224 101,224 101,18 101,231 104,231 104,59 191,59 191,59 191,58 195,58 195,44 188,44 57,44 39,44 39,201 39,42 45,42 45,217 45,216 144,216 144,202 176,202 170,202 170,201 170,43 39,43 142,43 142,10 143,10 143,198 109,198 109,54 109,193 109,44 109,24 166,24 166,196 188,196 124,196 62,196 72,196 72,212 72,39 165,39 65,39 65,234 65,208 142,208 142,4 125,4 125,225 107,225 133,225 81,225 81,230 139,230 160,230 136,230 113,230 61,230 63,230 63,26 63,202 63,193 194,193 194,43 194,48 221,48 221,46 221,47 221,54 221,58 221,61 21,61 230,61 123,61 123,51 123,53 152,53 85,53 212,53 26,53 26,198 26,57 26,199 146,199 146,9 146,213 146,39 146,217 146,237 180,237 180,228 156,228 156,231 82,231 82,196 218,196 86,196 86,38 100,38 100,207 100,14 87,14 87,58 87,239 120,239 108,239 108,205 161,205 126,205 47,205 148,205 148,7 148,243 148,225 150,225 176,225 65,225 65,22 65,42 85,42 85,38 54,38 75,38 75,188 75,188 136,188 136,218 204,218 202,218 160,218 145,218 145,25 109,25 109,25 109,48 109,211 154,211 154,33 154,226 76,226 84,226 97,226 97,208 128,208 147,208 147,44 147,232 167,232 114,232 142,232 142,223 142,44 142,14 142,192 142,53 142,50 142,223 142,223 51,223 51,206 136,206 137,206 211,206 64,206 64,47 37,47 66,47 48,47 150,47 150,7 150,27 88,27 198,27 81,27 81,10 81,211 81,59 28,59 80,59 86,59 86,239 117,239 117,208 68,208 68,54 165,54 165,48 184,48 184,26 184,18 146,18 146,211 61,211 61,217 61,222 130,222 187,222 150,222 150,242 150,15 121,15 121,195 69,195 69,31 99,31 99,13 99,36 99,226 196,226 196,190 231,190 200,190 46,190 123,190 123,207 58,207 219,207 175,207 39,207 176,207 176,17 172,17 172,219 156,219 156,33 156,189 156,28 71,28 71,206 71,40 157,40 157,213 38,213 170,213 65,213 65,197 65,53 97,53 97,35 97,242 97,55 97,241 103,241 149,241 149,57 59,57 166,57 197,57 197,38 63,38 124,38 86,38 108,38 108,191 108,13 91,13 80,13 80,28 149,28 50,28 54,28 71,28 100,28 100,195 100,55 100,202 100,191 25,191 119,191 153,191 56,191 56,47 193,47 193,59 193,25 85,25 85,24 149,24 149,51 149,194 126,194 126,47 126,4 126,243 126,52 126,234 161,234 161,243 161,188 161,30 161,222 191,222 74,222 74,54 199,54 199,41 199,193 199,48 155,48 155,33 155,236 181,236 127,236 127,232 151,232 80,232 96,232 96,199 96,51 137,51 107,51 64,51 64,43 215,43 215,49 186,49 213,49 127,49 127,15 127,222 127,15 127,224 127,37 169,37 169,36 53,36 53,225 53,25 53,45 140,45 167,45 167,8 167,212 129,212 129,233 115,233 88,233 88,203 166,203 166,20 82,20 82,61 76,61 92,61 92,29 84,29 84,214 171,214 78,214 78,36 78,25 197,25 197,201 197,29 96,29 96,226 96,46 96,211 142,211 142,241 103,241 147,241 147,17 106,17 124,17 124,40 205,40 205,36 205,56 205,39 92,39 92,217 142,217 142,192 55,192 55,31 55,60 55,206 55,25 55,52 55,53 37,53 37,58 37,205 124,205 204,205 204,39 204,213 43,213 187,213 50,213 155,213 173,213 173,11 101,11 101,231 132,231 132,41 132,191 132,227 132,246 132,201 133,201 57,201 57,35 57,31 57,35 164,35 79,35 145,35 102,35 60,35 100,35 100,12 117,12 117,201 133,201 133,43 31,43 31,188 49,188 49,205 49,29 195,29 195,42 195,201 195,189 195,57 123,57 116,57 116,190 116,196 116,13 99,13 99,46 106,46 176,46 54,46 148,46 213,46 213,61 36,61 36,46 36,191 40,191 40,34 40,205 211,205 88,205 116,205 68,205 68,224 76,224 147,224 67,224 192,224 192,52 221,52 134,52 122,52 42,52 122,52 122,48 99,48 35,48 40,48 171,48 171,192 178,192 178,197 178,229 178,191 146,191 146,4 146,218 115,218 115,213 75,213 46,213 46,40 104,40 175,40 175,223 97,223 132,223 132,60 52,60 65,60 65,52 212,52 29,52 29,195 163,195 147,195 147,61 147,4 100,4 122,4 122,216 122,229 184,229 184,56 199,56 199,37 199,44 146,44 182,44 47,44 126,44 63,44 157,44 157,194 38,194 105,194 126,194 158,194 158,192 191,192 160,192 110,192 110,228 110,11 110,205 110,4 154,4 138,4 138,33 138,16 138,49 138,223 138,12 125,12 141,12 141,208 141,230 141,34 141,246 141,28 160,28 160,6 160,207 126,207 39,207 39,211 39,45 116,45 116,57 26,57 26,57 26,52 26,55 102,55 49,55 49,198 99,198 72,198 72,216 72,207 152,207 152,31 186,31 187,31 101,31 101,228 179,228 179,233 144,233 172,233 172,10 87,10 87,237 103,237 116,237 160,237 145,237 80,237 158,237 158,41 154,41 154,20 154,8 93,8 93,56 93,5 116,5 116,234 116,205 116,3 116,226 151,226 151,194 58,194 58,25 95,25 95,237 134,237 91,237 91,22 91,25 86,25 97,25 97,188 173,188 173,220 173,55 126,55 126,208 143,208 204,208 204,197 170,197 170,236 133,236 92,236 92,9 107,9 107,41 107,240 107,55 107,59 72,59 72,237 72,40 92,40 92,59 92,234 92,62 92,209 92,37 77,37 77,195 209,195 209,208 217,208 217,195 217,41 217,207 145,207 145,31 145,11 145,236 145,212 145,245 139,245 123,245 98,245 98,195 167,195 167,54 167,51 167,42 87,42 87,16 170,16 134,16 151,16 151,62 151,54 58,54 58,204 120,204 202,204 202,212 145,212 145,15 179,15 179,60 179,196 222,196 222,51 222,57 222,60 222,60 222,47 222,195 222,199 194,199 110,199 181,199 161,199 161,26 161,192 111,192 187,192 187,215 154,215 50,215 72,215 192,215 112,215 135,215 193,215 201,215 201,189 201,224 178,224 131,224 131,47 109,47 109,221 184,221 146,221 131,221 143,221 143,204 198,204 80,204 35,204 35,199 192,199 192,222 175,222 175,189 175,53 175,62 175,19 175,232 175,234 175,22 175,24 95,24 95,48 95,53 95,202 95,46 95,233 171,233 171,193 171,15 123,15 123,218 147,218 147,205 147,50 216,50 96,50 172,50 172,215 172,220 172,10 153,10 153,21 153,207 69,207 41,207 100,207 100,46 100,199 100,35 100,201 100,56 100,48 100,238 107,238 107,238 107,44 107,45 31,45 31,203 67,203 87,203 87,234 87,244 87,46 208,46 208,37 208,209 92,209 163,209 136,209 136,50 136,225 136,10 136,10 136,3 136,49 49,49 49,33 49,60 49,202 97,202 97,15 97,207 97,4 97,15 97,41 214,41 157,41 216,41 216,44 58,44 58,40 58,202 58,201 56,201 136,201 76,201 164,201 182,201 182,221 143,221 145,221 200,221 200,55 200,195 200,215 138,215 154,215 186,215 186,54 186,57 77,57 77,232 99,232 99,28 99,12 98,12 98,221 61,221 61,50 191,50 29,50 190,50 190,194 65,194 222,194 151,194 200,194 159,194 186,194 186,46 186,36 38,36 124,36 124,199 124,217 124,189 124,218 124,198 80,198 80,220 183,220 83,220 83,53 216,53 216,58 216,191 216,62 88,62 88,39 88,35 79,35 79,26 124,26 82,26 82,13 86,13 155,13 155,53 155,203 155,20 190,20 92,20 116,20 182,20 87,20 87,200 224,200 203,200 42,200 198,200 218,200 173,200 109,200 109,43 109,12 133,12 133,210 133,199 133,233 133,246 117,246 130,246 124,246 124,4 115,4 150,4 121,4 118,4 118,199 118,33 118,29 56,29 201,29 189,29 189,208 189,30 189,38 214,38 214,39 214,44 152,44 139,44 30,44 62,44 62,22 176,22 97,22 97,18 164,18 61,18 107,18 136,18 109,18 75,18 75,229 153,229 153,22 153,33 153,4 153,12 94,12 86,12 86,218 86,202 86,242 86,204 129,204 129,237 76,237 76,218 86,218 86,191 229,191 229,58 229,57 42,57 137,57 137,224 137,214 137,11 96,11 96,26 96,194 214,194 214,207 31,207 113,207 113,211 113,10 155,10 155,30 160,30 91,30 165,30 165,228 165,188 165,34 89,34 85,34 85,212 85,196 85,233 175,233 175,189 184,189 184,192 184,55 184,52 175,52 175,214 126,214 126,5 126,206 126,231 97,231 105,231 105,229 141,229 141,3 141,21 141,22 181,22 121,22 121,60 121,32 121,36 146,36 145,36 145,225 145,26 168,26 105,26 105,6 105,205 105,232 105,198 42,198 42,199 42,45 42,210 42,213 211,213 211,202 211,210 124,210 124,190 124,230 190,230 96,230 96,35 74,35 74,213 74,215 85,215 60,215 48,215 48,53 195,53 140,53 89,53 36,53 26,53 44,53 44,203 44,216 44,49 44,51 44,43 44,61 44,38 127,38 127,214 127,191 127,206 127,245 153,245 153,219 103,219 103,26 129,26 129,9 105,9 105,219 105,14 105,221 92,221 92,243 92,27 143,27 173,27 173,59 116,59 116,31 192,31 192,213 192,47 192,192 200,192 200,194 200,192 35,192 35,188 35,208 61,208 149,208 96,208 137,208 120,208 119,208 119,216 199,216 179,216 179,62 179,215 182,215 204,215 119,215 119,236 119,39 207,39 186,39 180,39 180,17 124,17 124,226 124,209 97,209 97,188 97,48 97,222 97,208 42,208 42,56 42,46 209,46 209,35 175,35 113,35 113,14 131,14 177,14 177,41 177,223 177,197 221,197 60,197 77,197 77,48 77,235 77,12 77,23 185,23 185,201 50,201 50,37 49,37 49,29 49,54 49,217 59,217 182,217 182,29 93,29 93,205 169,205 152,205 152,191 152,229 65,229 65,19 153,19 59,19 65,19 60,19 60,223 196,223 196,206 186,206 186,55 186,62 205,62 46,62 56,62 225,62 54,62 159,62 210,62 175,62 206,62 56,62 56,216 56,60 62,60 154,60 185,60 185,194 92,194 123,194 145,194 201,194 157,194 68,194 68,52 85,52 85,207 85,10 85,198 85,7 85,235 130,235 167,235 100,235 100,241 100,204 100,213 130,213 162,213 61,213 199,213 199,218 146,218 146,39 144,39 144,21 144,195 223,195 131,195 131,55 131,246 143,246 138,246 116,246 140,246 116,246 116,243 101,243 111,243 120,243 137,243 118,243 144,243 144,243 144,232 124,232 124,247 107,247 107,230 107,42 107,244 107,246 107,214 107,6 107,37 161,37 161,215 161,38 161,13 125,13 125,203 97,203 97,201 165,201 95,201 95,216 95,11 95,230 95,42 38,42 38,189 38,58 38,61 141,61 141,220 183,220 183,28 100,28 100,197 224,197 224,56 171,56 171,228 171,56 102,56 189,56 119,56 119,44 119,211 119,58 119,214 119,46 119,3 137,3 104,3 104,235 132,235 105,235 105,205 210,205 210,39 210,48 172,48 61,48 61,221 61,57 61,230 125,230 125,229 125,24 125,200 125,18 83,18 96,18 184,18 184,20 184,40 184,55 184,225 126,225 126,61 42,61 187,61 187,56 187,47 40,47 97,47 97,12 97,214 136,214 53,214 53,188 82,188 82,43 53,43 139,43 139,24 174,24 174,29 174,197 174,222 149,222 183,222 70,222 70,229 110,229 88,229 88,224 69,224 69,24 147,24 147,24 147,200 143,200 40,200 40,42 136,42 171,42 171,43 186,43 118,43 171,43 68,43 31,43 59,43 59,228 59,60 48,60 34,60 34,59 198,59 101,59 209,59 178,59 178,38 180,38 180,215 180,236 71,236 71,41 71,45 71,197 130,197 112,197 112,238 82,238 82,206 214,206 214,38 214,209 214,59 214,46 214,198 183,198 76,198 103,198 84,198 67,198 194,198 194,52 198,52 86,52 86,214 149,214 149,243 127,243 112,243 112,245 129,245 129,34 129,246 129,55 129,50 27,50 27,50 27,52 225,52 225,195 225,51 34,51 34,61 34,60 28,60 28,59 28,59 100,59 100,54 100,26 100,209 79,209 79,46 79,57 79,29 136,29 136,209 136,11 152,11 111,11 111,40 111,247 127,247 127,215 127,40 94,40 94,16 181,16 111,16 111,53 130,53 115,53 85,53 85,215 179,215 179,217 126,217 126,229 126,246 126,12 122,12 108,12 82,12 130,12 163,12 154,12 154,208 154,243 118,243 118,215 55,215 197,215 197,35 197,47 153,47 62,47 122,47 78,47 220,47 220,192 220,190 197,190 132,190 132,5 120,5 120,14 120,227 120,62 120,48 120,243 156,243 142,243 144,243 144,39 144,23 147,23 163,23 124,23 124,206 81,206 39,206 39,188 39,205 30,205 69,205 69,208 69,24 198,24 62,24 62,232 75,232 136,232 130,232 145,232 145,223 153,223 78,223 173,223 69,223 141,223 135,223 135,9 135,5 134,5 103,5 103,201 103,218 159,218 159,22 159,13 159,222 112,222 112,192 112,58 170,58 40,58 154,58 154,200 154,44 166,44 194,44 194,209 151,209 108,209 52,209 52,197 50,197 50,57 227,57 220,57 220,199 59,199 137,199 203,199 203,36 87,36 87,235 87,38 87,203 93,203 162,203 182,203 182,189 153,189 153,197 153,5 99,5 96,5 116,5 112,5 119,5 155,5 133,5 133,243 116,243 116,234 116,242 85,242 135,242 148,242 148,10 172,10 170,10 86,10 94,10 95,10 95,222 95,238 95,245 95,222 73,222 118,222 118,31 118,9 96,9 96,199 96,62 191,62 48,62 48,48 40,48 40,208 37,208 79,208 79,53 134,53 126,53 147,53 147,48 110,48 193,48 133,48 133,240 133,58 129,58 129,229 120,229 80,229 163,229 88,229 158,229 158,237 94,237 86,237 86,12 86,28 86,224 86,218 165,218 50,218 50,28 50,47 50,59 50,27 68,27 153,27 153,224 153,208 192,208 38,208 38,188 197,188 81,188 161,188 161,44 74,44 148,44 148,9 166,9 166,198 166,236 166,209 166,193 118,193 118,243 119,243 95,243 95,40 95,17 95,193 95,39 95,225 95,46 142,46 142,206 142,19 142,205 142,233 152,233 184,233 113,233 166,233 80,233 80,48 155,48 155,29 155,13 155,54 155,28 155,206 63,206 78,206 78,236 78,189 78,222 93,222 49,222 99,222 99,6 99,50 111,50 63,50 63,25 178,25 178,190 178,206 178,220 206,220 206,35 206,217 186,217 186,201 186,45 186,42 186,228 161,228 161,56 161,233 100,233 185,233 149,233 115,233 115,226 115,226 171,226 171,26 142,26 182,26 88,26 88,217 88,33 88,218 88,189 88,58 88,215 88,192 165,192 165,212 165,34 165,50 165,50 165,12 165,188 165,190 151,190 198,190 198,203 186,203 186,17 125,17 66,17 65,17 108,17 71,17 120,17 120,57 201,57 207,57 207,194 207,51 207,36 207,194 207,192 207,195 207,48 164,48 178,48 178,193 228,193 228,192 228,61 93,61 158,61 207,61 19,61 55,61 72,61 187,61 219,61 219,197 219,194 219,189 205,189 205,35 186,35 186,54 186,200 186,220 186,23 186,59 186,24 186,59 186,189 186,44 113,44 138,44 138,199 28,199 28,203 28,192 26,192 26,201 26,61 26,55 159,55 159,46 159,37 159,196 31,196 25,196 25,193 25,53 25,194 148,194 148,23 145,23 145,240 145,27 145,14 98,14 144,14 144,60 201,60 148,60 224,60 98,60 98,38 98,206 98,211 127,211 153,211 41,211 41,52 35,52 66,52 178,52 178,220 178,228 178,216 86,216 86,33 86,227 86,214 138,214 42,214 158,214 125,214 206,214 206,48 206,39 64,39 64,50 207,50 207,211 150,211 47,211 44,211 157,211 191,211 191,25 121,25 144,25 144,196 113,196 69,196 203,196 203,193 203,58 203,199 200,199 200,192 56,192 56,208 187,208 187,25 190,25 139,25 99,25 164,25 92,25 92,219 92,55 92,241 92,27 92,203 187,203 187,37 187,48 137,48 210,48 222,48 85,48 166,48 166,50 166,216 123,216 123,10 167,10 79,10 79,214 57,214 79,214 79,56 172,56 158,56 56,56 130,56 130,188 130,215 130,46 130,46 130,12 74,12 74,231 129,231 129,225 129,245 129,237 97,237 97,28 97,56 97,191 192,191 84,191 78,191 78,209 78,199 78,10 106,10 106,42 142,42 187,42 187,34 182,34 182,57 182,36 115,36 115,8 115,189 115,217 56,217 121,217 121,237 127,237 142,237 142,201 142,42 142,4 125,4 136,4 123,4 123,22 152,22 152,204 179,204 153,204 153,51 71,51 82,51 87,51 92,51 92,16 92,59 92,15 72,15 137,15 137,190 137,7 137,12 123,12 132,12 126,12 126,1 139,1 139,222 139,43 139,26 136,26 136,243 136,234 86,234 86,21 86,61 186,61 186,213 186,232 74,232 74,20 187,20 187,200 187,23 187,217 67,217 138,217 138,199 138,241 139,241 168,241 119,241 119,229 119,19 122,19 115,19 115,188 115,37 62,37 62,35 106,35 173,35 211,35 113,35 113,21 113,6 113,201 155,201 167,201 57,201 57,212 38,212 43,212 43,46 151,46 90,46 64,46 64,217 64,34 156,34 80,34 80,33 174,33 174,61 174,216 135,216 157,216 59,216 59,196 191,196 191,24 95,24 100,24 153,24 153,60 163,60 89,60 188,60 188,39 188,231 181,231 181,189 181,196 181,226 64,226 64,42 64,44 64,16 157,16 157,13 157,27 195,27 195,206 195,29 195,197 45,197 132,197 132,188 33,188 138,188 22,188 42,188 42,55 114,55 114,41 71,41 75,41 75,220 135,220 115,220 115,233 71,233 82,233 128,233 126,233 118,233 148,233 99,233 99,241 165,241 143,241 135,241 124,241 166,241 166,31 182,31 85,31 169,31 102,31 147,31 205,31 156,31 43,31 43,203 43,208 35,208 61,208 94,208 94,34 110,34 83,34 83,51 178,51 171,51 171,17 171,38 171,193 171,10 79,10 121,10 121,212 121,247 121,22 121,37 121,216 121,62 176,62 176,11 176,212 176,208 46,208 95,208 95,213 95,58 95,209 175,209 73,209 127,209 150,209 149,209 149,58 122,58 151,58 151,242 95,242 95,25 64,25 64,202 64,206 64,192 186,192 181,192 181,28 141,28" /></svg>