<?xml version="1.0" encoding="utf-8" ?>
<svg baseProfile="tiny" fill="none" height="250" stroke="black" stroke-opacity="1.0" stroke-width="0.5" version="1.2" width="250" xmlns="http://www.w3.org/2000/svg" xmlns:ev="http://www.w3.org/2001/xml-events" xmlns:xlink="http://www.w3.org/1999/xlink"><defs /><polyline points="220,126 8,126 105,126 53,126 53,123 171,123 127,123 139,123 52,123 52,224 199,224 109,224 109,247 144,247 107,247 107,47 60,47 102,47 102,183 102,196 102,97 102,9 148,9 148,33 209,33 209,43 209,37 209,84 209,180 147,180 25,180 25,87 84,87 7,87 191,87 191,206 191,54 191,208 191,156 4,156 15,156 15,90 15,127 224,127 54,127 54,24 79,24 79,156 79,140 79,198 79,11 139,11 139,52 92,52 140,52 140,82 206,82 206,55 206,52 206,85 54,85 54,37 54,26 54,33 163,33 163,210 163,236 163,128 163,58 52,58 48,58 48,209 48,165 39,165 49,165 172,165 195,165 171,165 217,165 12,165 106,165 201,165 226,165 226,165 230,165 230,116 249,116 219,116 219,69 219,49 219,129 219,51 148,51 148,41 148,44 215,44 170,44 170,145 170,52 216,52 153,52 153,131 88,131 103,131 103,14 103,202 103,201 103,183 231,183 231,141 189,141 189,78 219,78 219,111 219,165 192,165 192,46 192,205 192,155 226,155 226,84 226,128 226,162 78,162 78,103 78,121 78,159 17,159 17,118 2,118 2,145 2,129 43,129 74,129 233,129 231,129 213,129 55,129 55,30 99,30 93,30 93,81 93,170 93,16 93,228 185,228 138,228 138,117 21,117 220,117 246,117 72,117 72,229 72,181 50,181 25,181 123,181 123,147 237,147 228,147 245,147 114,147 75,147 75,63 75,230 178,230 161,230 173,230 184,230 184,231 184,52 54,52 54,173 54,63 150,63 150,40 210,40 210,93 57,93 112,93 33,93 77,93 77,205 77,99 77,73 189,73 189,19 108,19 160,19 168,19 168,81 218,81 218,81 218,139 218,114 143,114 243,114 166,114 166,144 223,144 223,104 71,104 48,104 181,104 181,48 181,137 122,137 122,201 86,201 126,201 126,51 126,145 126,33 126,191 126,170 93,170 210,170 210,216 143,216 143,88 205,88 205,36 134,36 131,36 164,36 164,153 164,52 213,52 213,159 213,125 213,200 158,200 39,200 109,200 109,65 151,65 224,65 224,99 224,180 14,180 14,102 59,102 204,102 18,102 207,102 226,102 118,102 118,239 99,239 99,207 54,207 204,207 98,207 115,207 115,214 148,214 148,8 148,182 148,235 76,235 76,217 113,217 116,217 116,108 162,108 142,108 142,95 227,95 227,134 227,90 227,102 147,102 197,102 197,166 74,166 74,218 74,173 209,173 60,173 222,173 155,173 197,173 45,173 45,213 45,160 45,129 45,44 45,153 91,153 91,188 91,65 91,95 206,95 25,95 25,163 73,163 173,163 173,26 173,78 173,20 173,36 173,32 173,184 173,109 173,45 173,105 173,149 146,149 146,70 146,110 77,110 198,110 198,30 198,222 198,42 198,176 198,199 198,118 198,212 198,147 28,147 28,192 48,192 48,114 122,114 107,114 107,7 153,7 153,199 153,130 153,121 153,206 108,206 108,16 108,122 108,79 108,141 201,141 111,141 168,141 218,141 218,158 218,153 218,206 109,206 85,206 37,206 131,206 106,206 120,206 94,206 94,203 113,203 113,53 123,53 46,53 46,79 74,79 42,79 9,79 200,79 186,79 186,64 34,64 34,132 126,132 63,132 63,200 155,200 129,200 129,5 129,120 180,120 54,120 242,120 242,95 242,166 205,166 37,166 189,166 189,76 189,170 221,170 50,170 50,167 13,167 13,96 5,96 187,96 187,151 187,193 187,128 128,128 128,125 154,125 154,241 146,241 144,241 165,241 165,209 154,209 154,95 117,95 158,95 158,119 213,119 25,119 25,58 25,152 25,175 156,175 53,175 83,175 87,175 69,175 170,175 170,154 20,154 20,80 133,80 132,80 49,80 49,138 23,138 188,138 188,190 188,146 146,146 146,199 146,245 146,55 146,225 113,225 116,225 121,225 62,225 62,179 62,201 62,210 183,210 183,77 183,112 183,135 226,135 226,151 226,93 58,93 58,155 8,155 231,155 231,87 145,87 148,87 148,184 152,184 193,184 193,151 193,133 193,132 193,32 193,50 193,77 193,131 14,131 14,107 119,107 119,35 119,173 231,173 101,173 101,106 135,106 209,106 209,88 42,88 42,34 42,162 42,178 42,111 245,111 245,150 245,103 62,103 62,81 201,81 232,81 232,68 232,94 232,144 58,144 58,192 58,85 242,85 179,85 179,57 179,23 179,155 179,87 114,87 114,195 64,195 174,195 174,205 174,157 93,157 93,49 93,140 93,154 93,143 91,143 49,143 117,143 117,77 117,95 147,95 136,95 7,95 7,144 7,108 165,108 48,108 108,108 18,108 209,108 8,108 8,142 184,142 131,142 237,142 178,142 178,163 178,97 135,97 135,175 135,192 68,192 65,192 65,57 48,57 48,79 19,79 21,79 21,167 158,167 134,167 65,167 220,167 220,61 220,119 228,119 114,119 178,119 178,139 145,139 238,139 155,139 109,139 109,124 103,124 103,167 78,167 175,167 201,167 201,66 112,66 185,66 32,66 206,66 222,66 225,66 148,66 17,66 17,134 17,148 17,87 17,174 17,180 38,180 38,185 197,185 197,139 197,68 51,68 225,68 225,96 41,96 90,96 108,96 58,96 242,96 242,159 32,159 32,169 88,169 28,169 28,146 133,146 133,246 133,230 133,162 93,162 188,162 188,167 188,124 81,124 81,134 214,134 60,134 92,134 92,9 87,9 87,58 64,58 98,58 98,133 65,133 14,133 3,133 55,133 241,133 7,133 7,108 7,107 7,141 7,117 232,117 232,156 25,156 152,156 152,20 152,11 113,11 113,26 113,121 113,169 90,169 90,43 63,43 63,43 63,171 142,171 142,170 209,170 140,170 53,170 53,47 109,47 173,47 45,47 45,78 113,78 113,120 113,63 210,63 44,63 228,63 228,122 36,122 36,98 36,112 109,112 109,103 109,111 91,111 91,229 106,229 106,100 225,100 12,100 109,100 109,206 186,206 186,219 60,219 154,219 103,219 103,203 167,203 167,104 167,105 167,176 167,41 167,17 84,17 66,17 66,194 156,194 185,194 185,55 228,55 228,176 228,133 228,70 228,60 95,60 61,60 61,166 52,166 52,67 41,67 41,139 172,139 167,139 244,139 244,139 216,139 216,128 180,128 180,70 180,114 154,114 154,20 60,20 89,20 89,55 89,97 89,56 89,70 191,70 89,70 89,24 179,24 174,24 174,81 174,94 174,175 40,175 40,143 184,143 184,78 184,37 89,37 89,240 88,240 131,240 95,240 95,73 138,73 138,159 19,159 19,131 179,131 225,131 225,174 225,166 225,52 192,52 84,52 216,52 216,164 143,164 198,164 34,164 34,164 34,168 34,111 132,111 53,111 174,111 174,181 174,43 110,43 102,43 140,43 50,43 50,214 50,87 189,87 59,87 59,72 59,104 59,201 59,25 78,25 81,25 81,241 86,241 157,241 157,206 173,206 173,103 184,103 184,214 151,214 115,214 115,159 50,159 103,159 14,159 118,159 118,235 118,244 118,91 118,128 249,128 249,124 223,124 223,150 94,150 75,150 75,195 75,95 231,95 231,132 10,132 10,123 58,123 187,123 146,123 146,158 146,147 146,219 81,219 81,81 81,154 81,39 73,39 73,63 73,147 163,147 163,68 163,140 94,140 94,146 94,145 35,145 175,145 110,145 110,64 110,121 110,134 223,134 223,132 203,132 203,95 203,106 157,106 128,106 128,43 128,125 38,125 201,125 201,182 201,159 201,91 107,91 107,79 107,186 107,28 123,28 123,57 123,183 123,147 86,147 86,86 15,86 15,78 15,76 15,115 15,113 40,113 75,113 115,113 198,113 100,113 51,113 51,200 59,200 46,200 31,200 168,200 131,200 131,132 137,132 137,98 94,98 41,98 41,80 41,166 105,166 105,191 229,191 229,139 188,139 188,231 188,54 185,54 71,54 71,173 198,173 73,173 43,173 43,193 206,193 206,81 206,193 206,60 206,32 206,88 225,88 217,88 217,169 217,101 217,123 145,123 145,68 145,71 200,71 89,71 89,140 161,140 92,140 48,140 148,140 148,175 181,175 181,47 181,209 166,209 183,209 183,45 183,52 183,191 45,191 45,50 45,180 45,90 45,204 70,204 220,204 94,204 94,228 75,228 175,228 103,228 140,228 80,228 80,97 103,97 103,51 146,51 146,167 128,167 128,155 240,155 42,155 42,32 42,154 42,132 42,76 121,76 224,76 32,76 33,76 33,53 33,150 131,150 131,66 131,54 210,54 210,138 210,69 210,144 210,110 210,215 210,160 126,160 126,40 126,138 126,218 126,220 51,220 135,220 135,144 135,248 142,248 142,52 189,52 39,52 34,52 34,98 69,98 69,166 69,87 69,24 122,24 122,187 122,242 122,213 156,213 197,213 197,182 197,214 144,214 144,237 155,237 155,138 208,138 164,138 164,224 88,224 88,53 95,53 173,53 168,53 168,240 81,240 82,240 119,240 142,240 135,240 135,6 130,6 88,6 88,146 112,146 3,146 3,137 180,137 239,137 119,137 119,48 104,48 104,124 195,124 195,81 195,102 103,102 103,128 31,128 31,150 72,150 142,150 142,151 46,151 88,151 201,151 30,151 30,142 148,142 148,120 148,82 82,82 82,173 95,173 95,92 95,66 26,66 88,66 129,66 129,25 129,238 96,238 96,230 96,148 117,148 34,148 48,148 24,148 230,148 184,148 184,122 184,22 125,22 125,129 147,129 147,202 27,202 59,202 59,59 101,59 30,59 29,59 101,59 101,17 176,17 176,13 176,158 176,197 33,197 33,150 203,150 203,97 203,84 195,84 195,196 195,52 146,52 146,147 125,147 128,147 246,147 246,149 7,149 5,149 5,122 5,131 131,131 131,180 131,105 131,23 131,146 189,146 189,120 33,120 33,145 33,133 233,133 40,133 40,192 40,97 40,160 132,160 116,160 149,160 204,160 204,126 187,126 118,126 232,126 232,114 232,123 95,123 95,120 11,120 11,171 174,171 210,171 28,171 28,182 28,93 28,138 117,138 117,176 208,176 208,79 208,197 208,80 208,52 208,124 208,77 131,77 34,77 34,93 34,42 34,147 161,147 103,147 103,176 225,176 69,176 69,193 86,193 86,209 86,229 86,63 86,14 144,14 81,14 81,205 81,97 81,24 186,24 186,139 203,139 203,76 203,44 203,118 203,123 203,173 203,36 203,55 156,55 165,55 165,22 165,242 151,242 151,18 121,18 121,200 121,178 121,7 121,208 121,84 214,84 214,181 40,181 46,181 46,87 176,87 176,22 104,22 104,60 104,27 172,27 172,14 87,14 99,14 99,26 99,14 152,14 152,87 152,185 152,216 152,140 211,140 144,140 74,140 74,72 74,37 100,37 100,171 62,171 63,171 204,171 216,171 216,192 216,109 164,109 164,26 164,204 164,188 164,48 198,48 198,224 198,211 164,211 48,211 183,211 183,87 171,87 161,87 81,87 81,91 81,153 81,209 150,209 150,118 85,118 85,54 76,54 76,46 76,223 115,223 115,39 115,188 217,188 217,195 217,164 150,164 150,236 145,236 126,236 126,149 216,149 216,175 216,164 162,164 162,51 162,224 162,146 162,133 162,100 202,100 8,100 208,100 208,103 208,177 208,40 208,83 163,83 163,135 163,186 163,16 163,149 163,241 158,241 111,241 152,241 88,241 142,241 122,241 109,241 109,105 109,51 52,51 89,51 89,77 89,50 167,50 79,50 79,167 128,167 211,167 211,195 211,96 211,51 211,104 216,104 80,104 74,104 122,104 160,104 208,104 208,76 57,76 140,76 140,177 126,177 66,177 237,177 237,134 219,134 9,134 66,134 66,235 176,235 184,235 184,66 184,217 184,67 197,67 219,67 79,67 201,67 50,67 50,117 50,112 50,38 202,38 93,38 182,38 182,122 249,122 182,122 182,18 182,102 97,102 97,92 97,43 45,43 45,131 157,131 88,131 42,131 63,131 63,149 113,149 113,90 113,160 113,98 113,69 113,228 192,228 88,228 159,228 83,228 116,228 116,143 3,143 3,119 239,119 239,118 239,154 178,154 18,154 164,154 164,41 164,198 164,8 164,157 119,157 99,157 99,142 123,142 123,5 123,41 123,147 123,206 123,226 103,226 52,226 80,226 80,97 203,97 203,95 203,30 203,117 240,117 143,117 21,117 21,117 21,153 21,101 63,101 244,101 244,157 90,157 90,197 212,197 185,197 185,119 56,119 56,51 56,42 76,42 162,42 162,244 162,143 13,143 40,143 40,105 40,214 178,214 178,105 178,208 178,67 76,67 76,32 76,19 84,19 84,123 84,17 135,17 150,17 151,17 177,17 154,17 73,17 73,46 73,198 50,198 50,88 50,187 109,187 109,239 109,100 13,100 13,163 32,163 56,163 56,121 56,144 47,144 47,128 206,128 206,60 99,60 99,35 54,35 54,67 54,77 54,187 78,187 78,220 78,84 71,84 71,56 71,206 157,206 218,206 122,206 122,77 41,77 32,77 32,170 133,170 133,46 133,215 43,215 176,215 176,129 67,129 229,129 229,106 229,130 229,96 229,56 229,103 140,103 140,149 41,149 41,122 41,207 41,43 125,43 125,18 91,18 124,18 124,87 109,87 132,87 207,87 207,97 207,128 207,156 148,156 96,156 96,143 96,25 96,139 141,139 207,139 207,208 114,208 114,123 114,67 114,226 114,39 173,39 212,39 179,39 179,158 179,172 42,172 140,172 180,172 180,154 180,114 180,109 180,27 140,27 200,27 200,200 200,143 200,152 25,152 226,152 226,157 53,157 53,213 91,213 206,213 206,101 206,130 4,130 98,130 78,130 78,143 78,165 78,41 213,41 213,195 130,195 130,4 130,27 141,27 194,27 194,159 194,171 39,171 174,171 174,31 174,145 174,201 46,201 46,195 46,91 56,91 56,129 56,214 190,214 190,165 72,165 72,53 153,53 153,107 73,107 73,177 73,168 184,168 154,168 154,178 154,43 154,186 154,235 95,235 95,172 95,73 197,73 176,73 176,221 53,221 172,221 53,221 149,221 149,108 231,108 231,160 223,160 223,109 136,109 136,246 128,246 128,132 128,221 128,190 52,190 52,95 52,177 52,199 52,134 9,134 35,134 35,170 35,72 35,112 35,128 106,128 201,128 236,128 236,97 75,97 207,97 207,191 207,216 131,216 131,96 208,96 48,96 80,96 224,96 117,96 117,83 117,93 238,93 112,93 149,93 218,93 218,133 44,133 176,133 100,133 218,133 218,160 218,86 218,58 218,119 218,79 71,79 49,79 49,215 82,215 141,215 141,217 149,217 191,217 87,217 87,166 87,159 5,159 5,136 76,136 76,103 76,224 147,224 102,224 96,224 96,106 122,106 122,148 122,50 122,54 175,54 175,118 192,118 37,118 110,118 110,115 238,115 238,91 60,91 158,91 200,91 204,91 204,112 204,109 69,109 69,177 69,168 81,168 81,97 81,29 71,29 71,163 59,163 59,188 59,170 74,170 74,31 106,31 184,31 184,51 184,207 184,151 184,226 184,135 184,199 184,198 65,198 48,198 48,110 170,110 170,22 170,229 160,229 160,214 160,50 160,13 104,13 104,209 104,144 104,221 104,6 104,17 172,17 172,224 172,209 110,209 110,14 110,224 197,224 104,224 120,224 167,224 167,226 167,186 63,186 84,186 84,25 84,74 84,187 84,110 84,33 84,180 41,180 225,180 225,138 55,138 173,138 38,138 38,115 38,212 166,212 166,215 166,25 166,12 136,12 167,12 167,14 159,14 120,14 87,14 87,243 145,243 147,243 145,243 100,243 141,243 141,13 152,13 152,107 99,107 99,213 99,84 99,16 120,16 127,16 87,16 87,226 87,215 87,130 236,130 236,179 58,179 58,113 92,113 92,37 172,37 203,37 203,81 195,81 195,66 195,194 195,106 104,106 104,65 104,92 104,183 104,210 34,210 131,210 101,210 101,28 92,28 146,28 197,28 197,67 197,58 147,58 80,58 203,58 154,58 32,58 32,197 160,197 160,50 61,50 61,109 61,224 70,224 58,224 84,224 146,224 111,224 146,224 146,111 48,111 152,111 152,233 152,134 230,134 194,134 194,90 137,90 170,90 170,82 170,228 170,99 83,99 47,99 74,99 15,99 15,174 72,174 72,57 94,57 60,57 94,57 94,55 94,220 94,83 41,83 82,83 82,110 73,110 47,110 47,209 47,73 43,73 27,73 122,73 122,93 190,93 190,138 191,138 26,138 26,66 81,66 81,140 81,109 9,109 9,126 9,127 9,108 9,157 198,157 198,78 198,41 198,98 198,112 135,112 135,74 218,74 105,74 115,74 102,74 47,74 165,74 42,74 78,74 78,143 78,44 150,44 194,44 125,44 104,44 104,212 104,48 104,29 143,29 143,57 143,183 143,131 143,161 229,161 203,161 203,219 98,219 98,35 199,35 93,35 93,29 93,243 93,72 93,6 93,229 93,186 93,101 93,234 80,234 80,12 80,76 80,116 193,116 193,53 123,53 123,193 123,184 123,191 127,191 127,127 99,127 99,194 99,186 220,186 220,48 220,168 22,168 77,168 77,147 77,180 198,180 79,180 226,180 226,97 191,97 191,49 136,49 136,245 136,160 107,160 197,160 233,160 236,160 58,160 111,160 111,100 111,60 111,87 111,163 99,163 99,109 99,207 58,207 58,89 184,89 184,235 139,235 139,54 139,228 84,228 68,228 146,228 170,228 170,14 89,14 89,234 89,157 89,141 89,232 125,232 112,232 140,232 140,117 140,128 140,101 140,176 140,119 140,88 140,121 140,166 194,166 108,166 188,166 218,166 159,166 137,166 142,166 230,166 81,166 73,166 73,21 73,122 139,122 203,122 203,67 141,67 141,163 43,163 241,163 241,85 242,85 242,128 132,128 132,74 185,74 104,74 166,74 166,138 20,138 93,138 93,140 96,140 96,138 95,138 26,138 26,58 41,58 41,180 27,180 27,105 47,105 47,50 213,50 213,178 214,178 214,93 214,133 214,172 214,153 214,91 214,157 15,157 181,157 181,160 157,160 157,14 75,14 75,92 75,174 105,174 48,174 48,165 48,177 151,177 225,177 225,128 10,128 184,128 88,128 88,221 65,221 201,221 96,221 168,221 178,221 196,221 66,221 66,142 66,102 176,102 176,88 176,28 176,66 176,13 176,79 176,213 176,194 68,194 68,198 68,193 147,193 147,62 211,62 61,62 146,62 69,62 69,113 69,168 69,48 122,48 175,48 175,192 46,192 46,205 46,120 128,120 128,9 128,204 91,204 91,210 113,210 113,132 113,201 113,136 113,205 121,205 154,205 66,205 119,205 119,130 119,236 119,61 139,61 53,61 53,70 53,166 210,166 66,166 148,166 190,166 190,179 23,179 112,179 64,179 64,181 181,181 181,181 181,94 181,133 181,56 130,56 130,14 130,158 152,158 152,164 152,158 152,142 33,142 33,88 243,88 21,88 103,88 54,88 54,127 54,104 218,104 218,62 45,62 72,62 34,62 146,62 163,62 163,178 163,89 170,89 79,89 79,61 126,61 126,38 123,38 96,38 47,38 128,38 209,38 209,97 220,97 220,170 220,61 60,61 41,61 41,92 41,92 41,100 23,100 23,94 64,94 35,94 35,56 35,165 71,165 20,165 20,125 20,109 20,178 20,105 231,105 74,105 74,189 74,73 74,102 74,138 74,203 93,203 203,203 60,203 104,203 104,77 104,196 104,160 141,160 141,180 141,242 136,242 147,242 147,145 62,145 39,145 32,145 70,145 50,145 50,58 50,95 50,174 50,149 232,149 178,149 178,235 178,27 166,27 166,147 168,147 245,147 245,92 245,93 245,109 40,109 40,129 40,161 186,161 186,93 41,93 41,106 41,116 201,116 37,116 37,81 77,81 66,81 155,81 90,81 90,86 90,156 244,156 244,153 244,95 185,95 22,95 22,78 62,78 60,78 60,148 54,148 54,192 71,192 102,192 102,13 102,18 102,136 133,136 133,219 133,162 133,73 133,68 133,49 52,49 175,49 165,49 148,49 148,157 148,32 148,81 148,199 173,199 173,25 180,25 180,120 180,86 168,86 188,86 42,86 42,49 42,214 110,214 110,40 175,40 103,40 103,211 103,48 103,199 153,199 173,199 173,58 173,59 76,59 76,220 76,117 76,89 211,89 57,89 72,89 72,65 217,65 217,174 217,115 114,115 184,115 184,93 184,187 229,187 202,187 202,111 202,64 202,203 79,203 152,203 152,175 93,175 93,124 93,226 179,226 179,114 3,114 186,114 50,114 50,223 50,207 87,207 87,90 87,102 87,57 228,57 228,141 228,106 228,113 144,113 82,113 55,113 127,113 140,113 38,113 38,157 87,157 200,157 21,157 21,76 33,76 33,53 33,167 33,132 33,206 33,99 166,99 76,99 92,99 124,99 124,12 98,12 98,93 196,93 130,93 130,208 130,16 169,16 169,53 105,53 40,53 40,121 144,121 144,134 56,134 56,107 56,68 56,44 182,44 182,195 81,195 92,195 92,28 92,27 92,234 162,234 92,234 92,206 127,206 127,241 155,241 150,241 150,3 132,3 126,3 101,3 107,3 150,3 150,185 150,145 36,145 124,145 65,145 15,145 15,152 15,110 32,110 32,51 83,51 83,96 82,96 139,96 12,96 95,96 45,96 45,55 51,55 176,55 210,55 210,171 178,171 222,171 222,99 222,144 222,191 222,135 222,108 222,59 222,202 222,147 211,147 222,147 186,147 56,147 56,217 196,217 196,25 196,66 196,217 196,60 196,157 196,78 196,54 100,54 95,54 123,54 65,54 65,234 65,161 65,224 65,60 65,54 218,54 218,159 218,45 118,45 118,200 118,118 118,46 144,46 144,205 169,205 169,169 139,169 139,53 69,53 174,53 174,163 174,30 174,140 174,74 174,104 174,21 174,91 174,146 174,216 84,216 128,216 128,151 128,14 169,14 105,14 105,142 105,163 44,163 44,40 82,40 63,40 144,40 144,164 166,164 166,195 35,195 184,195 119,195 119,198 33,198 33,198 115,198 54,198 54,32 54,142 54,106 184,106 184,111 34,111 102,111 186,111 186,32 186,179 186,190 40,190 23,190" /></svg>