<?xml version="1.0" encoding="utf-8" ?>
<svg baseProfile="tiny" fill="none" height="100" stroke="black" stroke-opacity="1.0" stroke-width="1" version="1.2" width="100" xmlns="http://www.w3.org/2000/svg" xmlns:ev="http://www.w3.org/2001/xml-events" xmlns:xlink="http://www.w3.org/1999/xlink"><defs /><polyline points="79,14 79,36 79,28 79,18 79,10 79,28 79,75 70,75 46,75 46,36 46,18 1,18 1,4 55,4 29,4 29,41 29,76 17,76 17,76 48,76 27,76 38,76 78,76 78,59 78,47 24,47 24,27 24,67 24,76 51,76 51,14 51,22 15,22 25,22 75,22 51,22 51,77 62,77 13,77 4,77 4,30 4,16 4,74 0,74 0,25 45,25 56,25 76,25 76,53 76,53 76,42 0,42 0,71 12,71 12,45 59,45 0,45 4,45 4,46 4,61 11,61 68,61 68,4 68,16 68,79 68,79 68,41 68,18 68,1 68,35 68,72 19,72 52,72 52,74 17,74 17,38 25,38 55,38 1,38 27,38 76,38 76,59 76,75 15,75 15,72 43,72 23,72 23,1 69,1 69,47 69,3 75,3 75,39 63,39 44,39 31,39 27,39 57,39 62,39 35,39 35,69 35,5 35,46 35,51 35,54 35,30 35,28 23,28 46,28 46,72 46,46 46,27 56,27 32,27 32,73 32,34 32,10 32,15 57,15 57,17 57,56 57,35 57,50 57,42 57,57 52,57 76,57 76,33 76,8 76,13 76,61 76,30 26,30 25,30 25,21 25,57 25,24 35,24 35,2 35,72 35,39 18,39 28,39 49,39 71,39 18,39 41,39 28,39 29,39 29,78 29,1 56,1 56,38 56,8 56,55 56,47 48,47 40,47 40,12 31,12 71,12 70,12 70,27 35,27 35,65 35,19 35,48 35,35 35,24 27,24 27,35 13,35 13,46 13,46 13,33 13,39 13,29 57,29 22,29 22,20 22,78 7,78 7,61 7,66 24,66 24,37 11,37 29,37 29,17 29,71 13,71 13,59 7,59 7,50 64,50 64,59 64,19 64,27 64,41 64,37 70,37 0,37 58,37 42,37 42,16 42,75 42,47 45,47 18,47 62,47 62,0 62,68 68,68 68,60 68,77 41,77 24,77 25,77 29,77 47,77 22,77 20,77 20,64 26,64 5,64 45,64 17,64 17,22 17,14 76,14 76,66 76,64 76,51 76,40 22,40 54,40 68,40 32,40 32,42 31,42 31,36 31,15 60,15 60,70 60,15 48,15 48,45 49,45 49,66 49,58 72,58 30,58 75,58 75,55 14,55 14,9 14,2 12,2 12,21 3,21 3,32 3,19 76,19 76,8 15,8 20,8 3,8 55,8 11,8 11,45 11,17 11,33 11,41 8,41 60,41 60,7 37,7 37,7 37,59 37,3 37,79 4,79 63,79 44,79 19,79 49,79 49,61 29,61 29,53 29,14 29,71 29,57 29,50 30,50 30,58 78,58 78,29 10,29 67,29 23,29" stroke="#00ecff" /><polyline points="20,53 20,77 20,36 77,36 77,39 77,58 77,50 77,75 73,75 9,75 9,44 37,44 7,44 7,52 7,44 7,77 43,77 78,77 78,23 65,23 65,16 28,16 8,16 8,60 25,60 25,31 24,31 1,31 1,16 1,47 38,47 8,47 24,47 24,75 24,32 77,32 77,68 18,68 73,68 73,11 73,67 1,67 48,67 48,0 48,20 48,45 34,45 49,45 49,3 45,3 13,3 13,23 13,33 12,33 33,33 30,33 30,9 35,9 23,9 20,9 20,44 58,44 58,58 58,40 58,66 58,68 34,68 34,55 34,52 34,18 34,27 71,27 19,27 70,27 36,27 36,31 36,60 50,60 1,60 11,60 55,60 55,40 49,40 49,18 49,63 49,14 49,23 49,0 49,77 34,77 38,77 14,77 14,76 36,76 19,76 65,76 65,1 65,31 44,31 62,31 33,31 33,29 58,29 75,29 29,29 29,60 11,60 11,63 55,63 55,43 55,49 55,14 55,23 55,27 72,27 72,62 72,36 67,36 67,76 67,31 35,31 44,31 35,31 35,15 25,15 25,34 62,34 62,68 51,68 51,54 51,69 51,42 51,12 36,12 36,40 65,40 29,40 29,43 29,20 29,22 74,22 74,16 74,33 52,33 52,60 33,60 33,35 25,35 25,66 47,66 37,66 37,12 37,5 37,34 77,34 77,44 77,46 77,48 77,69 77,64 17,64 17,79 18,79 18,39 60,39 60,43 60,71 60,74 60,9 60,33 60,29 33,29 37,29 47,29 47,32 29,32 72,32 72,7 58,7 31,7 71,7 45,7 0,7 0,50 55,50 35,50 24,50 24,72 45,72 45,16 45,34 6,34 6,11 6,9 6,37 6,45 6,2 26,2 26,17 60,17 28,17 28,33 27,33 27,35 41,35 5,35 30,35 27,35 27,67 27,14 27,70 79,70 79,28 79,63 79,6 62,6 62,16 62,12 62,71 19,71 19,56 19,63 36,63 22,63 29,63 69,63 53,63 53,27 53,45 53,32 53,62 57,62 57,30 57,28 57,63 12,63 6,63 6,46 6,57 0,57 0,57 0,50 0,10 78,10 61,10 28,10 19,10 18,10 18,38 59,38 71,38 8,38 48,38 48,33 48,63 48,20 77,20 77,21 77,26 77,25 77,16 39,16 68,16 79,16 79,16 79,69 79,26 56,26 79,26 79,38 79,58 79,28 79,24 32,24 48,24 48,57 48,5 48,14 59,14 59,40 67,40 3,40 3,33 3,50 45,50 45,76 25,76 56,76 56,23 56,1 56,4 56,33 72,33 7,33 38,33 14,33 75,33 56,33 56,33 4,33" stroke="#f300c8" /><polyline points="68,19 16,19 77,19 43,19 40,19 18,19 6,19 50,19 41,19 41,28 41,77 41,29 41,32 41,16 65,16 65,65 70,65 70,42 70,29 70,24 38,24 72,24 72,67 65,67 18,67 57,67 58,67 73,67 14,67 14,70 68,70 26,70 26,3 26,63 24,63 30,63 70,63 20,63 20,18 8,18 8,39 8,39 54,39 54,30 54,20 54,63 64,63 28,63 28,65 28,58 38,58 8,58 8,6 54,6 77,6 18,6 33,6 48,6 48,48 3,48 3,25 56,25 56,69 71,69 19,69 60,69 24,69 24,26 60,26 60,62 60,71 60,49 60,69 23,69 66,69 46,69 8,69 8,35 52,35 24,35 24,55 79,55 29,55 69,55 69,78 10,78 10,66 54,66 54,15 55,15 55,9 55,55 55,61 62,61 62,37 35,37 60,37 60,26 60,36 60,48 36,48 36,71 36,55 36,66 36,22 36,20 36,15 36,45 36,26 31,26 31,59 46,59 46,69 45,69 45,70 63,70 25,70 78,70 56,70 12,70 27,70 27,76 26,76 26,65 26,24 76,24 76,31 76,62 76,60 4,60 4,22 1,22 22,22 22,65 22,1 22,24 22,16 22,25 22,54 72,54 72,62 41,62 41,67 34,67 34,26 31,26 17,26 60,26 18,26 37,26 37,79 34,79 34,19 65,19 65,77 65,18 66,18 66,72 67,72 67,14 67,49 13,49 64,49 64,10 64,10 64,8 38,8 47,8 48,8 48,8 48,8 15,8 15,46 15,62 39,62 39,11 65,11 17,11 17,44 17,61 17,8 17,37 17,26 31,26 36,26 36,23 54,23 54,35 22,35 22,38 22,1 22,1 74,1 74,72 74,43 74,74 74,12 74,11 74,38 74,12 74,10 74,42 35,42 35,51 35,61 35,65 35,39 35,64 35,38 35,0 40,0 40,14 58,14 58,63 58,53 27,53 27,78 62,78 11,78 11,17 11,76 11,3 11,33 11,67 11,25 11,22 11,14 11,22 4,22 4,54 13,54 59,54 59,58 59,65 65,65 65,45 65,14 11,14 18,14 18,41 18,28 39,28 39,8 39,3 39,26 12,26 30,26 30,57 30,52 30,34 22,34 33,34 60,34 60,72 60,71 60,35 59,35 59,68 59,18 59,12 59,10 52,10 52,42 52,24 41,24 41,9 44,9 59,9 59,7 59,68 10,68 10,23 10,19 5,19 5,62 31,62 31,47 21,47 21,0 21,73 74,73 74,30 74,57 65,57 52,57 53,57 5,57 5,70 5,39 55,39 55,66 55,4 55,6 55,27 55,69 52,69 52,37 52,24 52,35 52,73" stroke="#ffe321" /></svg>