<?xml version="1.0" encoding="utf-8" ?>
<svg baseProfile="tiny" fill="none" height="100" stroke="black" stroke-opacity="1.0" stroke-width="0.5" version="1.2" width="100" xmlns="http://www.w3.org/2000/svg" xmlns:ev="http://www.w3.org/2001/xml-events" xmlns:xlink="http://www.w3.org/1999/xlink"><defs /><polyline points="48,97 12,97 12,24 18,24 18,22 18,59 0,59 60,59 60,56 60,69 96,69 96,31 89,31 1,31 71,31 71,62 71,83 71,13 49,13 56,13 56,6 93,6 93,13 93,21 93,78 93,41 61,41 60,41 60,69 60,5 60,17 60,43 25,43 61,43 85,43 51,43 51,83 99,83 45,83 45,12 45,1 22,1 16,1 16,9 16,11 39,11 39,20 59,20 59,18 59,33 59,14 9,14 9,78 44,78 37,78 37,12 37,92 37,30 2,30 2,92 2,66 75,66 55,66 27,66 48,66 48,21 7,21 80,21 49,21 49,13 49,9 49,48 49,21 49,61 34,61 34,28 34,34 30,34 79,34 54,34 54,87 91,87 68,87 68,57 54,57 81,57 67,57 67,47 67,84 65,84 65,40 65,61 65,99 5,99 5,14 5,75 5,3 88,3 88,92 88,63 89,63 89,82 94,82 20,82 41,82 41,78 41,54 41,76 41,62 14,62 14,3 14,0 55,0 55,33 26,33 26,76 44,76 63,76 63,31 63,27 63,53 27,53 29,53 29,49 29,83 95,83 95,1 95,72 95,70 95,89 95,11 13,11 72,11 67,11 2,11 2,75 11,75 67,75 87,75 36,75 52,75 52,79 52,62 52,90 5,90 82,90 82,36 82,3 16,3 16,42 16,18 33,18 97,18 97,41 15,41 15,31 15,84 15,52 66,52 73,52 73,93 94,93 84,93 84,13 84,76 84,14 46,14 83,14 59,14 59,40 40,40 22,40 22,29 38,29 71,29 9,29 32,29 33,29 98,29 13,29 88,29 88,17 64,17 85,17 9,17 97,17 36,17 36,36 43,36 86,36 86,69 86,13 86,82 86,60 22,60 22,19 60,19 25,19 42,19 94,19 94,76 56,76 1,76 1,67 1,4 1,2 63,2 30,2 30,14 16,14 22,14 22,31 21,31 75,31 7,31 7,65 51,65 51,12 35,12 35,69 97,69 15,69 95,69 95,37 95,25 2,25 22,25 98,25 35,25 35,19 16,19 16,48 10,48 10,5 10,83 10,84 64,84 5,84 5,10 5,81 18,81 18,59 22,59 32,59 32,97 8,97 8,93 8,92 72,92 40,92" stroke="#00ecff" /><polyline points="96,23 96,50 96,63 96,50 84,50 84,29 30,29 19,29 19,69 25,69 24,69 24,30 24,53 24,89 24,96 24,83 24,78 68,78 83,78 5,78 24,78 24,20 24,98 24,14 24,53 24,93 24,27 29,27 29,23 59,23 77,23 19,23 67,23 1,23 38,23 43,23 43,42 10,42 21,42 4,42 12,42 13,42 13,16 88,16 88,18 88,40 88,32 1,32 51,32 51,21 51,60 2,60 2,9 67,9 67,66 67,85 67,95 10,95 10,40 10,80 83,80 21,80 47,80 25,80 98,80 98,66 28,66 28,10 28,92 28,97 86,97 86,55 86,31 2,31 2,8 2,43 2,11 17,11 17,46 77,46 77,70 33,70 33,13 42,13 63,13 50,13 65,13 65,95 65,98 65,66 65,75 70,75 70,2 33,2 18,2 18,30 52,30 52,29 52,49 52,41 52,1 52,24 52,81 52,19 52,83 44,83 40,83 40,95 18,95 42,95 12,95 77,95 77,2 77,42 60,42 81,42 81,26 70,26 70,33 70,41 58,41 58,29 49,29 49,34 74,34 41,34 31,34 78,34 78,51 78,39 73,39 73,60 48,60 78,60 78,65 9,65 80,65 52,65 52,23 52,48 24,48 24,48 9,48 58,48 23,48 92,48 92,0 61,0 50,0 26,0 26,24 88,24 51,24 51,11 51,2 51,27 45,27 45,94 45,72 51,72 57,72 48,72 44,72 66,72 35,72 35,63 98,63 98,58 45,58 45,68 45,62 89,62 89,72 3,72 84,72 84,9 52,9 68,9 68,99 7,99 7,96 58,96 58,87 7,87 7,28 7,63 7,55 48,55 18,55 76,55 51,55 49,55 49,65 75,65 74,65 47,65 47,49 47,5 47,58 12,58 80,58 80,8 80,8 80,91 80,85 57,85 57,86 57,35 57,80 44,80 31,80 31,80 64,80 38,80 92,80 1,80 93,80 79,80 79,44 79,17 79,23 79,54 79,62 6,62 6,69 6,79 54,79 54,96 54,71 89,71 89,22 89,12 89,57 89,69 53,69 53,88 53,95 48,95 48,27 90,27 55,27 44,27 44,6 30,6 30,17 30,34 30,71 46,71 46,77 46,46" stroke="#f300c8" /><polyline points="70,43 70,98 70,8 70,22 52,22 52,38 50,38 50,66 28,66 28,25 28,15 28,81 28,45 28,78 28,48 71,48 71,70 63,70 63,90 89,90 9,90 10,90 10,40 10,60 61,60 61,66 61,12 61,62 61,6 61,88 34,88 34,44 90,44 90,28 90,69 90,63 5,63 70,63 70,11 70,73 70,73 70,66 15,66 10,66 37,66 37,21 11,21 11,62 23,62 8,62 8,6 8,87 8,95 8,29 89,29 89,8 89,99 89,10 87,10 51,10 51,46 70,46 10,46 10,58 4,58 4,81 4,63 35,63 35,24 7,24 54,24 98,24 98,27 68,27 7,27 27,27 79,27 83,27 83,83 83,78 83,23 83,92 15,92 15,97 32,97 32,81 32,30 75,30 58,30 50,30 31,30 31,26 77,26 77,90 46,90 95,90 95,20 95,23 75,23 75,14 96,14 96,56 63,56 63,59 63,28 20,28 20,62 72,62 9,62 48,62 2,62 2,92 25,92 25,60 75,60 2,60 2,55 23,55 48,55 48,90 48,69 48,3 3,3 25,3 25,19 70,19 18,19 18,27 39,27 95,27 91,27 95,27 54,27 52,27 52,57 34,57 69,57 3,57 70,57 70,83 26,83 26,71 49,71 49,71 60,71 45,71 7,71 7,21 54,21 54,42 54,12 64,12 44,12 4,12 4,3 4,38 4,82 98,82 98,82 47,82 47,20 2,20 2,44 2,69 95,69 95,24 64,24 64,84 64,57 64,71 66,71 44,71 83,71 74,71 22,71 22,66 90,66 10,66 43,66 74,66 81,66 81,93 81,45 53,45 53,68 53,67 28,67 87,67 87,58 53,58 53,21 53,52 47,52 47,62 98,62 98,23 18,23 18,95 18,13 18,55 18,44 18,50 18,17 18,80 50,80 84,80 84,59 47,59 32,59 32,63 79,63 79,94 21,94 21,51 21,48 64,48 18,48 66,48 66,33 66,91 7,91 7,51 78,51 78,98 46,98 83,98 83,70 83,2 48,2 68,2 68,24 47,24 47,65 22,65 59,65 58,65 58,62 78,62 8,62 49,62 49,50 46,50 89,50 21,50 32,50 7,50 45,50 74,50 2,50 2,54" stroke="#ffe321" /></svg>