<?xml version="1.0" encoding="utf-8" ?>
<svg baseProfile="tiny" fill="none" height="100" stroke="black" stroke-opacity="1.0" stroke-width="0.5" version="1.2" width="100" xmlns="http://www.w3.org/2000/svg" xmlns:ev="http://www.w3.org/2001/xml-events" xmlns:xlink="http://www.w3.org/1999/xlink"><defs /><polyline points="78,71 78,18 78,0 78,28 62,28 79,28 79,49 79,7 79,75 93,75 55,75 45,75 39,75 39,5 58,5 30,5 99,5 99,40 67,40 67,0 53,0 53,52 53,9 40,9 40,74 40,27 40,94 88,94 88,82 8,82 41,82 95,82 95,61 79,61 79,37 79,3 49,3 97,3 32,3 97,3 92,3 92,9 12,9 12,78 8,78 9,78 9,40 45,40 45,33 90,33" stroke="#00ecff" /><polyline points="8,6 8,86 64,86 84,86 84,2 84,16 84,80 19,80 19,16 64,16 64,46 98,46 98,16 98,64 85,64 88,64 98,64 13,64 13,50 98,50 61,50 62,50 62,25 34,25 80,25 37,25 39,25 43,25 97,25 97,79 46,79 28,79 92,79 92,2 24,2 24,48 24,87 50,87 81,87 38,87 38,76 38,41 38,45 38,64 19,64 19,45 80,45 80,29 80,53 37,53" stroke="#f300c8" /><polyline points="91,48 91,55 89,55 89,73 86,73 86,31 86,65 86,58 77,58 24,58 21,58 21,80 21,52 21,13 21,2 63,2 54,2 54,20 26,20 25,20 25,84 25,87 25,82 25,94 25,6 52,6 52,50 52,91 20,91 30,91 30,26 30,87 52,87 52,30 52,9 52,3 9,3 57,3 92,3 91,3 58,3 80,3 86,3 86,9 86,55 68,55 26,55 65,55 14,55 14,64" stroke="#ffe321" /></svg>