<?xml version="1.0" encoding="utf-8" ?>
<svg baseProfile="tiny" fill="none" height="100" stroke="black" stroke-opacity="1.0" stroke-width="0.5" version="1.2" width="100" xmlns="http://www.w3.org/2000/svg" xmlns:ev="http://www.w3.org/2001/xml-events" xmlns:xlink="http://www.w3.org/1999/xlink"><defs /><line x1="24" x2="9" y1="8" y2="8" /><line x1="9" x2="9" y1="8" y2="12" /><line x1="9" x2="9" y1="12" y2="6" /><line x1="9" x2="7" y1="6" y2="6" /><line x1="7" x2="9" y1="6" y2="6" /><line x1="9" x2="9" y1="6" y2="10" /><line x1="9" x2="7" y1="10" y2="10" /><line x1="7" x2="14" y1="10" y2="10" /><line x1="14" x2="4" y1="10" y2="10" /><line x1="4" x2="12" y1="10" y2="10" /><line x1="12" x2="1" y1="10" y2="10" /><line x1="1" x2="10" y1="10" y2="10" /><line x1="10" x2="3" y1="10" y2="10" /><line x1="3" x2="18" y1="10" y2="10" /><line x1="18" x2="23" y1="10" y2="10" /><line x1="23" x2="13" y1="10" y2="10" /><line x1="13" x2="13" y1="10" y2="9" /><line x1="13" x2="13" y1="9" y2="8" /><line x1="13" x2="13" y1="8" y2="8" /><line x1="13" x2="13" y1="8" y2="5" /><line x1="13" x2="22" y1="5" y2="5" /></svg>