<?xml version="1.0" encoding="utf-8" ?>
<svg baseProfile="tiny" fill="none" height="100" stroke="black" stroke-opacity="1.0" stroke-width="0.5" version="1.2" width="100" xmlns="http://www.w3.org/2000/svg" xmlns:ev="http://www.w3.org/2001/xml-events" xmlns:xlink="http://www.w3.org/1999/xlink"><defs /><polyline points="90,41 90,45 90,25 90,67 90,22 90,63 90,37 76,37 39,37 39,22 79,22 79,89 79,47 34,47 78,47 58,47 42,47 70,47 70,48 70,37 70,50 48,50 48,22 48,47 48,63 48,90 37,90 37,75 37,13 27,13 57,13 57,12 78,12 78,23 36,23 76,23 76,25 76,86 76,12 76,92 76,75 76,87 76,26 61,26 54,26 54,80 54,26 54,19 54,77 92,77 92,33 92,41 92,37 92,27 56,27 56,76 56,31 70,31 94,31 94,37 9,37 77,37 77,51 77,28 80,28 40,28 82,28 36,28 36,4 42,4 41,4 35,4 35,50 35,74 14,74 49,74 72,74 72,18 55,18 55,28 78,28 79,28 60,28 60,97 61,97 48,97 48,23 69,23 57,23 74,23 90,23 90,74 90,22 50,22 65,22 72,22 57,22 57,27 31,27 31,88 31,25 31,4 31,96 31,34 64,34 44,34 97,34 97,49 97,45 97,57 97,59 86,59 86,22 66,22 66,30 66,21 60,21 60,50 60,40 2,40 89,40 89,50 89,60 89,72 89,75 89,42 52,42 43,42 43,79 43,28 24,28 72,28 92,28 92,30 52,30 27,30 28,30 28,20 73,20 73,58 56,58 94,58 22,58 24,58 24,59 37,59 37,46 37,83 37,23 37,65 59,65 7,65 22,65 22,62 22,14 22,47 22,60 91,60 91,25 91,31 58,31 58,80 63,80 63,81 32,81 73,81 42,81 42,56 42,75 87,75 93,75 93,67 93,39 26,39 96,39 96,60 96,41 47,41 47,11 80,11 80,14 80,12 39,12 39,61 39,98 39,44 39,69 39,79 69,79 69,87 28,87 28,94 30,94 30,35 73,35 73,64 73,90 75,90 50,90 36,90 36,59 41,59 41,79 41,85 16,85 48,85 48,85 48,56 28,56 28,81 28,8 28,92 28,62 21,62 21,19 21,76 21,53 21,37 73,37 49,37 49,59 23,59 23,29 23,69 23,76 23,9 27,9 27,33 27,51 98,51 98,57 98,60 98,44 98,55 11,55 11,56 11,53 72,53 72,70 65,70 65,85 65,27 52,27 52,34 60,34 60,29 60,42 60,71 67,71 67,31 67,71 57,71 66,71 31,71 31,52 14,52 98,52 68,52 61,52 61,35 61,96 61,39 61,83 61,68 61,32 61,55 61,21 61,67 61,18 61,70 43,70 43,38 88,38 88,40 88,56 88,54 27,54 27,54 86,54 86,82 19,82 19,57 26,57 45,57 45,41 45,54 53,54 41,54 41,99 41,48 2,48 2,54 43,54 36,54 79,54 45,54 45,73 45,77 86,77 86,76 29,76 29,35 10,35 10,76 84,76 84,23 79,23 79,27 79,45 79,28 65,28 51,28 61,28 61,33 61,89 21,89 21,32 21,28 21,34 66,34 66,81 66,48 66,50 2,50 70,50 70,35 75,35 51,35 51,82 41,82 71,82 71,39 71,13 71,45 18,45 18,39 18,29 18,13 69,13 48,13 50,13 26,13 26,76 26,13 26,48 26,89 63,89 63,73 12,73 53,73 70,73 70,43 38,43 38,79 38,38 42,38 42,24 87,24 87,21 64,21 64,63 81,63 49,63 87,63 46,63 46,8 29,8 29,79 22,79 22,71 80,71 68,71 67,71 67,9 43,9 43,98 43,7 32,7 32,78 68,78 22,78 22,64 78,64 93,64 88,64 89,64 16,64 77,64 77,74 58,74 58,92 27,92 26,92 26,92 26,86 55,86 68,86 51,86 60,86 60,86 34,86 34,84 38,84 38,76 78,76 78,24 40,24 50,24 47,24 13,24 13,38 13,53 13,61 13,82 19,82 65,82 54,82 66,82 27,82 27,38 27,76 51,76 51,41 31,41 71,41 96,41 96,47 96,59 96,58 78,58 78,34 91,34 91,70 93,70 93,53 43,53 95,53 5,53 5,54 5,30 5,29 5,67 5,31 5,29 41,29 41,99 41,10 41,32 41,28 41,1 45,1 45,71 40,71 40,30 40,78 23,78 23,72 45,72 58,72 58,79 28,79 16,79 16,37 41,37 41,37 4,37 4,69 4,48 73,48 73,64 73,16 45,16 23,16 23,66 88,66 88,40 88,63 86,63 86,67 86,44 86,23 86,50 86,20 86,51 86,60 86,74 86,42 75,42 75,29 83,29 83,72 56,72 56,71 73,71 73,57 40,57 40,58 46,58 27,58 87,58 77,58 77,35 18,35 30,35 5,35 84,35 90,35 90,54 81,54 5,54 5,58 5,38 5,62 39,62 39,53 39,78 39,7 39,36 39,56 39,74 32,74 32,59 88,59 10,59 10,76 52,76 52,17 20,17 17,17 54,17 39,17 39,64 4,64 4,35 83,35 5,35 59,35 59,9 59,79 59,84 59,96 65,96 65,24 63,24 43,24 43,20 32,20 82,20 82,45 82,31 65,31 91,31 11,31 11,77 11,47 11,30 94,30 94,69 64,69 19,69 19,28 19,44 3,44 3,43 75,43 75,40 75,48 75,87 75,36 44,36 94,36 26,36 26,74 38,74 47,74 73,74 73,94 59,94 53,94 53,60 53,91 53,61 73,61 73,68 73,37 91,37 91,36 95,36 95,65 95,38 95,53 95,65 95,55 28,55 28,47 28,47 28,56 80,56 91,56 59,56 96,56 96,62 96,31 96,34 96,62 96,48 96,60 96,53 32,53 53,53 89,53 61,53 18,53 18,82 18,50 45,50 44,50 74,50 85,50 85,18 38,18 38,83 38,90 38,95 57,95 29,95 56,95 56,98 43,98 38,98 48,98 48,85 48,63 4,63 4,67 4,51 23,51 22,51 44,51 88,51 85,51 85,29 75,29 93,29 93,33 51,33 47,33 5,33 5,34 5,39 5,69 5,50 5,30 5,70 5,48 64,48 24,48 85,48 85,50 85,21 68,21 68,33 68,17 49,17 50,17 29,17 70,17 70,82 87,82 87,76 87,81 87,47 1,47 1,54 1,50 1,44 81,44 99,44 99,49 4,49 4,66 42,66 42,28 64,28 76,28 76,21 76,14 27,14 27,18 27,39 56,39 31,39 15,39 53,39 53,40 53,52 76,52 78,52 78,73 12,73 12,64 12,52 39,52 39,97 42,97 42,34 42,53 42,77 42,39 42,89 42,72 42,6 33,6 33,39 66,39 7,39 7,71 78,71 78,25 65,25 65,26 65,59 68,59 68,13 35,13 35,31 35,68 26,68 26,74 80,74 69,74 74,74 71,74 71,28 71,55 73,55 18,55 79,55 79,49 79,80 79,74 79,83 55,83 55,83 79,83 30,83 30,39 30,45 30,5 30,65 30,58 30,28 30,83 80,83 80,74 60,74 60,91 60,44 20,44 82,44 71,44 46,44 52,44 78,44 2,44 26,44 26,39 24,39 24,56 62,56 47,56 47,71 47,38 93,38 61,38 9,38 9,65 47,65 5,65 5,35 84,35 72,35 72,83 45,83 39,83 72,83 72,83 72,73 60,73 60,26 60,61 72,61 72,87 72,17 24,17 28,17 80,17 72,17 36,17 70,17 46,17 46,19 15,19 15,38 35,38 35,80 35,47 44,47 44,27 44,93 44,29 58,29 30,29 46,29 93,29 93,73 61,73 44,73 44,17 44,30 44,85 55,85 69,85 69,43 85,43 24,43 72,43 72,38 37,38 37,80 44,80 33,80 17,80 17,50 2,50 2,40 10,40 10,64 10,55 10,42 10,68 60,68 30,68 55,68 71,68 72,68 30,68 23,68 77,68 77,86 77,13 77,62 58,62 66,62 92,62 92,67 22,67 61,67 61,72 61,63 61,2 56,2 39,2 39,44 97,44 65,44 65,43 65,55 65,79 65,89 77,89 72,89 72,59 84,59 62,59 62,59 82,59 82,85 29,85 45,85 45,47 45,45 45,34 8,34 8,28 74,28 91,28 91,22 40,22 40,84 40,62 56,62 56,67 57,67 57,9 33,9 25,9 42,9 42,45 42,33 42,27" /></svg>